G04 #@! TF.GenerationSoftware,KiCad,Pcbnew,(5.0.0)*
G04 #@! TF.CreationDate,2019-07-27T01:42:12+02:00*
G04 #@! TF.ProjectId,v3,76332E6B696361645F70636200000000,rev?*
G04 #@! TF.SameCoordinates,Original*
G04 #@! TF.FileFunction,Soldermask,Top*
G04 #@! TF.FilePolarity,Negative*
%FSLAX46Y46*%
G04 Gerber Fmt 4.6, Leading zero omitted, Abs format (unit mm)*
G04 Created by KiCad (PCBNEW (5.0.0)) date 07/27/19 01:42:12*
%MOMM*%
%LPD*%
G01*
G04 APERTURE LIST*
%ADD10C,0.001000*%
%ADD11C,0.100000*%
%ADD12R,1.600000X3.000000*%
%ADD13C,1.150000*%
%ADD14C,0.950000*%
%ADD15R,0.900000X0.800000*%
%ADD16R,0.600000X1.000000*%
%ADD17R,0.450000X1.000000*%
%ADD18R,2.500000X1.000000*%
%ADD19R,1.000000X1.800000*%
%ADD20R,2.000000X0.650000*%
%ADD21R,0.300000X0.800000*%
%ADD22R,1.000000X0.200000*%
G04 APERTURE END LIST*
D10*
G04 #@! TO.C,U4*
G36*
X155590000Y-86726000D02*
X155940000Y-87076000D01*
X155940000Y-88026000D01*
X153940000Y-88026000D01*
X153940000Y-86726000D01*
X155590000Y-86726000D01*
G37*
X155590000Y-86726000D02*
X155940000Y-87076000D01*
X155940000Y-88026000D01*
X153940000Y-88026000D01*
X153940000Y-86726000D01*
X155590000Y-86726000D01*
D11*
G36*
X155890000Y-85724660D02*
X155890000Y-86626000D01*
X155490448Y-86626000D01*
X155490448Y-85724660D01*
X155890000Y-85724660D01*
G37*
G36*
X155390000Y-85725330D02*
X155390000Y-86626000D01*
X154990020Y-86626000D01*
X154990020Y-85725330D01*
X155390000Y-85725330D01*
G37*
G36*
X154890000Y-85724100D02*
X154890000Y-86626000D01*
X154489481Y-86626000D01*
X154489481Y-85724100D01*
X154890000Y-85724100D01*
G37*
G36*
X154390000Y-85725490D02*
X154390000Y-86626000D01*
X153989705Y-86626000D01*
X153989705Y-85725490D01*
X154390000Y-85725490D01*
G37*
G36*
X155890000Y-88126198D02*
X155890000Y-89026000D01*
X155490145Y-89026000D01*
X155490145Y-88126198D01*
X155890000Y-88126198D01*
G37*
G36*
X155390000Y-88126849D02*
X155390000Y-89026000D01*
X154990057Y-89026000D01*
X154990057Y-88126849D01*
X155390000Y-88126849D01*
G37*
G36*
X154890000Y-88126746D02*
X154890000Y-89026000D01*
X154489552Y-89026000D01*
X154489552Y-88126746D01*
X154890000Y-88126746D01*
G37*
G36*
X154390000Y-88126826D02*
X154390000Y-89026000D01*
X153988954Y-89026000D01*
X153988954Y-88126826D01*
X154390000Y-88126826D01*
G37*
G04 #@! TD*
D12*
G04 #@! TO.C,C1*
X141351000Y-75479000D03*
X141351000Y-71079000D03*
G04 #@! TD*
G04 #@! TO.C,C4*
X153543000Y-75479000D03*
X153543000Y-71079000D03*
G04 #@! TD*
D11*
G04 #@! TO.C,C5*
G36*
X146771505Y-82105204D02*
X146795773Y-82108804D01*
X146819572Y-82114765D01*
X146842671Y-82123030D01*
X146864850Y-82133520D01*
X146885893Y-82146132D01*
X146905599Y-82160747D01*
X146923777Y-82177223D01*
X146940253Y-82195401D01*
X146954868Y-82215107D01*
X146967480Y-82236150D01*
X146977970Y-82258329D01*
X146986235Y-82281428D01*
X146992196Y-82305227D01*
X146995796Y-82329495D01*
X146997000Y-82353999D01*
X146997000Y-83254001D01*
X146995796Y-83278505D01*
X146992196Y-83302773D01*
X146986235Y-83326572D01*
X146977970Y-83349671D01*
X146967480Y-83371850D01*
X146954868Y-83392893D01*
X146940253Y-83412599D01*
X146923777Y-83430777D01*
X146905599Y-83447253D01*
X146885893Y-83461868D01*
X146864850Y-83474480D01*
X146842671Y-83484970D01*
X146819572Y-83493235D01*
X146795773Y-83499196D01*
X146771505Y-83502796D01*
X146747001Y-83504000D01*
X146096999Y-83504000D01*
X146072495Y-83502796D01*
X146048227Y-83499196D01*
X146024428Y-83493235D01*
X146001329Y-83484970D01*
X145979150Y-83474480D01*
X145958107Y-83461868D01*
X145938401Y-83447253D01*
X145920223Y-83430777D01*
X145903747Y-83412599D01*
X145889132Y-83392893D01*
X145876520Y-83371850D01*
X145866030Y-83349671D01*
X145857765Y-83326572D01*
X145851804Y-83302773D01*
X145848204Y-83278505D01*
X145847000Y-83254001D01*
X145847000Y-82353999D01*
X145848204Y-82329495D01*
X145851804Y-82305227D01*
X145857765Y-82281428D01*
X145866030Y-82258329D01*
X145876520Y-82236150D01*
X145889132Y-82215107D01*
X145903747Y-82195401D01*
X145920223Y-82177223D01*
X145938401Y-82160747D01*
X145958107Y-82146132D01*
X145979150Y-82133520D01*
X146001329Y-82123030D01*
X146024428Y-82114765D01*
X146048227Y-82108804D01*
X146072495Y-82105204D01*
X146096999Y-82104000D01*
X146747001Y-82104000D01*
X146771505Y-82105204D01*
X146771505Y-82105204D01*
G37*
D13*
X146422000Y-82804000D03*
D11*
G36*
X148821505Y-82105204D02*
X148845773Y-82108804D01*
X148869572Y-82114765D01*
X148892671Y-82123030D01*
X148914850Y-82133520D01*
X148935893Y-82146132D01*
X148955599Y-82160747D01*
X148973777Y-82177223D01*
X148990253Y-82195401D01*
X149004868Y-82215107D01*
X149017480Y-82236150D01*
X149027970Y-82258329D01*
X149036235Y-82281428D01*
X149042196Y-82305227D01*
X149045796Y-82329495D01*
X149047000Y-82353999D01*
X149047000Y-83254001D01*
X149045796Y-83278505D01*
X149042196Y-83302773D01*
X149036235Y-83326572D01*
X149027970Y-83349671D01*
X149017480Y-83371850D01*
X149004868Y-83392893D01*
X148990253Y-83412599D01*
X148973777Y-83430777D01*
X148955599Y-83447253D01*
X148935893Y-83461868D01*
X148914850Y-83474480D01*
X148892671Y-83484970D01*
X148869572Y-83493235D01*
X148845773Y-83499196D01*
X148821505Y-83502796D01*
X148797001Y-83504000D01*
X148146999Y-83504000D01*
X148122495Y-83502796D01*
X148098227Y-83499196D01*
X148074428Y-83493235D01*
X148051329Y-83484970D01*
X148029150Y-83474480D01*
X148008107Y-83461868D01*
X147988401Y-83447253D01*
X147970223Y-83430777D01*
X147953747Y-83412599D01*
X147939132Y-83392893D01*
X147926520Y-83371850D01*
X147916030Y-83349671D01*
X147907765Y-83326572D01*
X147901804Y-83302773D01*
X147898204Y-83278505D01*
X147897000Y-83254001D01*
X147897000Y-82353999D01*
X147898204Y-82329495D01*
X147901804Y-82305227D01*
X147907765Y-82281428D01*
X147916030Y-82258329D01*
X147926520Y-82236150D01*
X147939132Y-82215107D01*
X147953747Y-82195401D01*
X147970223Y-82177223D01*
X147988401Y-82160747D01*
X148008107Y-82146132D01*
X148029150Y-82133520D01*
X148051329Y-82123030D01*
X148074428Y-82114765D01*
X148098227Y-82108804D01*
X148122495Y-82105204D01*
X148146999Y-82104000D01*
X148797001Y-82104000D01*
X148821505Y-82105204D01*
X148821505Y-82105204D01*
G37*
D13*
X148472000Y-82804000D03*
G04 #@! TD*
D11*
G04 #@! TO.C,F1*
G36*
X139325779Y-85088144D02*
X139348834Y-85091563D01*
X139371443Y-85097227D01*
X139393387Y-85105079D01*
X139414457Y-85115044D01*
X139434448Y-85127026D01*
X139453168Y-85140910D01*
X139470438Y-85156562D01*
X139486090Y-85173832D01*
X139499974Y-85192552D01*
X139511956Y-85212543D01*
X139521921Y-85233613D01*
X139529773Y-85255557D01*
X139535437Y-85278166D01*
X139538856Y-85301221D01*
X139540000Y-85324500D01*
X139540000Y-85899500D01*
X139538856Y-85922779D01*
X139535437Y-85945834D01*
X139529773Y-85968443D01*
X139521921Y-85990387D01*
X139511956Y-86011457D01*
X139499974Y-86031448D01*
X139486090Y-86050168D01*
X139470438Y-86067438D01*
X139453168Y-86083090D01*
X139434448Y-86096974D01*
X139414457Y-86108956D01*
X139393387Y-86118921D01*
X139371443Y-86126773D01*
X139348834Y-86132437D01*
X139325779Y-86135856D01*
X139302500Y-86137000D01*
X138827500Y-86137000D01*
X138804221Y-86135856D01*
X138781166Y-86132437D01*
X138758557Y-86126773D01*
X138736613Y-86118921D01*
X138715543Y-86108956D01*
X138695552Y-86096974D01*
X138676832Y-86083090D01*
X138659562Y-86067438D01*
X138643910Y-86050168D01*
X138630026Y-86031448D01*
X138618044Y-86011457D01*
X138608079Y-85990387D01*
X138600227Y-85968443D01*
X138594563Y-85945834D01*
X138591144Y-85922779D01*
X138590000Y-85899500D01*
X138590000Y-85324500D01*
X138591144Y-85301221D01*
X138594563Y-85278166D01*
X138600227Y-85255557D01*
X138608079Y-85233613D01*
X138618044Y-85212543D01*
X138630026Y-85192552D01*
X138643910Y-85173832D01*
X138659562Y-85156562D01*
X138676832Y-85140910D01*
X138695552Y-85127026D01*
X138715543Y-85115044D01*
X138736613Y-85105079D01*
X138758557Y-85097227D01*
X138781166Y-85091563D01*
X138804221Y-85088144D01*
X138827500Y-85087000D01*
X139302500Y-85087000D01*
X139325779Y-85088144D01*
X139325779Y-85088144D01*
G37*
D14*
X139065000Y-85612000D03*
D11*
G36*
X139325779Y-86838144D02*
X139348834Y-86841563D01*
X139371443Y-86847227D01*
X139393387Y-86855079D01*
X139414457Y-86865044D01*
X139434448Y-86877026D01*
X139453168Y-86890910D01*
X139470438Y-86906562D01*
X139486090Y-86923832D01*
X139499974Y-86942552D01*
X139511956Y-86962543D01*
X139521921Y-86983613D01*
X139529773Y-87005557D01*
X139535437Y-87028166D01*
X139538856Y-87051221D01*
X139540000Y-87074500D01*
X139540000Y-87649500D01*
X139538856Y-87672779D01*
X139535437Y-87695834D01*
X139529773Y-87718443D01*
X139521921Y-87740387D01*
X139511956Y-87761457D01*
X139499974Y-87781448D01*
X139486090Y-87800168D01*
X139470438Y-87817438D01*
X139453168Y-87833090D01*
X139434448Y-87846974D01*
X139414457Y-87858956D01*
X139393387Y-87868921D01*
X139371443Y-87876773D01*
X139348834Y-87882437D01*
X139325779Y-87885856D01*
X139302500Y-87887000D01*
X138827500Y-87887000D01*
X138804221Y-87885856D01*
X138781166Y-87882437D01*
X138758557Y-87876773D01*
X138736613Y-87868921D01*
X138715543Y-87858956D01*
X138695552Y-87846974D01*
X138676832Y-87833090D01*
X138659562Y-87817438D01*
X138643910Y-87800168D01*
X138630026Y-87781448D01*
X138618044Y-87761457D01*
X138608079Y-87740387D01*
X138600227Y-87718443D01*
X138594563Y-87695834D01*
X138591144Y-87672779D01*
X138590000Y-87649500D01*
X138590000Y-87074500D01*
X138591144Y-87051221D01*
X138594563Y-87028166D01*
X138600227Y-87005557D01*
X138608079Y-86983613D01*
X138618044Y-86962543D01*
X138630026Y-86942552D01*
X138643910Y-86923832D01*
X138659562Y-86906562D01*
X138676832Y-86890910D01*
X138695552Y-86877026D01*
X138715543Y-86865044D01*
X138736613Y-86855079D01*
X138758557Y-86847227D01*
X138781166Y-86841563D01*
X138804221Y-86838144D01*
X138827500Y-86837000D01*
X139302500Y-86837000D01*
X139325779Y-86838144D01*
X139325779Y-86838144D01*
G37*
D14*
X139065000Y-87362000D03*
G04 #@! TD*
D15*
G04 #@! TO.C,IC1*
X140859000Y-85537000D03*
X140859000Y-87437000D03*
X142859000Y-86487000D03*
G04 #@! TD*
D11*
G04 #@! TO.C,L1*
G36*
X152239505Y-85777204D02*
X152263773Y-85780804D01*
X152287572Y-85786765D01*
X152310671Y-85795030D01*
X152332850Y-85805520D01*
X152353893Y-85818132D01*
X152373599Y-85832747D01*
X152391777Y-85849223D01*
X152408253Y-85867401D01*
X152422868Y-85887107D01*
X152435480Y-85908150D01*
X152445970Y-85930329D01*
X152454235Y-85953428D01*
X152460196Y-85977227D01*
X152463796Y-86001495D01*
X152465000Y-86025999D01*
X152465000Y-86676001D01*
X152463796Y-86700505D01*
X152460196Y-86724773D01*
X152454235Y-86748572D01*
X152445970Y-86771671D01*
X152435480Y-86793850D01*
X152422868Y-86814893D01*
X152408253Y-86834599D01*
X152391777Y-86852777D01*
X152373599Y-86869253D01*
X152353893Y-86883868D01*
X152332850Y-86896480D01*
X152310671Y-86906970D01*
X152287572Y-86915235D01*
X152263773Y-86921196D01*
X152239505Y-86924796D01*
X152215001Y-86926000D01*
X151314999Y-86926000D01*
X151290495Y-86924796D01*
X151266227Y-86921196D01*
X151242428Y-86915235D01*
X151219329Y-86906970D01*
X151197150Y-86896480D01*
X151176107Y-86883868D01*
X151156401Y-86869253D01*
X151138223Y-86852777D01*
X151121747Y-86834599D01*
X151107132Y-86814893D01*
X151094520Y-86793850D01*
X151084030Y-86771671D01*
X151075765Y-86748572D01*
X151069804Y-86724773D01*
X151066204Y-86700505D01*
X151065000Y-86676001D01*
X151065000Y-86025999D01*
X151066204Y-86001495D01*
X151069804Y-85977227D01*
X151075765Y-85953428D01*
X151084030Y-85930329D01*
X151094520Y-85908150D01*
X151107132Y-85887107D01*
X151121747Y-85867401D01*
X151138223Y-85849223D01*
X151156401Y-85832747D01*
X151176107Y-85818132D01*
X151197150Y-85805520D01*
X151219329Y-85795030D01*
X151242428Y-85786765D01*
X151266227Y-85780804D01*
X151290495Y-85777204D01*
X151314999Y-85776000D01*
X152215001Y-85776000D01*
X152239505Y-85777204D01*
X152239505Y-85777204D01*
G37*
D13*
X151765000Y-86351000D03*
D11*
G36*
X152239505Y-87827204D02*
X152263773Y-87830804D01*
X152287572Y-87836765D01*
X152310671Y-87845030D01*
X152332850Y-87855520D01*
X152353893Y-87868132D01*
X152373599Y-87882747D01*
X152391777Y-87899223D01*
X152408253Y-87917401D01*
X152422868Y-87937107D01*
X152435480Y-87958150D01*
X152445970Y-87980329D01*
X152454235Y-88003428D01*
X152460196Y-88027227D01*
X152463796Y-88051495D01*
X152465000Y-88075999D01*
X152465000Y-88726001D01*
X152463796Y-88750505D01*
X152460196Y-88774773D01*
X152454235Y-88798572D01*
X152445970Y-88821671D01*
X152435480Y-88843850D01*
X152422868Y-88864893D01*
X152408253Y-88884599D01*
X152391777Y-88902777D01*
X152373599Y-88919253D01*
X152353893Y-88933868D01*
X152332850Y-88946480D01*
X152310671Y-88956970D01*
X152287572Y-88965235D01*
X152263773Y-88971196D01*
X152239505Y-88974796D01*
X152215001Y-88976000D01*
X151314999Y-88976000D01*
X151290495Y-88974796D01*
X151266227Y-88971196D01*
X151242428Y-88965235D01*
X151219329Y-88956970D01*
X151197150Y-88946480D01*
X151176107Y-88933868D01*
X151156401Y-88919253D01*
X151138223Y-88902777D01*
X151121747Y-88884599D01*
X151107132Y-88864893D01*
X151094520Y-88843850D01*
X151084030Y-88821671D01*
X151075765Y-88798572D01*
X151069804Y-88774773D01*
X151066204Y-88750505D01*
X151065000Y-88726001D01*
X151065000Y-88075999D01*
X151066204Y-88051495D01*
X151069804Y-88027227D01*
X151075765Y-88003428D01*
X151084030Y-87980329D01*
X151094520Y-87958150D01*
X151107132Y-87937107D01*
X151121747Y-87917401D01*
X151138223Y-87899223D01*
X151156401Y-87882747D01*
X151176107Y-87868132D01*
X151197150Y-87855520D01*
X151219329Y-87845030D01*
X151242428Y-87836765D01*
X151266227Y-87830804D01*
X151290495Y-87827204D01*
X151314999Y-87826000D01*
X152215001Y-87826000D01*
X152239505Y-87827204D01*
X152239505Y-87827204D01*
G37*
D13*
X151765000Y-88401000D03*
G04 #@! TD*
D11*
G04 #@! TO.C,R1*
G36*
X146651505Y-69140204D02*
X146675773Y-69143804D01*
X146699572Y-69149765D01*
X146722671Y-69158030D01*
X146744850Y-69168520D01*
X146765893Y-69181132D01*
X146785599Y-69195747D01*
X146803777Y-69212223D01*
X146820253Y-69230401D01*
X146834868Y-69250107D01*
X146847480Y-69271150D01*
X146857970Y-69293329D01*
X146866235Y-69316428D01*
X146872196Y-69340227D01*
X146875796Y-69364495D01*
X146877000Y-69388999D01*
X146877000Y-70039001D01*
X146875796Y-70063505D01*
X146872196Y-70087773D01*
X146866235Y-70111572D01*
X146857970Y-70134671D01*
X146847480Y-70156850D01*
X146834868Y-70177893D01*
X146820253Y-70197599D01*
X146803777Y-70215777D01*
X146785599Y-70232253D01*
X146765893Y-70246868D01*
X146744850Y-70259480D01*
X146722671Y-70269970D01*
X146699572Y-70278235D01*
X146675773Y-70284196D01*
X146651505Y-70287796D01*
X146627001Y-70289000D01*
X145726999Y-70289000D01*
X145702495Y-70287796D01*
X145678227Y-70284196D01*
X145654428Y-70278235D01*
X145631329Y-70269970D01*
X145609150Y-70259480D01*
X145588107Y-70246868D01*
X145568401Y-70232253D01*
X145550223Y-70215777D01*
X145533747Y-70197599D01*
X145519132Y-70177893D01*
X145506520Y-70156850D01*
X145496030Y-70134671D01*
X145487765Y-70111572D01*
X145481804Y-70087773D01*
X145478204Y-70063505D01*
X145477000Y-70039001D01*
X145477000Y-69388999D01*
X145478204Y-69364495D01*
X145481804Y-69340227D01*
X145487765Y-69316428D01*
X145496030Y-69293329D01*
X145506520Y-69271150D01*
X145519132Y-69250107D01*
X145533747Y-69230401D01*
X145550223Y-69212223D01*
X145568401Y-69195747D01*
X145588107Y-69181132D01*
X145609150Y-69168520D01*
X145631329Y-69158030D01*
X145654428Y-69149765D01*
X145678227Y-69143804D01*
X145702495Y-69140204D01*
X145726999Y-69139000D01*
X146627001Y-69139000D01*
X146651505Y-69140204D01*
X146651505Y-69140204D01*
G37*
D13*
X146177000Y-69714000D03*
D11*
G36*
X146651505Y-71190204D02*
X146675773Y-71193804D01*
X146699572Y-71199765D01*
X146722671Y-71208030D01*
X146744850Y-71218520D01*
X146765893Y-71231132D01*
X146785599Y-71245747D01*
X146803777Y-71262223D01*
X146820253Y-71280401D01*
X146834868Y-71300107D01*
X146847480Y-71321150D01*
X146857970Y-71343329D01*
X146866235Y-71366428D01*
X146872196Y-71390227D01*
X146875796Y-71414495D01*
X146877000Y-71438999D01*
X146877000Y-72089001D01*
X146875796Y-72113505D01*
X146872196Y-72137773D01*
X146866235Y-72161572D01*
X146857970Y-72184671D01*
X146847480Y-72206850D01*
X146834868Y-72227893D01*
X146820253Y-72247599D01*
X146803777Y-72265777D01*
X146785599Y-72282253D01*
X146765893Y-72296868D01*
X146744850Y-72309480D01*
X146722671Y-72319970D01*
X146699572Y-72328235D01*
X146675773Y-72334196D01*
X146651505Y-72337796D01*
X146627001Y-72339000D01*
X145726999Y-72339000D01*
X145702495Y-72337796D01*
X145678227Y-72334196D01*
X145654428Y-72328235D01*
X145631329Y-72319970D01*
X145609150Y-72309480D01*
X145588107Y-72296868D01*
X145568401Y-72282253D01*
X145550223Y-72265777D01*
X145533747Y-72247599D01*
X145519132Y-72227893D01*
X145506520Y-72206850D01*
X145496030Y-72184671D01*
X145487765Y-72161572D01*
X145481804Y-72137773D01*
X145478204Y-72113505D01*
X145477000Y-72089001D01*
X145477000Y-71438999D01*
X145478204Y-71414495D01*
X145481804Y-71390227D01*
X145487765Y-71366428D01*
X145496030Y-71343329D01*
X145506520Y-71321150D01*
X145519132Y-71300107D01*
X145533747Y-71280401D01*
X145550223Y-71262223D01*
X145568401Y-71245747D01*
X145588107Y-71231132D01*
X145609150Y-71218520D01*
X145631329Y-71208030D01*
X145654428Y-71199765D01*
X145678227Y-71193804D01*
X145702495Y-71190204D01*
X145726999Y-71189000D01*
X146627001Y-71189000D01*
X146651505Y-71190204D01*
X146651505Y-71190204D01*
G37*
D13*
X146177000Y-71764000D03*
G04 #@! TD*
D11*
G04 #@! TO.C,R2*
G36*
X146771505Y-84137204D02*
X146795773Y-84140804D01*
X146819572Y-84146765D01*
X146842671Y-84155030D01*
X146864850Y-84165520D01*
X146885893Y-84178132D01*
X146905599Y-84192747D01*
X146923777Y-84209223D01*
X146940253Y-84227401D01*
X146954868Y-84247107D01*
X146967480Y-84268150D01*
X146977970Y-84290329D01*
X146986235Y-84313428D01*
X146992196Y-84337227D01*
X146995796Y-84361495D01*
X146997000Y-84385999D01*
X146997000Y-85286001D01*
X146995796Y-85310505D01*
X146992196Y-85334773D01*
X146986235Y-85358572D01*
X146977970Y-85381671D01*
X146967480Y-85403850D01*
X146954868Y-85424893D01*
X146940253Y-85444599D01*
X146923777Y-85462777D01*
X146905599Y-85479253D01*
X146885893Y-85493868D01*
X146864850Y-85506480D01*
X146842671Y-85516970D01*
X146819572Y-85525235D01*
X146795773Y-85531196D01*
X146771505Y-85534796D01*
X146747001Y-85536000D01*
X146096999Y-85536000D01*
X146072495Y-85534796D01*
X146048227Y-85531196D01*
X146024428Y-85525235D01*
X146001329Y-85516970D01*
X145979150Y-85506480D01*
X145958107Y-85493868D01*
X145938401Y-85479253D01*
X145920223Y-85462777D01*
X145903747Y-85444599D01*
X145889132Y-85424893D01*
X145876520Y-85403850D01*
X145866030Y-85381671D01*
X145857765Y-85358572D01*
X145851804Y-85334773D01*
X145848204Y-85310505D01*
X145847000Y-85286001D01*
X145847000Y-84385999D01*
X145848204Y-84361495D01*
X145851804Y-84337227D01*
X145857765Y-84313428D01*
X145866030Y-84290329D01*
X145876520Y-84268150D01*
X145889132Y-84247107D01*
X145903747Y-84227401D01*
X145920223Y-84209223D01*
X145938401Y-84192747D01*
X145958107Y-84178132D01*
X145979150Y-84165520D01*
X146001329Y-84155030D01*
X146024428Y-84146765D01*
X146048227Y-84140804D01*
X146072495Y-84137204D01*
X146096999Y-84136000D01*
X146747001Y-84136000D01*
X146771505Y-84137204D01*
X146771505Y-84137204D01*
G37*
D13*
X146422000Y-84836000D03*
D11*
G36*
X148821505Y-84137204D02*
X148845773Y-84140804D01*
X148869572Y-84146765D01*
X148892671Y-84155030D01*
X148914850Y-84165520D01*
X148935893Y-84178132D01*
X148955599Y-84192747D01*
X148973777Y-84209223D01*
X148990253Y-84227401D01*
X149004868Y-84247107D01*
X149017480Y-84268150D01*
X149027970Y-84290329D01*
X149036235Y-84313428D01*
X149042196Y-84337227D01*
X149045796Y-84361495D01*
X149047000Y-84385999D01*
X149047000Y-85286001D01*
X149045796Y-85310505D01*
X149042196Y-85334773D01*
X149036235Y-85358572D01*
X149027970Y-85381671D01*
X149017480Y-85403850D01*
X149004868Y-85424893D01*
X148990253Y-85444599D01*
X148973777Y-85462777D01*
X148955599Y-85479253D01*
X148935893Y-85493868D01*
X148914850Y-85506480D01*
X148892671Y-85516970D01*
X148869572Y-85525235D01*
X148845773Y-85531196D01*
X148821505Y-85534796D01*
X148797001Y-85536000D01*
X148146999Y-85536000D01*
X148122495Y-85534796D01*
X148098227Y-85531196D01*
X148074428Y-85525235D01*
X148051329Y-85516970D01*
X148029150Y-85506480D01*
X148008107Y-85493868D01*
X147988401Y-85479253D01*
X147970223Y-85462777D01*
X147953747Y-85444599D01*
X147939132Y-85424893D01*
X147926520Y-85403850D01*
X147916030Y-85381671D01*
X147907765Y-85358572D01*
X147901804Y-85334773D01*
X147898204Y-85310505D01*
X147897000Y-85286001D01*
X147897000Y-84385999D01*
X147898204Y-84361495D01*
X147901804Y-84337227D01*
X147907765Y-84313428D01*
X147916030Y-84290329D01*
X147926520Y-84268150D01*
X147939132Y-84247107D01*
X147953747Y-84227401D01*
X147970223Y-84209223D01*
X147988401Y-84192747D01*
X148008107Y-84178132D01*
X148029150Y-84165520D01*
X148051329Y-84155030D01*
X148074428Y-84146765D01*
X148098227Y-84140804D01*
X148122495Y-84137204D01*
X148146999Y-84136000D01*
X148797001Y-84136000D01*
X148821505Y-84137204D01*
X148821505Y-84137204D01*
G37*
D13*
X148472000Y-84836000D03*
G04 #@! TD*
D11*
G04 #@! TO.C,R5*
G36*
X146651505Y-73458204D02*
X146675773Y-73461804D01*
X146699572Y-73467765D01*
X146722671Y-73476030D01*
X146744850Y-73486520D01*
X146765893Y-73499132D01*
X146785599Y-73513747D01*
X146803777Y-73530223D01*
X146820253Y-73548401D01*
X146834868Y-73568107D01*
X146847480Y-73589150D01*
X146857970Y-73611329D01*
X146866235Y-73634428D01*
X146872196Y-73658227D01*
X146875796Y-73682495D01*
X146877000Y-73706999D01*
X146877000Y-74357001D01*
X146875796Y-74381505D01*
X146872196Y-74405773D01*
X146866235Y-74429572D01*
X146857970Y-74452671D01*
X146847480Y-74474850D01*
X146834868Y-74495893D01*
X146820253Y-74515599D01*
X146803777Y-74533777D01*
X146785599Y-74550253D01*
X146765893Y-74564868D01*
X146744850Y-74577480D01*
X146722671Y-74587970D01*
X146699572Y-74596235D01*
X146675773Y-74602196D01*
X146651505Y-74605796D01*
X146627001Y-74607000D01*
X145726999Y-74607000D01*
X145702495Y-74605796D01*
X145678227Y-74602196D01*
X145654428Y-74596235D01*
X145631329Y-74587970D01*
X145609150Y-74577480D01*
X145588107Y-74564868D01*
X145568401Y-74550253D01*
X145550223Y-74533777D01*
X145533747Y-74515599D01*
X145519132Y-74495893D01*
X145506520Y-74474850D01*
X145496030Y-74452671D01*
X145487765Y-74429572D01*
X145481804Y-74405773D01*
X145478204Y-74381505D01*
X145477000Y-74357001D01*
X145477000Y-73706999D01*
X145478204Y-73682495D01*
X145481804Y-73658227D01*
X145487765Y-73634428D01*
X145496030Y-73611329D01*
X145506520Y-73589150D01*
X145519132Y-73568107D01*
X145533747Y-73548401D01*
X145550223Y-73530223D01*
X145568401Y-73513747D01*
X145588107Y-73499132D01*
X145609150Y-73486520D01*
X145631329Y-73476030D01*
X145654428Y-73467765D01*
X145678227Y-73461804D01*
X145702495Y-73458204D01*
X145726999Y-73457000D01*
X146627001Y-73457000D01*
X146651505Y-73458204D01*
X146651505Y-73458204D01*
G37*
D13*
X146177000Y-74032000D03*
D11*
G36*
X146651505Y-75508204D02*
X146675773Y-75511804D01*
X146699572Y-75517765D01*
X146722671Y-75526030D01*
X146744850Y-75536520D01*
X146765893Y-75549132D01*
X146785599Y-75563747D01*
X146803777Y-75580223D01*
X146820253Y-75598401D01*
X146834868Y-75618107D01*
X146847480Y-75639150D01*
X146857970Y-75661329D01*
X146866235Y-75684428D01*
X146872196Y-75708227D01*
X146875796Y-75732495D01*
X146877000Y-75756999D01*
X146877000Y-76407001D01*
X146875796Y-76431505D01*
X146872196Y-76455773D01*
X146866235Y-76479572D01*
X146857970Y-76502671D01*
X146847480Y-76524850D01*
X146834868Y-76545893D01*
X146820253Y-76565599D01*
X146803777Y-76583777D01*
X146785599Y-76600253D01*
X146765893Y-76614868D01*
X146744850Y-76627480D01*
X146722671Y-76637970D01*
X146699572Y-76646235D01*
X146675773Y-76652196D01*
X146651505Y-76655796D01*
X146627001Y-76657000D01*
X145726999Y-76657000D01*
X145702495Y-76655796D01*
X145678227Y-76652196D01*
X145654428Y-76646235D01*
X145631329Y-76637970D01*
X145609150Y-76627480D01*
X145588107Y-76614868D01*
X145568401Y-76600253D01*
X145550223Y-76583777D01*
X145533747Y-76565599D01*
X145519132Y-76545893D01*
X145506520Y-76524850D01*
X145496030Y-76502671D01*
X145487765Y-76479572D01*
X145481804Y-76455773D01*
X145478204Y-76431505D01*
X145477000Y-76407001D01*
X145477000Y-75756999D01*
X145478204Y-75732495D01*
X145481804Y-75708227D01*
X145487765Y-75684428D01*
X145496030Y-75661329D01*
X145506520Y-75639150D01*
X145519132Y-75618107D01*
X145533747Y-75598401D01*
X145550223Y-75580223D01*
X145568401Y-75563747D01*
X145588107Y-75549132D01*
X145609150Y-75536520D01*
X145631329Y-75526030D01*
X145654428Y-75517765D01*
X145678227Y-75511804D01*
X145702495Y-75508204D01*
X145726999Y-75507000D01*
X146627001Y-75507000D01*
X146651505Y-75508204D01*
X146651505Y-75508204D01*
G37*
D13*
X146177000Y-76082000D03*
G04 #@! TD*
D11*
G04 #@! TO.C,R6*
G36*
X149191505Y-73458204D02*
X149215773Y-73461804D01*
X149239572Y-73467765D01*
X149262671Y-73476030D01*
X149284850Y-73486520D01*
X149305893Y-73499132D01*
X149325599Y-73513747D01*
X149343777Y-73530223D01*
X149360253Y-73548401D01*
X149374868Y-73568107D01*
X149387480Y-73589150D01*
X149397970Y-73611329D01*
X149406235Y-73634428D01*
X149412196Y-73658227D01*
X149415796Y-73682495D01*
X149417000Y-73706999D01*
X149417000Y-74357001D01*
X149415796Y-74381505D01*
X149412196Y-74405773D01*
X149406235Y-74429572D01*
X149397970Y-74452671D01*
X149387480Y-74474850D01*
X149374868Y-74495893D01*
X149360253Y-74515599D01*
X149343777Y-74533777D01*
X149325599Y-74550253D01*
X149305893Y-74564868D01*
X149284850Y-74577480D01*
X149262671Y-74587970D01*
X149239572Y-74596235D01*
X149215773Y-74602196D01*
X149191505Y-74605796D01*
X149167001Y-74607000D01*
X148266999Y-74607000D01*
X148242495Y-74605796D01*
X148218227Y-74602196D01*
X148194428Y-74596235D01*
X148171329Y-74587970D01*
X148149150Y-74577480D01*
X148128107Y-74564868D01*
X148108401Y-74550253D01*
X148090223Y-74533777D01*
X148073747Y-74515599D01*
X148059132Y-74495893D01*
X148046520Y-74474850D01*
X148036030Y-74452671D01*
X148027765Y-74429572D01*
X148021804Y-74405773D01*
X148018204Y-74381505D01*
X148017000Y-74357001D01*
X148017000Y-73706999D01*
X148018204Y-73682495D01*
X148021804Y-73658227D01*
X148027765Y-73634428D01*
X148036030Y-73611329D01*
X148046520Y-73589150D01*
X148059132Y-73568107D01*
X148073747Y-73548401D01*
X148090223Y-73530223D01*
X148108401Y-73513747D01*
X148128107Y-73499132D01*
X148149150Y-73486520D01*
X148171329Y-73476030D01*
X148194428Y-73467765D01*
X148218227Y-73461804D01*
X148242495Y-73458204D01*
X148266999Y-73457000D01*
X149167001Y-73457000D01*
X149191505Y-73458204D01*
X149191505Y-73458204D01*
G37*
D13*
X148717000Y-74032000D03*
D11*
G36*
X149191505Y-75508204D02*
X149215773Y-75511804D01*
X149239572Y-75517765D01*
X149262671Y-75526030D01*
X149284850Y-75536520D01*
X149305893Y-75549132D01*
X149325599Y-75563747D01*
X149343777Y-75580223D01*
X149360253Y-75598401D01*
X149374868Y-75618107D01*
X149387480Y-75639150D01*
X149397970Y-75661329D01*
X149406235Y-75684428D01*
X149412196Y-75708227D01*
X149415796Y-75732495D01*
X149417000Y-75756999D01*
X149417000Y-76407001D01*
X149415796Y-76431505D01*
X149412196Y-76455773D01*
X149406235Y-76479572D01*
X149397970Y-76502671D01*
X149387480Y-76524850D01*
X149374868Y-76545893D01*
X149360253Y-76565599D01*
X149343777Y-76583777D01*
X149325599Y-76600253D01*
X149305893Y-76614868D01*
X149284850Y-76627480D01*
X149262671Y-76637970D01*
X149239572Y-76646235D01*
X149215773Y-76652196D01*
X149191505Y-76655796D01*
X149167001Y-76657000D01*
X148266999Y-76657000D01*
X148242495Y-76655796D01*
X148218227Y-76652196D01*
X148194428Y-76646235D01*
X148171329Y-76637970D01*
X148149150Y-76627480D01*
X148128107Y-76614868D01*
X148108401Y-76600253D01*
X148090223Y-76583777D01*
X148073747Y-76565599D01*
X148059132Y-76545893D01*
X148046520Y-76524850D01*
X148036030Y-76502671D01*
X148027765Y-76479572D01*
X148021804Y-76455773D01*
X148018204Y-76431505D01*
X148017000Y-76407001D01*
X148017000Y-75756999D01*
X148018204Y-75732495D01*
X148021804Y-75708227D01*
X148027765Y-75684428D01*
X148036030Y-75661329D01*
X148046520Y-75639150D01*
X148059132Y-75618107D01*
X148073747Y-75598401D01*
X148090223Y-75580223D01*
X148108401Y-75563747D01*
X148128107Y-75549132D01*
X148149150Y-75536520D01*
X148171329Y-75526030D01*
X148194428Y-75517765D01*
X148218227Y-75511804D01*
X148242495Y-75508204D01*
X148266999Y-75507000D01*
X149167001Y-75507000D01*
X149191505Y-75508204D01*
X149191505Y-75508204D01*
G37*
D13*
X148717000Y-76082000D03*
G04 #@! TD*
D11*
G04 #@! TO.C,R7*
G36*
X149191505Y-69140204D02*
X149215773Y-69143804D01*
X149239572Y-69149765D01*
X149262671Y-69158030D01*
X149284850Y-69168520D01*
X149305893Y-69181132D01*
X149325599Y-69195747D01*
X149343777Y-69212223D01*
X149360253Y-69230401D01*
X149374868Y-69250107D01*
X149387480Y-69271150D01*
X149397970Y-69293329D01*
X149406235Y-69316428D01*
X149412196Y-69340227D01*
X149415796Y-69364495D01*
X149417000Y-69388999D01*
X149417000Y-70039001D01*
X149415796Y-70063505D01*
X149412196Y-70087773D01*
X149406235Y-70111572D01*
X149397970Y-70134671D01*
X149387480Y-70156850D01*
X149374868Y-70177893D01*
X149360253Y-70197599D01*
X149343777Y-70215777D01*
X149325599Y-70232253D01*
X149305893Y-70246868D01*
X149284850Y-70259480D01*
X149262671Y-70269970D01*
X149239572Y-70278235D01*
X149215773Y-70284196D01*
X149191505Y-70287796D01*
X149167001Y-70289000D01*
X148266999Y-70289000D01*
X148242495Y-70287796D01*
X148218227Y-70284196D01*
X148194428Y-70278235D01*
X148171329Y-70269970D01*
X148149150Y-70259480D01*
X148128107Y-70246868D01*
X148108401Y-70232253D01*
X148090223Y-70215777D01*
X148073747Y-70197599D01*
X148059132Y-70177893D01*
X148046520Y-70156850D01*
X148036030Y-70134671D01*
X148027765Y-70111572D01*
X148021804Y-70087773D01*
X148018204Y-70063505D01*
X148017000Y-70039001D01*
X148017000Y-69388999D01*
X148018204Y-69364495D01*
X148021804Y-69340227D01*
X148027765Y-69316428D01*
X148036030Y-69293329D01*
X148046520Y-69271150D01*
X148059132Y-69250107D01*
X148073747Y-69230401D01*
X148090223Y-69212223D01*
X148108401Y-69195747D01*
X148128107Y-69181132D01*
X148149150Y-69168520D01*
X148171329Y-69158030D01*
X148194428Y-69149765D01*
X148218227Y-69143804D01*
X148242495Y-69140204D01*
X148266999Y-69139000D01*
X149167001Y-69139000D01*
X149191505Y-69140204D01*
X149191505Y-69140204D01*
G37*
D13*
X148717000Y-69714000D03*
D11*
G36*
X149191505Y-71190204D02*
X149215773Y-71193804D01*
X149239572Y-71199765D01*
X149262671Y-71208030D01*
X149284850Y-71218520D01*
X149305893Y-71231132D01*
X149325599Y-71245747D01*
X149343777Y-71262223D01*
X149360253Y-71280401D01*
X149374868Y-71300107D01*
X149387480Y-71321150D01*
X149397970Y-71343329D01*
X149406235Y-71366428D01*
X149412196Y-71390227D01*
X149415796Y-71414495D01*
X149417000Y-71438999D01*
X149417000Y-72089001D01*
X149415796Y-72113505D01*
X149412196Y-72137773D01*
X149406235Y-72161572D01*
X149397970Y-72184671D01*
X149387480Y-72206850D01*
X149374868Y-72227893D01*
X149360253Y-72247599D01*
X149343777Y-72265777D01*
X149325599Y-72282253D01*
X149305893Y-72296868D01*
X149284850Y-72309480D01*
X149262671Y-72319970D01*
X149239572Y-72328235D01*
X149215773Y-72334196D01*
X149191505Y-72337796D01*
X149167001Y-72339000D01*
X148266999Y-72339000D01*
X148242495Y-72337796D01*
X148218227Y-72334196D01*
X148194428Y-72328235D01*
X148171329Y-72319970D01*
X148149150Y-72309480D01*
X148128107Y-72296868D01*
X148108401Y-72282253D01*
X148090223Y-72265777D01*
X148073747Y-72247599D01*
X148059132Y-72227893D01*
X148046520Y-72206850D01*
X148036030Y-72184671D01*
X148027765Y-72161572D01*
X148021804Y-72137773D01*
X148018204Y-72113505D01*
X148017000Y-72089001D01*
X148017000Y-71438999D01*
X148018204Y-71414495D01*
X148021804Y-71390227D01*
X148027765Y-71366428D01*
X148036030Y-71343329D01*
X148046520Y-71321150D01*
X148059132Y-71300107D01*
X148073747Y-71280401D01*
X148090223Y-71262223D01*
X148108401Y-71245747D01*
X148128107Y-71231132D01*
X148149150Y-71218520D01*
X148171329Y-71208030D01*
X148194428Y-71199765D01*
X148218227Y-71193804D01*
X148242495Y-71190204D01*
X148266999Y-71189000D01*
X149167001Y-71189000D01*
X149191505Y-71190204D01*
X149191505Y-71190204D01*
G37*
D13*
X148717000Y-71764000D03*
G04 #@! TD*
D11*
G04 #@! TO.C,R8*
G36*
X146771505Y-77787204D02*
X146795773Y-77790804D01*
X146819572Y-77796765D01*
X146842671Y-77805030D01*
X146864850Y-77815520D01*
X146885893Y-77828132D01*
X146905599Y-77842747D01*
X146923777Y-77859223D01*
X146940253Y-77877401D01*
X146954868Y-77897107D01*
X146967480Y-77918150D01*
X146977970Y-77940329D01*
X146986235Y-77963428D01*
X146992196Y-77987227D01*
X146995796Y-78011495D01*
X146997000Y-78035999D01*
X146997000Y-78936001D01*
X146995796Y-78960505D01*
X146992196Y-78984773D01*
X146986235Y-79008572D01*
X146977970Y-79031671D01*
X146967480Y-79053850D01*
X146954868Y-79074893D01*
X146940253Y-79094599D01*
X146923777Y-79112777D01*
X146905599Y-79129253D01*
X146885893Y-79143868D01*
X146864850Y-79156480D01*
X146842671Y-79166970D01*
X146819572Y-79175235D01*
X146795773Y-79181196D01*
X146771505Y-79184796D01*
X146747001Y-79186000D01*
X146096999Y-79186000D01*
X146072495Y-79184796D01*
X146048227Y-79181196D01*
X146024428Y-79175235D01*
X146001329Y-79166970D01*
X145979150Y-79156480D01*
X145958107Y-79143868D01*
X145938401Y-79129253D01*
X145920223Y-79112777D01*
X145903747Y-79094599D01*
X145889132Y-79074893D01*
X145876520Y-79053850D01*
X145866030Y-79031671D01*
X145857765Y-79008572D01*
X145851804Y-78984773D01*
X145848204Y-78960505D01*
X145847000Y-78936001D01*
X145847000Y-78035999D01*
X145848204Y-78011495D01*
X145851804Y-77987227D01*
X145857765Y-77963428D01*
X145866030Y-77940329D01*
X145876520Y-77918150D01*
X145889132Y-77897107D01*
X145903747Y-77877401D01*
X145920223Y-77859223D01*
X145938401Y-77842747D01*
X145958107Y-77828132D01*
X145979150Y-77815520D01*
X146001329Y-77805030D01*
X146024428Y-77796765D01*
X146048227Y-77790804D01*
X146072495Y-77787204D01*
X146096999Y-77786000D01*
X146747001Y-77786000D01*
X146771505Y-77787204D01*
X146771505Y-77787204D01*
G37*
D13*
X146422000Y-78486000D03*
D11*
G36*
X148821505Y-77787204D02*
X148845773Y-77790804D01*
X148869572Y-77796765D01*
X148892671Y-77805030D01*
X148914850Y-77815520D01*
X148935893Y-77828132D01*
X148955599Y-77842747D01*
X148973777Y-77859223D01*
X148990253Y-77877401D01*
X149004868Y-77897107D01*
X149017480Y-77918150D01*
X149027970Y-77940329D01*
X149036235Y-77963428D01*
X149042196Y-77987227D01*
X149045796Y-78011495D01*
X149047000Y-78035999D01*
X149047000Y-78936001D01*
X149045796Y-78960505D01*
X149042196Y-78984773D01*
X149036235Y-79008572D01*
X149027970Y-79031671D01*
X149017480Y-79053850D01*
X149004868Y-79074893D01*
X148990253Y-79094599D01*
X148973777Y-79112777D01*
X148955599Y-79129253D01*
X148935893Y-79143868D01*
X148914850Y-79156480D01*
X148892671Y-79166970D01*
X148869572Y-79175235D01*
X148845773Y-79181196D01*
X148821505Y-79184796D01*
X148797001Y-79186000D01*
X148146999Y-79186000D01*
X148122495Y-79184796D01*
X148098227Y-79181196D01*
X148074428Y-79175235D01*
X148051329Y-79166970D01*
X148029150Y-79156480D01*
X148008107Y-79143868D01*
X147988401Y-79129253D01*
X147970223Y-79112777D01*
X147953747Y-79094599D01*
X147939132Y-79074893D01*
X147926520Y-79053850D01*
X147916030Y-79031671D01*
X147907765Y-79008572D01*
X147901804Y-78984773D01*
X147898204Y-78960505D01*
X147897000Y-78936001D01*
X147897000Y-78035999D01*
X147898204Y-78011495D01*
X147901804Y-77987227D01*
X147907765Y-77963428D01*
X147916030Y-77940329D01*
X147926520Y-77918150D01*
X147939132Y-77897107D01*
X147953747Y-77877401D01*
X147970223Y-77859223D01*
X147988401Y-77842747D01*
X148008107Y-77828132D01*
X148029150Y-77815520D01*
X148051329Y-77805030D01*
X148074428Y-77796765D01*
X148098227Y-77790804D01*
X148122495Y-77787204D01*
X148146999Y-77786000D01*
X148797001Y-77786000D01*
X148821505Y-77787204D01*
X148821505Y-77787204D01*
G37*
D13*
X148472000Y-78486000D03*
G04 #@! TD*
D11*
G04 #@! TO.C,R9*
G36*
X148821505Y-79946204D02*
X148845773Y-79949804D01*
X148869572Y-79955765D01*
X148892671Y-79964030D01*
X148914850Y-79974520D01*
X148935893Y-79987132D01*
X148955599Y-80001747D01*
X148973777Y-80018223D01*
X148990253Y-80036401D01*
X149004868Y-80056107D01*
X149017480Y-80077150D01*
X149027970Y-80099329D01*
X149036235Y-80122428D01*
X149042196Y-80146227D01*
X149045796Y-80170495D01*
X149047000Y-80194999D01*
X149047000Y-81095001D01*
X149045796Y-81119505D01*
X149042196Y-81143773D01*
X149036235Y-81167572D01*
X149027970Y-81190671D01*
X149017480Y-81212850D01*
X149004868Y-81233893D01*
X148990253Y-81253599D01*
X148973777Y-81271777D01*
X148955599Y-81288253D01*
X148935893Y-81302868D01*
X148914850Y-81315480D01*
X148892671Y-81325970D01*
X148869572Y-81334235D01*
X148845773Y-81340196D01*
X148821505Y-81343796D01*
X148797001Y-81345000D01*
X148146999Y-81345000D01*
X148122495Y-81343796D01*
X148098227Y-81340196D01*
X148074428Y-81334235D01*
X148051329Y-81325970D01*
X148029150Y-81315480D01*
X148008107Y-81302868D01*
X147988401Y-81288253D01*
X147970223Y-81271777D01*
X147953747Y-81253599D01*
X147939132Y-81233893D01*
X147926520Y-81212850D01*
X147916030Y-81190671D01*
X147907765Y-81167572D01*
X147901804Y-81143773D01*
X147898204Y-81119505D01*
X147897000Y-81095001D01*
X147897000Y-80194999D01*
X147898204Y-80170495D01*
X147901804Y-80146227D01*
X147907765Y-80122428D01*
X147916030Y-80099329D01*
X147926520Y-80077150D01*
X147939132Y-80056107D01*
X147953747Y-80036401D01*
X147970223Y-80018223D01*
X147988401Y-80001747D01*
X148008107Y-79987132D01*
X148029150Y-79974520D01*
X148051329Y-79964030D01*
X148074428Y-79955765D01*
X148098227Y-79949804D01*
X148122495Y-79946204D01*
X148146999Y-79945000D01*
X148797001Y-79945000D01*
X148821505Y-79946204D01*
X148821505Y-79946204D01*
G37*
D13*
X148472000Y-80645000D03*
D11*
G36*
X146771505Y-79946204D02*
X146795773Y-79949804D01*
X146819572Y-79955765D01*
X146842671Y-79964030D01*
X146864850Y-79974520D01*
X146885893Y-79987132D01*
X146905599Y-80001747D01*
X146923777Y-80018223D01*
X146940253Y-80036401D01*
X146954868Y-80056107D01*
X146967480Y-80077150D01*
X146977970Y-80099329D01*
X146986235Y-80122428D01*
X146992196Y-80146227D01*
X146995796Y-80170495D01*
X146997000Y-80194999D01*
X146997000Y-81095001D01*
X146995796Y-81119505D01*
X146992196Y-81143773D01*
X146986235Y-81167572D01*
X146977970Y-81190671D01*
X146967480Y-81212850D01*
X146954868Y-81233893D01*
X146940253Y-81253599D01*
X146923777Y-81271777D01*
X146905599Y-81288253D01*
X146885893Y-81302868D01*
X146864850Y-81315480D01*
X146842671Y-81325970D01*
X146819572Y-81334235D01*
X146795773Y-81340196D01*
X146771505Y-81343796D01*
X146747001Y-81345000D01*
X146096999Y-81345000D01*
X146072495Y-81343796D01*
X146048227Y-81340196D01*
X146024428Y-81334235D01*
X146001329Y-81325970D01*
X145979150Y-81315480D01*
X145958107Y-81302868D01*
X145938401Y-81288253D01*
X145920223Y-81271777D01*
X145903747Y-81253599D01*
X145889132Y-81233893D01*
X145876520Y-81212850D01*
X145866030Y-81190671D01*
X145857765Y-81167572D01*
X145851804Y-81143773D01*
X145848204Y-81119505D01*
X145847000Y-81095001D01*
X145847000Y-80194999D01*
X145848204Y-80170495D01*
X145851804Y-80146227D01*
X145857765Y-80122428D01*
X145866030Y-80099329D01*
X145876520Y-80077150D01*
X145889132Y-80056107D01*
X145903747Y-80036401D01*
X145920223Y-80018223D01*
X145938401Y-80001747D01*
X145958107Y-79987132D01*
X145979150Y-79974520D01*
X146001329Y-79964030D01*
X146024428Y-79955765D01*
X146048227Y-79949804D01*
X146072495Y-79946204D01*
X146096999Y-79945000D01*
X146747001Y-79945000D01*
X146771505Y-79946204D01*
X146771505Y-79946204D01*
G37*
D13*
X146422000Y-80645000D03*
G04 #@! TD*
D16*
G04 #@! TO.C,reset*
X139755000Y-83099000D03*
X139755000Y-78699000D03*
X143455000Y-78699000D03*
X143455000Y-83099000D03*
D17*
X139080000Y-80899000D03*
X144130000Y-80899000D03*
G04 #@! TD*
G04 #@! TO.C,flash*
X155814000Y-81153000D03*
X150764000Y-81153000D03*
D16*
X155139000Y-83353000D03*
X155139000Y-78953000D03*
X151439000Y-78953000D03*
X151439000Y-83353000D03*
G04 #@! TD*
D18*
G04 #@! TO.C,U1*
X139847000Y-51745000D03*
X139847000Y-53745000D03*
X139847000Y-55745000D03*
X139847000Y-57745000D03*
X139847000Y-59745000D03*
X139847000Y-61745000D03*
X139847000Y-63745000D03*
X139847000Y-65745000D03*
D19*
X142447000Y-67245000D03*
X144447000Y-67245000D03*
X146447000Y-67245000D03*
X148447000Y-67245000D03*
X150447000Y-67245000D03*
X152447000Y-67245000D03*
D18*
X155047000Y-65745000D03*
X155047000Y-63745000D03*
X155047000Y-61745000D03*
X155047000Y-59745000D03*
X155047000Y-57745000D03*
X155047000Y-55745000D03*
X155047000Y-53745000D03*
X155047000Y-51745000D03*
G04 #@! TD*
D20*
G04 #@! TO.C,U2*
X145356000Y-86680000D03*
X145356000Y-87630000D03*
X145356000Y-88580000D03*
X148776000Y-88580000D03*
X148776000Y-86680000D03*
G04 #@! TD*
D21*
G04 #@! TO.C,U4*
X155690000Y-86176000D03*
X155190000Y-86176000D03*
X154690000Y-86176000D03*
X154190000Y-86176000D03*
X154190000Y-88576000D03*
X154690000Y-88576000D03*
X155190000Y-88576000D03*
X155690000Y-88576000D03*
D22*
X154940000Y-87376000D03*
G04 #@! TD*
M02*
