G04 #@! TF.GenerationSoftware,KiCad,Pcbnew,(5.0.0)*
G04 #@! TF.CreationDate,2019-07-27T01:42:12+02:00*
G04 #@! TF.ProjectId,v3,76332E6B696361645F70636200000000,rev?*
G04 #@! TF.SameCoordinates,Original*
G04 #@! TF.FileFunction,Legend,Top*
G04 #@! TF.FilePolarity,Positive*
%FSLAX46Y46*%
G04 Gerber Fmt 4.6, Leading zero omitted, Abs format (unit mm)*
G04 Created by KiCad (PCBNEW (5.0.0)) date 07/27/19 01:42:12*
%MOMM*%
%LPD*%
G01*
G04 APERTURE LIST*
%ADD10C,0.120000*%
%ADD11C,0.127000*%
%ADD12C,0.200000*%
%ADD13C,0.150000*%
G04 APERTURE END LIST*
D10*
G04 #@! TO.C,C1*
X143348500Y-69966500D02*
X142723500Y-69966500D01*
X143036000Y-69654000D02*
X143036000Y-70279000D01*
X139655437Y-70519000D02*
X138591000Y-71583437D01*
X143046563Y-70519000D02*
X144111000Y-71583437D01*
X143046563Y-70519000D02*
X142411000Y-70519000D01*
X139655437Y-70519000D02*
X140291000Y-70519000D01*
X138591000Y-71583437D02*
X138591000Y-76039000D01*
X144111000Y-71583437D02*
X144111000Y-76039000D01*
X144111000Y-76039000D02*
X142411000Y-76039000D01*
X138591000Y-76039000D02*
X140291000Y-76039000D01*
G04 #@! TO.C,C4*
X156303000Y-70519000D02*
X154603000Y-70519000D01*
X150783000Y-70519000D02*
X152483000Y-70519000D01*
X150783000Y-74974563D02*
X150783000Y-70519000D01*
X156303000Y-74974563D02*
X156303000Y-70519000D01*
X155238563Y-76039000D02*
X154603000Y-76039000D01*
X151847437Y-76039000D02*
X152483000Y-76039000D01*
X151847437Y-76039000D02*
X150783000Y-74974563D01*
X155238563Y-76039000D02*
X156303000Y-74974563D01*
X151858000Y-76904000D02*
X151858000Y-76279000D01*
X151545500Y-76591500D02*
X152170500Y-76591500D01*
G04 #@! TO.C,C5*
X147185748Y-82094000D02*
X147708252Y-82094000D01*
X147185748Y-83514000D02*
X147708252Y-83514000D01*
G04 #@! TO.C,F1*
X139575000Y-86315733D02*
X139575000Y-86658267D01*
X138555000Y-86315733D02*
X138555000Y-86658267D01*
G04 #@! TO.C,IC1*
X142619000Y-88067000D02*
X142619000Y-87137000D01*
X142619000Y-84907000D02*
X142619000Y-85837000D01*
X142619000Y-84907000D02*
X140459000Y-84907000D01*
X142619000Y-88067000D02*
X141159000Y-88067000D01*
G04 #@! TO.C,L1*
X152475000Y-87114748D02*
X152475000Y-87637252D01*
X151055000Y-87114748D02*
X151055000Y-87637252D01*
G04 #@! TO.C,R1*
X146887000Y-70477748D02*
X146887000Y-71000252D01*
X145467000Y-70477748D02*
X145467000Y-71000252D01*
G04 #@! TO.C,R2*
X147708252Y-84126000D02*
X147185748Y-84126000D01*
X147708252Y-85546000D02*
X147185748Y-85546000D01*
G04 #@! TO.C,R5*
X146887000Y-74795748D02*
X146887000Y-75318252D01*
X145467000Y-74795748D02*
X145467000Y-75318252D01*
G04 #@! TO.C,R6*
X149427000Y-75318252D02*
X149427000Y-74795748D01*
X148007000Y-75318252D02*
X148007000Y-74795748D01*
G04 #@! TO.C,R7*
X149427000Y-70477748D02*
X149427000Y-71000252D01*
X148007000Y-70477748D02*
X148007000Y-71000252D01*
G04 #@! TO.C,R8*
X147185748Y-77776000D02*
X147708252Y-77776000D01*
X147185748Y-79196000D02*
X147708252Y-79196000D01*
G04 #@! TO.C,R9*
X147185748Y-81355000D02*
X147708252Y-81355000D01*
X147185748Y-79935000D02*
X147708252Y-79935000D01*
G04 #@! TO.C,reset*
X139055000Y-79199000D02*
X139055000Y-80224000D01*
X140230000Y-78349000D02*
X142980000Y-78349000D01*
X140230000Y-83449000D02*
X142980000Y-83449000D01*
X139055000Y-81574000D02*
X139055000Y-82599000D01*
X144155000Y-79199000D02*
X144155000Y-80224000D01*
X144155000Y-81574000D02*
X144155000Y-82599000D01*
G04 #@! TO.C,flash*
X155839000Y-81828000D02*
X155839000Y-82853000D01*
X155839000Y-79453000D02*
X155839000Y-80478000D01*
X150739000Y-81828000D02*
X150739000Y-82853000D01*
X151914000Y-83703000D02*
X154664000Y-83703000D01*
X151914000Y-78603000D02*
X154664000Y-78603000D01*
X150739000Y-79453000D02*
X150739000Y-80478000D01*
G04 #@! TO.C,U1*
X139327000Y-43125000D02*
X155567000Y-43125000D01*
X155567000Y-43125000D02*
X155567000Y-50745000D01*
X155567000Y-66745000D02*
X155567000Y-67365000D01*
X155567000Y-67365000D02*
X153447000Y-67365000D01*
X141447000Y-67365000D02*
X139327000Y-67365000D01*
X139327000Y-67365000D02*
X139327000Y-66745000D01*
X139327000Y-50745000D02*
X139327000Y-43125000D01*
X139327000Y-50745000D02*
X138717000Y-50745000D01*
G04 #@! TO.C,U2*
X146186000Y-89190000D02*
X147946000Y-89190000D01*
X147946000Y-86120000D02*
X145516000Y-86120000D01*
D11*
G04 #@! TO.C,U4*
X156190000Y-86126000D02*
X156190000Y-88626000D01*
X153690000Y-86126000D02*
X153690000Y-88626000D01*
D12*
X155860000Y-85276000D02*
G75*
G03X155860000Y-85276000I-120000J0D01*
G01*
G04 #@! TO.C,C1*
D13*
X143613142Y-73445666D02*
X143660761Y-73493285D01*
X143708380Y-73636142D01*
X143708380Y-73731380D01*
X143660761Y-73874238D01*
X143565523Y-73969476D01*
X143470285Y-74017095D01*
X143279809Y-74064714D01*
X143136952Y-74064714D01*
X142946476Y-74017095D01*
X142851238Y-73969476D01*
X142756000Y-73874238D01*
X142708380Y-73731380D01*
X142708380Y-73636142D01*
X142756000Y-73493285D01*
X142803619Y-73445666D01*
X143708380Y-72493285D02*
X143708380Y-73064714D01*
X143708380Y-72779000D02*
X142708380Y-72779000D01*
X142851238Y-72874238D01*
X142946476Y-72969476D01*
X142994095Y-73064714D01*
G04 #@! TO.C,C4*
X151995142Y-72556666D02*
X152042761Y-72604285D01*
X152090380Y-72747142D01*
X152090380Y-72842380D01*
X152042761Y-72985238D01*
X151947523Y-73080476D01*
X151852285Y-73128095D01*
X151661809Y-73175714D01*
X151518952Y-73175714D01*
X151328476Y-73128095D01*
X151233238Y-73080476D01*
X151138000Y-72985238D01*
X151090380Y-72842380D01*
X151090380Y-72747142D01*
X151138000Y-72604285D01*
X151185619Y-72556666D01*
X151423714Y-71699523D02*
X152090380Y-71699523D01*
X151042761Y-71937619D02*
X151757047Y-72175714D01*
X151757047Y-71556666D01*
G04 #@! TO.C,C5*
X145518142Y-83224666D02*
X145565761Y-83272285D01*
X145613380Y-83415142D01*
X145613380Y-83510380D01*
X145565761Y-83653238D01*
X145470523Y-83748476D01*
X145375285Y-83796095D01*
X145184809Y-83843714D01*
X145041952Y-83843714D01*
X144851476Y-83796095D01*
X144756238Y-83748476D01*
X144661000Y-83653238D01*
X144613380Y-83510380D01*
X144613380Y-83415142D01*
X144661000Y-83272285D01*
X144708619Y-83224666D01*
X144613380Y-82319904D02*
X144613380Y-82796095D01*
X145089571Y-82843714D01*
X145041952Y-82796095D01*
X144994333Y-82700857D01*
X144994333Y-82462761D01*
X145041952Y-82367523D01*
X145089571Y-82319904D01*
X145184809Y-82272285D01*
X145422904Y-82272285D01*
X145518142Y-82319904D01*
X145565761Y-82367523D01*
X145613380Y-82462761D01*
X145613380Y-82700857D01*
X145565761Y-82796095D01*
X145518142Y-82843714D01*
G04 #@! TO.C,F1*
X139112666Y-88574571D02*
X138779333Y-88574571D01*
X138779333Y-89098380D02*
X138779333Y-88098380D01*
X139255523Y-88098380D01*
X140160285Y-89098380D02*
X139588857Y-89098380D01*
X139874571Y-89098380D02*
X139874571Y-88098380D01*
X139779333Y-88241238D01*
X139684095Y-88336476D01*
X139588857Y-88384095D01*
G04 #@! TO.C,IC1*
X141009809Y-84780380D02*
X141009809Y-83780380D01*
X142057428Y-84685142D02*
X142009809Y-84732761D01*
X141866952Y-84780380D01*
X141771714Y-84780380D01*
X141628857Y-84732761D01*
X141533619Y-84637523D01*
X141486000Y-84542285D01*
X141438380Y-84351809D01*
X141438380Y-84208952D01*
X141486000Y-84018476D01*
X141533619Y-83923238D01*
X141628857Y-83828000D01*
X141771714Y-83780380D01*
X141866952Y-83780380D01*
X142009809Y-83828000D01*
X142057428Y-83875619D01*
X143009809Y-84780380D02*
X142438380Y-84780380D01*
X142724095Y-84780380D02*
X142724095Y-83780380D01*
X142628857Y-83923238D01*
X142533619Y-84018476D01*
X142438380Y-84066095D01*
G04 #@! TO.C,L1*
X151598333Y-85415380D02*
X151122142Y-85415380D01*
X151122142Y-84415380D01*
X152455476Y-85415380D02*
X151884047Y-85415380D01*
X152169761Y-85415380D02*
X152169761Y-84415380D01*
X152074523Y-84558238D01*
X151979285Y-84653476D01*
X151884047Y-84701095D01*
G04 #@! TO.C,R1*
X144978380Y-70524666D02*
X144502190Y-70858000D01*
X144978380Y-71096095D02*
X143978380Y-71096095D01*
X143978380Y-70715142D01*
X144026000Y-70619904D01*
X144073619Y-70572285D01*
X144168857Y-70524666D01*
X144311714Y-70524666D01*
X144406952Y-70572285D01*
X144454571Y-70619904D01*
X144502190Y-70715142D01*
X144502190Y-71096095D01*
X144978380Y-69572285D02*
X144978380Y-70143714D01*
X144978380Y-69858000D02*
X143978380Y-69858000D01*
X144121238Y-69953238D01*
X144216476Y-70048476D01*
X144264095Y-70143714D01*
G04 #@! TO.C,R2*
X150439380Y-84494666D02*
X149963190Y-84828000D01*
X150439380Y-85066095D02*
X149439380Y-85066095D01*
X149439380Y-84685142D01*
X149487000Y-84589904D01*
X149534619Y-84542285D01*
X149629857Y-84494666D01*
X149772714Y-84494666D01*
X149867952Y-84542285D01*
X149915571Y-84589904D01*
X149963190Y-84685142D01*
X149963190Y-85066095D01*
X149534619Y-84113714D02*
X149487000Y-84066095D01*
X149439380Y-83970857D01*
X149439380Y-83732761D01*
X149487000Y-83637523D01*
X149534619Y-83589904D01*
X149629857Y-83542285D01*
X149725095Y-83542285D01*
X149867952Y-83589904D01*
X150439380Y-84161333D01*
X150439380Y-83542285D01*
G04 #@! TO.C,R5*
X145359380Y-74461666D02*
X144883190Y-74795000D01*
X145359380Y-75033095D02*
X144359380Y-75033095D01*
X144359380Y-74652142D01*
X144407000Y-74556904D01*
X144454619Y-74509285D01*
X144549857Y-74461666D01*
X144692714Y-74461666D01*
X144787952Y-74509285D01*
X144835571Y-74556904D01*
X144883190Y-74652142D01*
X144883190Y-75033095D01*
X144359380Y-73556904D02*
X144359380Y-74033095D01*
X144835571Y-74080714D01*
X144787952Y-74033095D01*
X144740333Y-73937857D01*
X144740333Y-73699761D01*
X144787952Y-73604523D01*
X144835571Y-73556904D01*
X144930809Y-73509285D01*
X145168904Y-73509285D01*
X145264142Y-73556904D01*
X145311761Y-73604523D01*
X145359380Y-73699761D01*
X145359380Y-73937857D01*
X145311761Y-74033095D01*
X145264142Y-74080714D01*
G04 #@! TO.C,R6*
X150693380Y-75223666D02*
X150217190Y-75557000D01*
X150693380Y-75795095D02*
X149693380Y-75795095D01*
X149693380Y-75414142D01*
X149741000Y-75318904D01*
X149788619Y-75271285D01*
X149883857Y-75223666D01*
X150026714Y-75223666D01*
X150121952Y-75271285D01*
X150169571Y-75318904D01*
X150217190Y-75414142D01*
X150217190Y-75795095D01*
X149693380Y-74366523D02*
X149693380Y-74557000D01*
X149741000Y-74652238D01*
X149788619Y-74699857D01*
X149931476Y-74795095D01*
X150121952Y-74842714D01*
X150502904Y-74842714D01*
X150598142Y-74795095D01*
X150645761Y-74747476D01*
X150693380Y-74652238D01*
X150693380Y-74461761D01*
X150645761Y-74366523D01*
X150598142Y-74318904D01*
X150502904Y-74271285D01*
X150264809Y-74271285D01*
X150169571Y-74318904D01*
X150121952Y-74366523D01*
X150074333Y-74461761D01*
X150074333Y-74652238D01*
X150121952Y-74747476D01*
X150169571Y-74795095D01*
X150264809Y-74842714D01*
G04 #@! TO.C,R7*
X151582380Y-69635666D02*
X151106190Y-69969000D01*
X151582380Y-70207095D02*
X150582380Y-70207095D01*
X150582380Y-69826142D01*
X150630000Y-69730904D01*
X150677619Y-69683285D01*
X150772857Y-69635666D01*
X150915714Y-69635666D01*
X151010952Y-69683285D01*
X151058571Y-69730904D01*
X151106190Y-69826142D01*
X151106190Y-70207095D01*
X150582380Y-69302333D02*
X150582380Y-68635666D01*
X151582380Y-69064238D01*
G04 #@! TO.C,R8*
X147280333Y-77668380D02*
X146947000Y-77192190D01*
X146708904Y-77668380D02*
X146708904Y-76668380D01*
X147089857Y-76668380D01*
X147185095Y-76716000D01*
X147232714Y-76763619D01*
X147280333Y-76858857D01*
X147280333Y-77001714D01*
X147232714Y-77096952D01*
X147185095Y-77144571D01*
X147089857Y-77192190D01*
X146708904Y-77192190D01*
X147851761Y-77096952D02*
X147756523Y-77049333D01*
X147708904Y-77001714D01*
X147661285Y-76906476D01*
X147661285Y-76858857D01*
X147708904Y-76763619D01*
X147756523Y-76716000D01*
X147851761Y-76668380D01*
X148042238Y-76668380D01*
X148137476Y-76716000D01*
X148185095Y-76763619D01*
X148232714Y-76858857D01*
X148232714Y-76906476D01*
X148185095Y-77001714D01*
X148137476Y-77049333D01*
X148042238Y-77096952D01*
X147851761Y-77096952D01*
X147756523Y-77144571D01*
X147708904Y-77192190D01*
X147661285Y-77287428D01*
X147661285Y-77477904D01*
X147708904Y-77573142D01*
X147756523Y-77620761D01*
X147851761Y-77668380D01*
X148042238Y-77668380D01*
X148137476Y-77620761D01*
X148185095Y-77573142D01*
X148232714Y-77477904D01*
X148232714Y-77287428D01*
X148185095Y-77192190D01*
X148137476Y-77144571D01*
X148042238Y-77096952D01*
G04 #@! TO.C,R9*
X145613380Y-80684666D02*
X145137190Y-81018000D01*
X145613380Y-81256095D02*
X144613380Y-81256095D01*
X144613380Y-80875142D01*
X144661000Y-80779904D01*
X144708619Y-80732285D01*
X144803857Y-80684666D01*
X144946714Y-80684666D01*
X145041952Y-80732285D01*
X145089571Y-80779904D01*
X145137190Y-80875142D01*
X145137190Y-81256095D01*
X145613380Y-80208476D02*
X145613380Y-80018000D01*
X145565761Y-79922761D01*
X145518142Y-79875142D01*
X145375285Y-79779904D01*
X145184809Y-79732285D01*
X144803857Y-79732285D01*
X144708619Y-79779904D01*
X144661000Y-79827523D01*
X144613380Y-79922761D01*
X144613380Y-80113238D01*
X144661000Y-80208476D01*
X144708619Y-80256095D01*
X144803857Y-80303714D01*
X145041952Y-80303714D01*
X145137190Y-80256095D01*
X145184809Y-80208476D01*
X145232428Y-80113238D01*
X145232428Y-79922761D01*
X145184809Y-79827523D01*
X145137190Y-79779904D01*
X145041952Y-79732285D01*
G04 #@! TO.C,reset*
X139985952Y-78049380D02*
X139985952Y-77382714D01*
X139985952Y-77573190D02*
X140033571Y-77477952D01*
X140081190Y-77430333D01*
X140176428Y-77382714D01*
X140271666Y-77382714D01*
X140985952Y-78001761D02*
X140890714Y-78049380D01*
X140700238Y-78049380D01*
X140605000Y-78001761D01*
X140557380Y-77906523D01*
X140557380Y-77525571D01*
X140605000Y-77430333D01*
X140700238Y-77382714D01*
X140890714Y-77382714D01*
X140985952Y-77430333D01*
X141033571Y-77525571D01*
X141033571Y-77620809D01*
X140557380Y-77716047D01*
X141414523Y-78001761D02*
X141509761Y-78049380D01*
X141700238Y-78049380D01*
X141795476Y-78001761D01*
X141843095Y-77906523D01*
X141843095Y-77858904D01*
X141795476Y-77763666D01*
X141700238Y-77716047D01*
X141557380Y-77716047D01*
X141462142Y-77668428D01*
X141414523Y-77573190D01*
X141414523Y-77525571D01*
X141462142Y-77430333D01*
X141557380Y-77382714D01*
X141700238Y-77382714D01*
X141795476Y-77430333D01*
X142652619Y-78001761D02*
X142557380Y-78049380D01*
X142366904Y-78049380D01*
X142271666Y-78001761D01*
X142224047Y-77906523D01*
X142224047Y-77525571D01*
X142271666Y-77430333D01*
X142366904Y-77382714D01*
X142557380Y-77382714D01*
X142652619Y-77430333D01*
X142700238Y-77525571D01*
X142700238Y-77620809D01*
X142224047Y-77716047D01*
X142985952Y-77382714D02*
X143366904Y-77382714D01*
X143128809Y-77049380D02*
X143128809Y-77906523D01*
X143176428Y-78001761D01*
X143271666Y-78049380D01*
X143366904Y-78049380D01*
G04 #@! TO.C,flash*
X151400095Y-77636714D02*
X151781047Y-77636714D01*
X151542952Y-78303380D02*
X151542952Y-77446238D01*
X151590571Y-77351000D01*
X151685809Y-77303380D01*
X151781047Y-77303380D01*
X152257238Y-78303380D02*
X152162000Y-78255761D01*
X152114380Y-78160523D01*
X152114380Y-77303380D01*
X153066761Y-78303380D02*
X153066761Y-77779571D01*
X153019142Y-77684333D01*
X152923904Y-77636714D01*
X152733428Y-77636714D01*
X152638190Y-77684333D01*
X153066761Y-78255761D02*
X152971523Y-78303380D01*
X152733428Y-78303380D01*
X152638190Y-78255761D01*
X152590571Y-78160523D01*
X152590571Y-78065285D01*
X152638190Y-77970047D01*
X152733428Y-77922428D01*
X152971523Y-77922428D01*
X153066761Y-77874809D01*
X153495333Y-78255761D02*
X153590571Y-78303380D01*
X153781047Y-78303380D01*
X153876285Y-78255761D01*
X153923904Y-78160523D01*
X153923904Y-78112904D01*
X153876285Y-78017666D01*
X153781047Y-77970047D01*
X153638190Y-77970047D01*
X153542952Y-77922428D01*
X153495333Y-77827190D01*
X153495333Y-77779571D01*
X153542952Y-77684333D01*
X153638190Y-77636714D01*
X153781047Y-77636714D01*
X153876285Y-77684333D01*
X154352476Y-78303380D02*
X154352476Y-77303380D01*
X154781047Y-78303380D02*
X154781047Y-77779571D01*
X154733428Y-77684333D01*
X154638190Y-77636714D01*
X154495333Y-77636714D01*
X154400095Y-77684333D01*
X154352476Y-77731952D01*
G04 #@! TO.C,U1*
X146431095Y-50887380D02*
X146431095Y-51696904D01*
X146478714Y-51792142D01*
X146526333Y-51839761D01*
X146621571Y-51887380D01*
X146812047Y-51887380D01*
X146907285Y-51839761D01*
X146954904Y-51792142D01*
X147002523Y-51696904D01*
X147002523Y-50887380D01*
X148002523Y-51887380D02*
X147431095Y-51887380D01*
X147716809Y-51887380D02*
X147716809Y-50887380D01*
X147621571Y-51030238D01*
X147526333Y-51125476D01*
X147431095Y-51173095D01*
G04 #@! TO.C,U2*
X147955095Y-87082380D02*
X147955095Y-87891904D01*
X148002714Y-87987142D01*
X148050333Y-88034761D01*
X148145571Y-88082380D01*
X148336047Y-88082380D01*
X148431285Y-88034761D01*
X148478904Y-87987142D01*
X148526523Y-87891904D01*
X148526523Y-87082380D01*
X148955095Y-87177619D02*
X149002714Y-87130000D01*
X149097952Y-87082380D01*
X149336047Y-87082380D01*
X149431285Y-87130000D01*
X149478904Y-87177619D01*
X149526523Y-87272857D01*
X149526523Y-87368095D01*
X149478904Y-87510952D01*
X148907476Y-88082380D01*
X149526523Y-88082380D01*
G04 #@! TO.C,U4*
X153035095Y-84669380D02*
X153035095Y-85478904D01*
X153082714Y-85574142D01*
X153130333Y-85621761D01*
X153225571Y-85669380D01*
X153416047Y-85669380D01*
X153511285Y-85621761D01*
X153558904Y-85574142D01*
X153606523Y-85478904D01*
X153606523Y-84669380D01*
X154511285Y-85002714D02*
X154511285Y-85669380D01*
X154273190Y-84621761D02*
X154035095Y-85336047D01*
X154654142Y-85336047D01*
G04 #@! TD*
M02*
