G04 #@! TF.GenerationSoftware,KiCad,Pcbnew,(5.0.0)*
G04 #@! TF.CreationDate,2019-07-27T01:42:12+02:00*
G04 #@! TF.ProjectId,v3,76332E6B696361645F70636200000000,rev?*
G04 #@! TF.SameCoordinates,Original*
G04 #@! TF.FileFunction,Copper,L1,Top,Signal*
G04 #@! TF.FilePolarity,Positive*
%FSLAX46Y46*%
G04 Gerber Fmt 4.6, Leading zero omitted, Abs format (unit mm)*
G04 Created by KiCad (PCBNEW (5.0.0)) date 07/27/19 01:42:12*
%MOMM*%
%LPD*%
G01*
G04 APERTURE LIST*
G04 #@! TA.AperFunction,EtchedComponent*
%ADD10C,0.001000*%
G04 #@! TD*
G04 #@! TA.AperFunction,SMDPad,CuDef*
%ADD11R,1.600000X3.000000*%
G04 #@! TD*
G04 #@! TA.AperFunction,Conductor*
%ADD12C,0.100000*%
G04 #@! TD*
G04 #@! TA.AperFunction,SMDPad,CuDef*
%ADD13C,1.150000*%
G04 #@! TD*
G04 #@! TA.AperFunction,SMDPad,CuDef*
%ADD14C,0.950000*%
G04 #@! TD*
G04 #@! TA.AperFunction,SMDPad,CuDef*
%ADD15R,0.900000X0.800000*%
G04 #@! TD*
G04 #@! TA.AperFunction,SMDPad,CuDef*
%ADD16R,0.600000X1.000000*%
G04 #@! TD*
G04 #@! TA.AperFunction,SMDPad,CuDef*
%ADD17R,0.450000X1.000000*%
G04 #@! TD*
G04 #@! TA.AperFunction,SMDPad,CuDef*
%ADD18R,2.500000X1.000000*%
G04 #@! TD*
G04 #@! TA.AperFunction,SMDPad,CuDef*
%ADD19R,1.000000X1.800000*%
G04 #@! TD*
G04 #@! TA.AperFunction,SMDPad,CuDef*
%ADD20R,2.000000X0.650000*%
G04 #@! TD*
G04 #@! TA.AperFunction,SMDPad,CuDef*
%ADD21R,0.300000X0.800000*%
G04 #@! TD*
G04 #@! TA.AperFunction,SMDPad,CuDef*
%ADD22R,1.000000X0.200000*%
G04 #@! TD*
G04 #@! TA.AperFunction,ViaPad*
%ADD23C,0.800000*%
G04 #@! TD*
G04 #@! TA.AperFunction,Conductor*
%ADD24C,0.250000*%
G04 #@! TD*
G04 #@! TA.AperFunction,Conductor*
%ADD25C,0.254000*%
G04 #@! TD*
G04 APERTURE END LIST*
D10*
G04 #@! TO.C,U4*
G36*
X155890000Y-87076000D02*
X155890000Y-87976000D01*
X153990000Y-87976000D01*
X153990000Y-86776000D01*
X155590000Y-86776000D01*
X155890000Y-87076000D01*
G37*
X155890000Y-87076000D02*
X155890000Y-87976000D01*
X153990000Y-87976000D01*
X153990000Y-86776000D01*
X155590000Y-86776000D01*
X155890000Y-87076000D01*
G04 #@! TD*
D11*
G04 #@! TO.P,C1,2*
G04 #@! TO.N,Earth*
X141351000Y-75479000D03*
G04 #@! TO.P,C1,1*
G04 #@! TO.N,+3V3*
X141351000Y-71079000D03*
G04 #@! TD*
G04 #@! TO.P,C4,1*
G04 #@! TO.N,+BATT*
X153543000Y-75479000D03*
G04 #@! TO.P,C4,2*
G04 #@! TO.N,Earth*
X153543000Y-71079000D03*
G04 #@! TD*
D12*
G04 #@! TO.N,+3V3*
G04 #@! TO.C,C5*
G36*
X146771505Y-82105204D02*
X146795773Y-82108804D01*
X146819572Y-82114765D01*
X146842671Y-82123030D01*
X146864850Y-82133520D01*
X146885893Y-82146132D01*
X146905599Y-82160747D01*
X146923777Y-82177223D01*
X146940253Y-82195401D01*
X146954868Y-82215107D01*
X146967480Y-82236150D01*
X146977970Y-82258329D01*
X146986235Y-82281428D01*
X146992196Y-82305227D01*
X146995796Y-82329495D01*
X146997000Y-82353999D01*
X146997000Y-83254001D01*
X146995796Y-83278505D01*
X146992196Y-83302773D01*
X146986235Y-83326572D01*
X146977970Y-83349671D01*
X146967480Y-83371850D01*
X146954868Y-83392893D01*
X146940253Y-83412599D01*
X146923777Y-83430777D01*
X146905599Y-83447253D01*
X146885893Y-83461868D01*
X146864850Y-83474480D01*
X146842671Y-83484970D01*
X146819572Y-83493235D01*
X146795773Y-83499196D01*
X146771505Y-83502796D01*
X146747001Y-83504000D01*
X146096999Y-83504000D01*
X146072495Y-83502796D01*
X146048227Y-83499196D01*
X146024428Y-83493235D01*
X146001329Y-83484970D01*
X145979150Y-83474480D01*
X145958107Y-83461868D01*
X145938401Y-83447253D01*
X145920223Y-83430777D01*
X145903747Y-83412599D01*
X145889132Y-83392893D01*
X145876520Y-83371850D01*
X145866030Y-83349671D01*
X145857765Y-83326572D01*
X145851804Y-83302773D01*
X145848204Y-83278505D01*
X145847000Y-83254001D01*
X145847000Y-82353999D01*
X145848204Y-82329495D01*
X145851804Y-82305227D01*
X145857765Y-82281428D01*
X145866030Y-82258329D01*
X145876520Y-82236150D01*
X145889132Y-82215107D01*
X145903747Y-82195401D01*
X145920223Y-82177223D01*
X145938401Y-82160747D01*
X145958107Y-82146132D01*
X145979150Y-82133520D01*
X146001329Y-82123030D01*
X146024428Y-82114765D01*
X146048227Y-82108804D01*
X146072495Y-82105204D01*
X146096999Y-82104000D01*
X146747001Y-82104000D01*
X146771505Y-82105204D01*
X146771505Y-82105204D01*
G37*
D13*
G04 #@! TD*
G04 #@! TO.P,C5,1*
G04 #@! TO.N,+3V3*
X146422000Y-82804000D03*
D12*
G04 #@! TO.N,Earth*
G04 #@! TO.C,C5*
G36*
X148821505Y-82105204D02*
X148845773Y-82108804D01*
X148869572Y-82114765D01*
X148892671Y-82123030D01*
X148914850Y-82133520D01*
X148935893Y-82146132D01*
X148955599Y-82160747D01*
X148973777Y-82177223D01*
X148990253Y-82195401D01*
X149004868Y-82215107D01*
X149017480Y-82236150D01*
X149027970Y-82258329D01*
X149036235Y-82281428D01*
X149042196Y-82305227D01*
X149045796Y-82329495D01*
X149047000Y-82353999D01*
X149047000Y-83254001D01*
X149045796Y-83278505D01*
X149042196Y-83302773D01*
X149036235Y-83326572D01*
X149027970Y-83349671D01*
X149017480Y-83371850D01*
X149004868Y-83392893D01*
X148990253Y-83412599D01*
X148973777Y-83430777D01*
X148955599Y-83447253D01*
X148935893Y-83461868D01*
X148914850Y-83474480D01*
X148892671Y-83484970D01*
X148869572Y-83493235D01*
X148845773Y-83499196D01*
X148821505Y-83502796D01*
X148797001Y-83504000D01*
X148146999Y-83504000D01*
X148122495Y-83502796D01*
X148098227Y-83499196D01*
X148074428Y-83493235D01*
X148051329Y-83484970D01*
X148029150Y-83474480D01*
X148008107Y-83461868D01*
X147988401Y-83447253D01*
X147970223Y-83430777D01*
X147953747Y-83412599D01*
X147939132Y-83392893D01*
X147926520Y-83371850D01*
X147916030Y-83349671D01*
X147907765Y-83326572D01*
X147901804Y-83302773D01*
X147898204Y-83278505D01*
X147897000Y-83254001D01*
X147897000Y-82353999D01*
X147898204Y-82329495D01*
X147901804Y-82305227D01*
X147907765Y-82281428D01*
X147916030Y-82258329D01*
X147926520Y-82236150D01*
X147939132Y-82215107D01*
X147953747Y-82195401D01*
X147970223Y-82177223D01*
X147988401Y-82160747D01*
X148008107Y-82146132D01*
X148029150Y-82133520D01*
X148051329Y-82123030D01*
X148074428Y-82114765D01*
X148098227Y-82108804D01*
X148122495Y-82105204D01*
X148146999Y-82104000D01*
X148797001Y-82104000D01*
X148821505Y-82105204D01*
X148821505Y-82105204D01*
G37*
D13*
G04 #@! TD*
G04 #@! TO.P,C5,2*
G04 #@! TO.N,Earth*
X148472000Y-82804000D03*
D12*
G04 #@! TO.N,Net-(F1-Pad1)*
G04 #@! TO.C,F1*
G36*
X139325779Y-85088144D02*
X139348834Y-85091563D01*
X139371443Y-85097227D01*
X139393387Y-85105079D01*
X139414457Y-85115044D01*
X139434448Y-85127026D01*
X139453168Y-85140910D01*
X139470438Y-85156562D01*
X139486090Y-85173832D01*
X139499974Y-85192552D01*
X139511956Y-85212543D01*
X139521921Y-85233613D01*
X139529773Y-85255557D01*
X139535437Y-85278166D01*
X139538856Y-85301221D01*
X139540000Y-85324500D01*
X139540000Y-85899500D01*
X139538856Y-85922779D01*
X139535437Y-85945834D01*
X139529773Y-85968443D01*
X139521921Y-85990387D01*
X139511956Y-86011457D01*
X139499974Y-86031448D01*
X139486090Y-86050168D01*
X139470438Y-86067438D01*
X139453168Y-86083090D01*
X139434448Y-86096974D01*
X139414457Y-86108956D01*
X139393387Y-86118921D01*
X139371443Y-86126773D01*
X139348834Y-86132437D01*
X139325779Y-86135856D01*
X139302500Y-86137000D01*
X138827500Y-86137000D01*
X138804221Y-86135856D01*
X138781166Y-86132437D01*
X138758557Y-86126773D01*
X138736613Y-86118921D01*
X138715543Y-86108956D01*
X138695552Y-86096974D01*
X138676832Y-86083090D01*
X138659562Y-86067438D01*
X138643910Y-86050168D01*
X138630026Y-86031448D01*
X138618044Y-86011457D01*
X138608079Y-85990387D01*
X138600227Y-85968443D01*
X138594563Y-85945834D01*
X138591144Y-85922779D01*
X138590000Y-85899500D01*
X138590000Y-85324500D01*
X138591144Y-85301221D01*
X138594563Y-85278166D01*
X138600227Y-85255557D01*
X138608079Y-85233613D01*
X138618044Y-85212543D01*
X138630026Y-85192552D01*
X138643910Y-85173832D01*
X138659562Y-85156562D01*
X138676832Y-85140910D01*
X138695552Y-85127026D01*
X138715543Y-85115044D01*
X138736613Y-85105079D01*
X138758557Y-85097227D01*
X138781166Y-85091563D01*
X138804221Y-85088144D01*
X138827500Y-85087000D01*
X139302500Y-85087000D01*
X139325779Y-85088144D01*
X139325779Y-85088144D01*
G37*
D14*
G04 #@! TD*
G04 #@! TO.P,F1,1*
G04 #@! TO.N,Net-(F1-Pad1)*
X139065000Y-85612000D03*
D12*
G04 #@! TO.N,+BATT*
G04 #@! TO.C,F1*
G36*
X139325779Y-86838144D02*
X139348834Y-86841563D01*
X139371443Y-86847227D01*
X139393387Y-86855079D01*
X139414457Y-86865044D01*
X139434448Y-86877026D01*
X139453168Y-86890910D01*
X139470438Y-86906562D01*
X139486090Y-86923832D01*
X139499974Y-86942552D01*
X139511956Y-86962543D01*
X139521921Y-86983613D01*
X139529773Y-87005557D01*
X139535437Y-87028166D01*
X139538856Y-87051221D01*
X139540000Y-87074500D01*
X139540000Y-87649500D01*
X139538856Y-87672779D01*
X139535437Y-87695834D01*
X139529773Y-87718443D01*
X139521921Y-87740387D01*
X139511956Y-87761457D01*
X139499974Y-87781448D01*
X139486090Y-87800168D01*
X139470438Y-87817438D01*
X139453168Y-87833090D01*
X139434448Y-87846974D01*
X139414457Y-87858956D01*
X139393387Y-87868921D01*
X139371443Y-87876773D01*
X139348834Y-87882437D01*
X139325779Y-87885856D01*
X139302500Y-87887000D01*
X138827500Y-87887000D01*
X138804221Y-87885856D01*
X138781166Y-87882437D01*
X138758557Y-87876773D01*
X138736613Y-87868921D01*
X138715543Y-87858956D01*
X138695552Y-87846974D01*
X138676832Y-87833090D01*
X138659562Y-87817438D01*
X138643910Y-87800168D01*
X138630026Y-87781448D01*
X138618044Y-87761457D01*
X138608079Y-87740387D01*
X138600227Y-87718443D01*
X138594563Y-87695834D01*
X138591144Y-87672779D01*
X138590000Y-87649500D01*
X138590000Y-87074500D01*
X138591144Y-87051221D01*
X138594563Y-87028166D01*
X138600227Y-87005557D01*
X138608079Y-86983613D01*
X138618044Y-86962543D01*
X138630026Y-86942552D01*
X138643910Y-86923832D01*
X138659562Y-86906562D01*
X138676832Y-86890910D01*
X138695552Y-86877026D01*
X138715543Y-86865044D01*
X138736613Y-86855079D01*
X138758557Y-86847227D01*
X138781166Y-86841563D01*
X138804221Y-86838144D01*
X138827500Y-86837000D01*
X139302500Y-86837000D01*
X139325779Y-86838144D01*
X139325779Y-86838144D01*
G37*
D14*
G04 #@! TD*
G04 #@! TO.P,F1,2*
G04 #@! TO.N,+BATT*
X139065000Y-87362000D03*
D15*
G04 #@! TO.P,IC1,1*
G04 #@! TO.N,Net-(IC1-Pad1)*
X140859000Y-85537000D03*
G04 #@! TO.P,IC1,2*
G04 #@! TO.N,Earth*
X140859000Y-87437000D03*
G04 #@! TO.P,IC1,3*
G04 #@! TO.N,+BATT*
X142859000Y-86487000D03*
G04 #@! TD*
D12*
G04 #@! TO.N,Net-(L1-Pad1)*
G04 #@! TO.C,L1*
G36*
X152239505Y-85777204D02*
X152263773Y-85780804D01*
X152287572Y-85786765D01*
X152310671Y-85795030D01*
X152332850Y-85805520D01*
X152353893Y-85818132D01*
X152373599Y-85832747D01*
X152391777Y-85849223D01*
X152408253Y-85867401D01*
X152422868Y-85887107D01*
X152435480Y-85908150D01*
X152445970Y-85930329D01*
X152454235Y-85953428D01*
X152460196Y-85977227D01*
X152463796Y-86001495D01*
X152465000Y-86025999D01*
X152465000Y-86676001D01*
X152463796Y-86700505D01*
X152460196Y-86724773D01*
X152454235Y-86748572D01*
X152445970Y-86771671D01*
X152435480Y-86793850D01*
X152422868Y-86814893D01*
X152408253Y-86834599D01*
X152391777Y-86852777D01*
X152373599Y-86869253D01*
X152353893Y-86883868D01*
X152332850Y-86896480D01*
X152310671Y-86906970D01*
X152287572Y-86915235D01*
X152263773Y-86921196D01*
X152239505Y-86924796D01*
X152215001Y-86926000D01*
X151314999Y-86926000D01*
X151290495Y-86924796D01*
X151266227Y-86921196D01*
X151242428Y-86915235D01*
X151219329Y-86906970D01*
X151197150Y-86896480D01*
X151176107Y-86883868D01*
X151156401Y-86869253D01*
X151138223Y-86852777D01*
X151121747Y-86834599D01*
X151107132Y-86814893D01*
X151094520Y-86793850D01*
X151084030Y-86771671D01*
X151075765Y-86748572D01*
X151069804Y-86724773D01*
X151066204Y-86700505D01*
X151065000Y-86676001D01*
X151065000Y-86025999D01*
X151066204Y-86001495D01*
X151069804Y-85977227D01*
X151075765Y-85953428D01*
X151084030Y-85930329D01*
X151094520Y-85908150D01*
X151107132Y-85887107D01*
X151121747Y-85867401D01*
X151138223Y-85849223D01*
X151156401Y-85832747D01*
X151176107Y-85818132D01*
X151197150Y-85805520D01*
X151219329Y-85795030D01*
X151242428Y-85786765D01*
X151266227Y-85780804D01*
X151290495Y-85777204D01*
X151314999Y-85776000D01*
X152215001Y-85776000D01*
X152239505Y-85777204D01*
X152239505Y-85777204D01*
G37*
D13*
G04 #@! TD*
G04 #@! TO.P,L1,1*
G04 #@! TO.N,Net-(L1-Pad1)*
X151765000Y-86351000D03*
D12*
G04 #@! TO.N,+3V3*
G04 #@! TO.C,L1*
G36*
X152239505Y-87827204D02*
X152263773Y-87830804D01*
X152287572Y-87836765D01*
X152310671Y-87845030D01*
X152332850Y-87855520D01*
X152353893Y-87868132D01*
X152373599Y-87882747D01*
X152391777Y-87899223D01*
X152408253Y-87917401D01*
X152422868Y-87937107D01*
X152435480Y-87958150D01*
X152445970Y-87980329D01*
X152454235Y-88003428D01*
X152460196Y-88027227D01*
X152463796Y-88051495D01*
X152465000Y-88075999D01*
X152465000Y-88726001D01*
X152463796Y-88750505D01*
X152460196Y-88774773D01*
X152454235Y-88798572D01*
X152445970Y-88821671D01*
X152435480Y-88843850D01*
X152422868Y-88864893D01*
X152408253Y-88884599D01*
X152391777Y-88902777D01*
X152373599Y-88919253D01*
X152353893Y-88933868D01*
X152332850Y-88946480D01*
X152310671Y-88956970D01*
X152287572Y-88965235D01*
X152263773Y-88971196D01*
X152239505Y-88974796D01*
X152215001Y-88976000D01*
X151314999Y-88976000D01*
X151290495Y-88974796D01*
X151266227Y-88971196D01*
X151242428Y-88965235D01*
X151219329Y-88956970D01*
X151197150Y-88946480D01*
X151176107Y-88933868D01*
X151156401Y-88919253D01*
X151138223Y-88902777D01*
X151121747Y-88884599D01*
X151107132Y-88864893D01*
X151094520Y-88843850D01*
X151084030Y-88821671D01*
X151075765Y-88798572D01*
X151069804Y-88774773D01*
X151066204Y-88750505D01*
X151065000Y-88726001D01*
X151065000Y-88075999D01*
X151066204Y-88051495D01*
X151069804Y-88027227D01*
X151075765Y-88003428D01*
X151084030Y-87980329D01*
X151094520Y-87958150D01*
X151107132Y-87937107D01*
X151121747Y-87917401D01*
X151138223Y-87899223D01*
X151156401Y-87882747D01*
X151176107Y-87868132D01*
X151197150Y-87855520D01*
X151219329Y-87845030D01*
X151242428Y-87836765D01*
X151266227Y-87830804D01*
X151290495Y-87827204D01*
X151314999Y-87826000D01*
X152215001Y-87826000D01*
X152239505Y-87827204D01*
X152239505Y-87827204D01*
G37*
D13*
G04 #@! TD*
G04 #@! TO.P,L1,2*
G04 #@! TO.N,+3V3*
X151765000Y-88401000D03*
D12*
G04 #@! TO.N,Net-(R1-Pad1)*
G04 #@! TO.C,R1*
G36*
X146651505Y-69140204D02*
X146675773Y-69143804D01*
X146699572Y-69149765D01*
X146722671Y-69158030D01*
X146744850Y-69168520D01*
X146765893Y-69181132D01*
X146785599Y-69195747D01*
X146803777Y-69212223D01*
X146820253Y-69230401D01*
X146834868Y-69250107D01*
X146847480Y-69271150D01*
X146857970Y-69293329D01*
X146866235Y-69316428D01*
X146872196Y-69340227D01*
X146875796Y-69364495D01*
X146877000Y-69388999D01*
X146877000Y-70039001D01*
X146875796Y-70063505D01*
X146872196Y-70087773D01*
X146866235Y-70111572D01*
X146857970Y-70134671D01*
X146847480Y-70156850D01*
X146834868Y-70177893D01*
X146820253Y-70197599D01*
X146803777Y-70215777D01*
X146785599Y-70232253D01*
X146765893Y-70246868D01*
X146744850Y-70259480D01*
X146722671Y-70269970D01*
X146699572Y-70278235D01*
X146675773Y-70284196D01*
X146651505Y-70287796D01*
X146627001Y-70289000D01*
X145726999Y-70289000D01*
X145702495Y-70287796D01*
X145678227Y-70284196D01*
X145654428Y-70278235D01*
X145631329Y-70269970D01*
X145609150Y-70259480D01*
X145588107Y-70246868D01*
X145568401Y-70232253D01*
X145550223Y-70215777D01*
X145533747Y-70197599D01*
X145519132Y-70177893D01*
X145506520Y-70156850D01*
X145496030Y-70134671D01*
X145487765Y-70111572D01*
X145481804Y-70087773D01*
X145478204Y-70063505D01*
X145477000Y-70039001D01*
X145477000Y-69388999D01*
X145478204Y-69364495D01*
X145481804Y-69340227D01*
X145487765Y-69316428D01*
X145496030Y-69293329D01*
X145506520Y-69271150D01*
X145519132Y-69250107D01*
X145533747Y-69230401D01*
X145550223Y-69212223D01*
X145568401Y-69195747D01*
X145588107Y-69181132D01*
X145609150Y-69168520D01*
X145631329Y-69158030D01*
X145654428Y-69149765D01*
X145678227Y-69143804D01*
X145702495Y-69140204D01*
X145726999Y-69139000D01*
X146627001Y-69139000D01*
X146651505Y-69140204D01*
X146651505Y-69140204D01*
G37*
D13*
G04 #@! TD*
G04 #@! TO.P,R1,1*
G04 #@! TO.N,Net-(R1-Pad1)*
X146177000Y-69714000D03*
D12*
G04 #@! TO.N,+3V3*
G04 #@! TO.C,R1*
G36*
X146651505Y-71190204D02*
X146675773Y-71193804D01*
X146699572Y-71199765D01*
X146722671Y-71208030D01*
X146744850Y-71218520D01*
X146765893Y-71231132D01*
X146785599Y-71245747D01*
X146803777Y-71262223D01*
X146820253Y-71280401D01*
X146834868Y-71300107D01*
X146847480Y-71321150D01*
X146857970Y-71343329D01*
X146866235Y-71366428D01*
X146872196Y-71390227D01*
X146875796Y-71414495D01*
X146877000Y-71438999D01*
X146877000Y-72089001D01*
X146875796Y-72113505D01*
X146872196Y-72137773D01*
X146866235Y-72161572D01*
X146857970Y-72184671D01*
X146847480Y-72206850D01*
X146834868Y-72227893D01*
X146820253Y-72247599D01*
X146803777Y-72265777D01*
X146785599Y-72282253D01*
X146765893Y-72296868D01*
X146744850Y-72309480D01*
X146722671Y-72319970D01*
X146699572Y-72328235D01*
X146675773Y-72334196D01*
X146651505Y-72337796D01*
X146627001Y-72339000D01*
X145726999Y-72339000D01*
X145702495Y-72337796D01*
X145678227Y-72334196D01*
X145654428Y-72328235D01*
X145631329Y-72319970D01*
X145609150Y-72309480D01*
X145588107Y-72296868D01*
X145568401Y-72282253D01*
X145550223Y-72265777D01*
X145533747Y-72247599D01*
X145519132Y-72227893D01*
X145506520Y-72206850D01*
X145496030Y-72184671D01*
X145487765Y-72161572D01*
X145481804Y-72137773D01*
X145478204Y-72113505D01*
X145477000Y-72089001D01*
X145477000Y-71438999D01*
X145478204Y-71414495D01*
X145481804Y-71390227D01*
X145487765Y-71366428D01*
X145496030Y-71343329D01*
X145506520Y-71321150D01*
X145519132Y-71300107D01*
X145533747Y-71280401D01*
X145550223Y-71262223D01*
X145568401Y-71245747D01*
X145588107Y-71231132D01*
X145609150Y-71218520D01*
X145631329Y-71208030D01*
X145654428Y-71199765D01*
X145678227Y-71193804D01*
X145702495Y-71190204D01*
X145726999Y-71189000D01*
X146627001Y-71189000D01*
X146651505Y-71190204D01*
X146651505Y-71190204D01*
G37*
D13*
G04 #@! TD*
G04 #@! TO.P,R1,2*
G04 #@! TO.N,+3V3*
X146177000Y-71764000D03*
D12*
G04 #@! TO.N,+BATT*
G04 #@! TO.C,R2*
G36*
X146771505Y-84137204D02*
X146795773Y-84140804D01*
X146819572Y-84146765D01*
X146842671Y-84155030D01*
X146864850Y-84165520D01*
X146885893Y-84178132D01*
X146905599Y-84192747D01*
X146923777Y-84209223D01*
X146940253Y-84227401D01*
X146954868Y-84247107D01*
X146967480Y-84268150D01*
X146977970Y-84290329D01*
X146986235Y-84313428D01*
X146992196Y-84337227D01*
X146995796Y-84361495D01*
X146997000Y-84385999D01*
X146997000Y-85286001D01*
X146995796Y-85310505D01*
X146992196Y-85334773D01*
X146986235Y-85358572D01*
X146977970Y-85381671D01*
X146967480Y-85403850D01*
X146954868Y-85424893D01*
X146940253Y-85444599D01*
X146923777Y-85462777D01*
X146905599Y-85479253D01*
X146885893Y-85493868D01*
X146864850Y-85506480D01*
X146842671Y-85516970D01*
X146819572Y-85525235D01*
X146795773Y-85531196D01*
X146771505Y-85534796D01*
X146747001Y-85536000D01*
X146096999Y-85536000D01*
X146072495Y-85534796D01*
X146048227Y-85531196D01*
X146024428Y-85525235D01*
X146001329Y-85516970D01*
X145979150Y-85506480D01*
X145958107Y-85493868D01*
X145938401Y-85479253D01*
X145920223Y-85462777D01*
X145903747Y-85444599D01*
X145889132Y-85424893D01*
X145876520Y-85403850D01*
X145866030Y-85381671D01*
X145857765Y-85358572D01*
X145851804Y-85334773D01*
X145848204Y-85310505D01*
X145847000Y-85286001D01*
X145847000Y-84385999D01*
X145848204Y-84361495D01*
X145851804Y-84337227D01*
X145857765Y-84313428D01*
X145866030Y-84290329D01*
X145876520Y-84268150D01*
X145889132Y-84247107D01*
X145903747Y-84227401D01*
X145920223Y-84209223D01*
X145938401Y-84192747D01*
X145958107Y-84178132D01*
X145979150Y-84165520D01*
X146001329Y-84155030D01*
X146024428Y-84146765D01*
X146048227Y-84140804D01*
X146072495Y-84137204D01*
X146096999Y-84136000D01*
X146747001Y-84136000D01*
X146771505Y-84137204D01*
X146771505Y-84137204D01*
G37*
D13*
G04 #@! TD*
G04 #@! TO.P,R2,2*
G04 #@! TO.N,+BATT*
X146422000Y-84836000D03*
D12*
G04 #@! TO.N,Net-(IC1-Pad1)*
G04 #@! TO.C,R2*
G36*
X148821505Y-84137204D02*
X148845773Y-84140804D01*
X148869572Y-84146765D01*
X148892671Y-84155030D01*
X148914850Y-84165520D01*
X148935893Y-84178132D01*
X148955599Y-84192747D01*
X148973777Y-84209223D01*
X148990253Y-84227401D01*
X149004868Y-84247107D01*
X149017480Y-84268150D01*
X149027970Y-84290329D01*
X149036235Y-84313428D01*
X149042196Y-84337227D01*
X149045796Y-84361495D01*
X149047000Y-84385999D01*
X149047000Y-85286001D01*
X149045796Y-85310505D01*
X149042196Y-85334773D01*
X149036235Y-85358572D01*
X149027970Y-85381671D01*
X149017480Y-85403850D01*
X149004868Y-85424893D01*
X148990253Y-85444599D01*
X148973777Y-85462777D01*
X148955599Y-85479253D01*
X148935893Y-85493868D01*
X148914850Y-85506480D01*
X148892671Y-85516970D01*
X148869572Y-85525235D01*
X148845773Y-85531196D01*
X148821505Y-85534796D01*
X148797001Y-85536000D01*
X148146999Y-85536000D01*
X148122495Y-85534796D01*
X148098227Y-85531196D01*
X148074428Y-85525235D01*
X148051329Y-85516970D01*
X148029150Y-85506480D01*
X148008107Y-85493868D01*
X147988401Y-85479253D01*
X147970223Y-85462777D01*
X147953747Y-85444599D01*
X147939132Y-85424893D01*
X147926520Y-85403850D01*
X147916030Y-85381671D01*
X147907765Y-85358572D01*
X147901804Y-85334773D01*
X147898204Y-85310505D01*
X147897000Y-85286001D01*
X147897000Y-84385999D01*
X147898204Y-84361495D01*
X147901804Y-84337227D01*
X147907765Y-84313428D01*
X147916030Y-84290329D01*
X147926520Y-84268150D01*
X147939132Y-84247107D01*
X147953747Y-84227401D01*
X147970223Y-84209223D01*
X147988401Y-84192747D01*
X148008107Y-84178132D01*
X148029150Y-84165520D01*
X148051329Y-84155030D01*
X148074428Y-84146765D01*
X148098227Y-84140804D01*
X148122495Y-84137204D01*
X148146999Y-84136000D01*
X148797001Y-84136000D01*
X148821505Y-84137204D01*
X148821505Y-84137204D01*
G37*
D13*
G04 #@! TD*
G04 #@! TO.P,R2,1*
G04 #@! TO.N,Net-(IC1-Pad1)*
X148472000Y-84836000D03*
D12*
G04 #@! TO.N,+3V3*
G04 #@! TO.C,R5*
G36*
X146651505Y-73458204D02*
X146675773Y-73461804D01*
X146699572Y-73467765D01*
X146722671Y-73476030D01*
X146744850Y-73486520D01*
X146765893Y-73499132D01*
X146785599Y-73513747D01*
X146803777Y-73530223D01*
X146820253Y-73548401D01*
X146834868Y-73568107D01*
X146847480Y-73589150D01*
X146857970Y-73611329D01*
X146866235Y-73634428D01*
X146872196Y-73658227D01*
X146875796Y-73682495D01*
X146877000Y-73706999D01*
X146877000Y-74357001D01*
X146875796Y-74381505D01*
X146872196Y-74405773D01*
X146866235Y-74429572D01*
X146857970Y-74452671D01*
X146847480Y-74474850D01*
X146834868Y-74495893D01*
X146820253Y-74515599D01*
X146803777Y-74533777D01*
X146785599Y-74550253D01*
X146765893Y-74564868D01*
X146744850Y-74577480D01*
X146722671Y-74587970D01*
X146699572Y-74596235D01*
X146675773Y-74602196D01*
X146651505Y-74605796D01*
X146627001Y-74607000D01*
X145726999Y-74607000D01*
X145702495Y-74605796D01*
X145678227Y-74602196D01*
X145654428Y-74596235D01*
X145631329Y-74587970D01*
X145609150Y-74577480D01*
X145588107Y-74564868D01*
X145568401Y-74550253D01*
X145550223Y-74533777D01*
X145533747Y-74515599D01*
X145519132Y-74495893D01*
X145506520Y-74474850D01*
X145496030Y-74452671D01*
X145487765Y-74429572D01*
X145481804Y-74405773D01*
X145478204Y-74381505D01*
X145477000Y-74357001D01*
X145477000Y-73706999D01*
X145478204Y-73682495D01*
X145481804Y-73658227D01*
X145487765Y-73634428D01*
X145496030Y-73611329D01*
X145506520Y-73589150D01*
X145519132Y-73568107D01*
X145533747Y-73548401D01*
X145550223Y-73530223D01*
X145568401Y-73513747D01*
X145588107Y-73499132D01*
X145609150Y-73486520D01*
X145631329Y-73476030D01*
X145654428Y-73467765D01*
X145678227Y-73461804D01*
X145702495Y-73458204D01*
X145726999Y-73457000D01*
X146627001Y-73457000D01*
X146651505Y-73458204D01*
X146651505Y-73458204D01*
G37*
D13*
G04 #@! TD*
G04 #@! TO.P,R5,1*
G04 #@! TO.N,+3V3*
X146177000Y-74032000D03*
D12*
G04 #@! TO.N,Net-(R5-Pad2)*
G04 #@! TO.C,R5*
G36*
X146651505Y-75508204D02*
X146675773Y-75511804D01*
X146699572Y-75517765D01*
X146722671Y-75526030D01*
X146744850Y-75536520D01*
X146765893Y-75549132D01*
X146785599Y-75563747D01*
X146803777Y-75580223D01*
X146820253Y-75598401D01*
X146834868Y-75618107D01*
X146847480Y-75639150D01*
X146857970Y-75661329D01*
X146866235Y-75684428D01*
X146872196Y-75708227D01*
X146875796Y-75732495D01*
X146877000Y-75756999D01*
X146877000Y-76407001D01*
X146875796Y-76431505D01*
X146872196Y-76455773D01*
X146866235Y-76479572D01*
X146857970Y-76502671D01*
X146847480Y-76524850D01*
X146834868Y-76545893D01*
X146820253Y-76565599D01*
X146803777Y-76583777D01*
X146785599Y-76600253D01*
X146765893Y-76614868D01*
X146744850Y-76627480D01*
X146722671Y-76637970D01*
X146699572Y-76646235D01*
X146675773Y-76652196D01*
X146651505Y-76655796D01*
X146627001Y-76657000D01*
X145726999Y-76657000D01*
X145702495Y-76655796D01*
X145678227Y-76652196D01*
X145654428Y-76646235D01*
X145631329Y-76637970D01*
X145609150Y-76627480D01*
X145588107Y-76614868D01*
X145568401Y-76600253D01*
X145550223Y-76583777D01*
X145533747Y-76565599D01*
X145519132Y-76545893D01*
X145506520Y-76524850D01*
X145496030Y-76502671D01*
X145487765Y-76479572D01*
X145481804Y-76455773D01*
X145478204Y-76431505D01*
X145477000Y-76407001D01*
X145477000Y-75756999D01*
X145478204Y-75732495D01*
X145481804Y-75708227D01*
X145487765Y-75684428D01*
X145496030Y-75661329D01*
X145506520Y-75639150D01*
X145519132Y-75618107D01*
X145533747Y-75598401D01*
X145550223Y-75580223D01*
X145568401Y-75563747D01*
X145588107Y-75549132D01*
X145609150Y-75536520D01*
X145631329Y-75526030D01*
X145654428Y-75517765D01*
X145678227Y-75511804D01*
X145702495Y-75508204D01*
X145726999Y-75507000D01*
X146627001Y-75507000D01*
X146651505Y-75508204D01*
X146651505Y-75508204D01*
G37*
D13*
G04 #@! TD*
G04 #@! TO.P,R5,2*
G04 #@! TO.N,Net-(R5-Pad2)*
X146177000Y-76082000D03*
D12*
G04 #@! TO.N,+3V3*
G04 #@! TO.C,R6*
G36*
X149191505Y-73458204D02*
X149215773Y-73461804D01*
X149239572Y-73467765D01*
X149262671Y-73476030D01*
X149284850Y-73486520D01*
X149305893Y-73499132D01*
X149325599Y-73513747D01*
X149343777Y-73530223D01*
X149360253Y-73548401D01*
X149374868Y-73568107D01*
X149387480Y-73589150D01*
X149397970Y-73611329D01*
X149406235Y-73634428D01*
X149412196Y-73658227D01*
X149415796Y-73682495D01*
X149417000Y-73706999D01*
X149417000Y-74357001D01*
X149415796Y-74381505D01*
X149412196Y-74405773D01*
X149406235Y-74429572D01*
X149397970Y-74452671D01*
X149387480Y-74474850D01*
X149374868Y-74495893D01*
X149360253Y-74515599D01*
X149343777Y-74533777D01*
X149325599Y-74550253D01*
X149305893Y-74564868D01*
X149284850Y-74577480D01*
X149262671Y-74587970D01*
X149239572Y-74596235D01*
X149215773Y-74602196D01*
X149191505Y-74605796D01*
X149167001Y-74607000D01*
X148266999Y-74607000D01*
X148242495Y-74605796D01*
X148218227Y-74602196D01*
X148194428Y-74596235D01*
X148171329Y-74587970D01*
X148149150Y-74577480D01*
X148128107Y-74564868D01*
X148108401Y-74550253D01*
X148090223Y-74533777D01*
X148073747Y-74515599D01*
X148059132Y-74495893D01*
X148046520Y-74474850D01*
X148036030Y-74452671D01*
X148027765Y-74429572D01*
X148021804Y-74405773D01*
X148018204Y-74381505D01*
X148017000Y-74357001D01*
X148017000Y-73706999D01*
X148018204Y-73682495D01*
X148021804Y-73658227D01*
X148027765Y-73634428D01*
X148036030Y-73611329D01*
X148046520Y-73589150D01*
X148059132Y-73568107D01*
X148073747Y-73548401D01*
X148090223Y-73530223D01*
X148108401Y-73513747D01*
X148128107Y-73499132D01*
X148149150Y-73486520D01*
X148171329Y-73476030D01*
X148194428Y-73467765D01*
X148218227Y-73461804D01*
X148242495Y-73458204D01*
X148266999Y-73457000D01*
X149167001Y-73457000D01*
X149191505Y-73458204D01*
X149191505Y-73458204D01*
G37*
D13*
G04 #@! TD*
G04 #@! TO.P,R6,2*
G04 #@! TO.N,+3V3*
X148717000Y-74032000D03*
D12*
G04 #@! TO.N,Net-(J4-Pad1)*
G04 #@! TO.C,R6*
G36*
X149191505Y-75508204D02*
X149215773Y-75511804D01*
X149239572Y-75517765D01*
X149262671Y-75526030D01*
X149284850Y-75536520D01*
X149305893Y-75549132D01*
X149325599Y-75563747D01*
X149343777Y-75580223D01*
X149360253Y-75598401D01*
X149374868Y-75618107D01*
X149387480Y-75639150D01*
X149397970Y-75661329D01*
X149406235Y-75684428D01*
X149412196Y-75708227D01*
X149415796Y-75732495D01*
X149417000Y-75756999D01*
X149417000Y-76407001D01*
X149415796Y-76431505D01*
X149412196Y-76455773D01*
X149406235Y-76479572D01*
X149397970Y-76502671D01*
X149387480Y-76524850D01*
X149374868Y-76545893D01*
X149360253Y-76565599D01*
X149343777Y-76583777D01*
X149325599Y-76600253D01*
X149305893Y-76614868D01*
X149284850Y-76627480D01*
X149262671Y-76637970D01*
X149239572Y-76646235D01*
X149215773Y-76652196D01*
X149191505Y-76655796D01*
X149167001Y-76657000D01*
X148266999Y-76657000D01*
X148242495Y-76655796D01*
X148218227Y-76652196D01*
X148194428Y-76646235D01*
X148171329Y-76637970D01*
X148149150Y-76627480D01*
X148128107Y-76614868D01*
X148108401Y-76600253D01*
X148090223Y-76583777D01*
X148073747Y-76565599D01*
X148059132Y-76545893D01*
X148046520Y-76524850D01*
X148036030Y-76502671D01*
X148027765Y-76479572D01*
X148021804Y-76455773D01*
X148018204Y-76431505D01*
X148017000Y-76407001D01*
X148017000Y-75756999D01*
X148018204Y-75732495D01*
X148021804Y-75708227D01*
X148027765Y-75684428D01*
X148036030Y-75661329D01*
X148046520Y-75639150D01*
X148059132Y-75618107D01*
X148073747Y-75598401D01*
X148090223Y-75580223D01*
X148108401Y-75563747D01*
X148128107Y-75549132D01*
X148149150Y-75536520D01*
X148171329Y-75526030D01*
X148194428Y-75517765D01*
X148218227Y-75511804D01*
X148242495Y-75508204D01*
X148266999Y-75507000D01*
X149167001Y-75507000D01*
X149191505Y-75508204D01*
X149191505Y-75508204D01*
G37*
D13*
G04 #@! TD*
G04 #@! TO.P,R6,1*
G04 #@! TO.N,Net-(J4-Pad1)*
X148717000Y-76082000D03*
D12*
G04 #@! TO.N,Net-(J5-Pad1)*
G04 #@! TO.C,R7*
G36*
X149191505Y-69140204D02*
X149215773Y-69143804D01*
X149239572Y-69149765D01*
X149262671Y-69158030D01*
X149284850Y-69168520D01*
X149305893Y-69181132D01*
X149325599Y-69195747D01*
X149343777Y-69212223D01*
X149360253Y-69230401D01*
X149374868Y-69250107D01*
X149387480Y-69271150D01*
X149397970Y-69293329D01*
X149406235Y-69316428D01*
X149412196Y-69340227D01*
X149415796Y-69364495D01*
X149417000Y-69388999D01*
X149417000Y-70039001D01*
X149415796Y-70063505D01*
X149412196Y-70087773D01*
X149406235Y-70111572D01*
X149397970Y-70134671D01*
X149387480Y-70156850D01*
X149374868Y-70177893D01*
X149360253Y-70197599D01*
X149343777Y-70215777D01*
X149325599Y-70232253D01*
X149305893Y-70246868D01*
X149284850Y-70259480D01*
X149262671Y-70269970D01*
X149239572Y-70278235D01*
X149215773Y-70284196D01*
X149191505Y-70287796D01*
X149167001Y-70289000D01*
X148266999Y-70289000D01*
X148242495Y-70287796D01*
X148218227Y-70284196D01*
X148194428Y-70278235D01*
X148171329Y-70269970D01*
X148149150Y-70259480D01*
X148128107Y-70246868D01*
X148108401Y-70232253D01*
X148090223Y-70215777D01*
X148073747Y-70197599D01*
X148059132Y-70177893D01*
X148046520Y-70156850D01*
X148036030Y-70134671D01*
X148027765Y-70111572D01*
X148021804Y-70087773D01*
X148018204Y-70063505D01*
X148017000Y-70039001D01*
X148017000Y-69388999D01*
X148018204Y-69364495D01*
X148021804Y-69340227D01*
X148027765Y-69316428D01*
X148036030Y-69293329D01*
X148046520Y-69271150D01*
X148059132Y-69250107D01*
X148073747Y-69230401D01*
X148090223Y-69212223D01*
X148108401Y-69195747D01*
X148128107Y-69181132D01*
X148149150Y-69168520D01*
X148171329Y-69158030D01*
X148194428Y-69149765D01*
X148218227Y-69143804D01*
X148242495Y-69140204D01*
X148266999Y-69139000D01*
X149167001Y-69139000D01*
X149191505Y-69140204D01*
X149191505Y-69140204D01*
G37*
D13*
G04 #@! TD*
G04 #@! TO.P,R7,1*
G04 #@! TO.N,Net-(J5-Pad1)*
X148717000Y-69714000D03*
D12*
G04 #@! TO.N,+3V3*
G04 #@! TO.C,R7*
G36*
X149191505Y-71190204D02*
X149215773Y-71193804D01*
X149239572Y-71199765D01*
X149262671Y-71208030D01*
X149284850Y-71218520D01*
X149305893Y-71231132D01*
X149325599Y-71245747D01*
X149343777Y-71262223D01*
X149360253Y-71280401D01*
X149374868Y-71300107D01*
X149387480Y-71321150D01*
X149397970Y-71343329D01*
X149406235Y-71366428D01*
X149412196Y-71390227D01*
X149415796Y-71414495D01*
X149417000Y-71438999D01*
X149417000Y-72089001D01*
X149415796Y-72113505D01*
X149412196Y-72137773D01*
X149406235Y-72161572D01*
X149397970Y-72184671D01*
X149387480Y-72206850D01*
X149374868Y-72227893D01*
X149360253Y-72247599D01*
X149343777Y-72265777D01*
X149325599Y-72282253D01*
X149305893Y-72296868D01*
X149284850Y-72309480D01*
X149262671Y-72319970D01*
X149239572Y-72328235D01*
X149215773Y-72334196D01*
X149191505Y-72337796D01*
X149167001Y-72339000D01*
X148266999Y-72339000D01*
X148242495Y-72337796D01*
X148218227Y-72334196D01*
X148194428Y-72328235D01*
X148171329Y-72319970D01*
X148149150Y-72309480D01*
X148128107Y-72296868D01*
X148108401Y-72282253D01*
X148090223Y-72265777D01*
X148073747Y-72247599D01*
X148059132Y-72227893D01*
X148046520Y-72206850D01*
X148036030Y-72184671D01*
X148027765Y-72161572D01*
X148021804Y-72137773D01*
X148018204Y-72113505D01*
X148017000Y-72089001D01*
X148017000Y-71438999D01*
X148018204Y-71414495D01*
X148021804Y-71390227D01*
X148027765Y-71366428D01*
X148036030Y-71343329D01*
X148046520Y-71321150D01*
X148059132Y-71300107D01*
X148073747Y-71280401D01*
X148090223Y-71262223D01*
X148108401Y-71245747D01*
X148128107Y-71231132D01*
X148149150Y-71218520D01*
X148171329Y-71208030D01*
X148194428Y-71199765D01*
X148218227Y-71193804D01*
X148242495Y-71190204D01*
X148266999Y-71189000D01*
X149167001Y-71189000D01*
X149191505Y-71190204D01*
X149191505Y-71190204D01*
G37*
D13*
G04 #@! TD*
G04 #@! TO.P,R7,2*
G04 #@! TO.N,+3V3*
X148717000Y-71764000D03*
D12*
G04 #@! TO.N,Earth*
G04 #@! TO.C,R8*
G36*
X146771505Y-77787204D02*
X146795773Y-77790804D01*
X146819572Y-77796765D01*
X146842671Y-77805030D01*
X146864850Y-77815520D01*
X146885893Y-77828132D01*
X146905599Y-77842747D01*
X146923777Y-77859223D01*
X146940253Y-77877401D01*
X146954868Y-77897107D01*
X146967480Y-77918150D01*
X146977970Y-77940329D01*
X146986235Y-77963428D01*
X146992196Y-77987227D01*
X146995796Y-78011495D01*
X146997000Y-78035999D01*
X146997000Y-78936001D01*
X146995796Y-78960505D01*
X146992196Y-78984773D01*
X146986235Y-79008572D01*
X146977970Y-79031671D01*
X146967480Y-79053850D01*
X146954868Y-79074893D01*
X146940253Y-79094599D01*
X146923777Y-79112777D01*
X146905599Y-79129253D01*
X146885893Y-79143868D01*
X146864850Y-79156480D01*
X146842671Y-79166970D01*
X146819572Y-79175235D01*
X146795773Y-79181196D01*
X146771505Y-79184796D01*
X146747001Y-79186000D01*
X146096999Y-79186000D01*
X146072495Y-79184796D01*
X146048227Y-79181196D01*
X146024428Y-79175235D01*
X146001329Y-79166970D01*
X145979150Y-79156480D01*
X145958107Y-79143868D01*
X145938401Y-79129253D01*
X145920223Y-79112777D01*
X145903747Y-79094599D01*
X145889132Y-79074893D01*
X145876520Y-79053850D01*
X145866030Y-79031671D01*
X145857765Y-79008572D01*
X145851804Y-78984773D01*
X145848204Y-78960505D01*
X145847000Y-78936001D01*
X145847000Y-78035999D01*
X145848204Y-78011495D01*
X145851804Y-77987227D01*
X145857765Y-77963428D01*
X145866030Y-77940329D01*
X145876520Y-77918150D01*
X145889132Y-77897107D01*
X145903747Y-77877401D01*
X145920223Y-77859223D01*
X145938401Y-77842747D01*
X145958107Y-77828132D01*
X145979150Y-77815520D01*
X146001329Y-77805030D01*
X146024428Y-77796765D01*
X146048227Y-77790804D01*
X146072495Y-77787204D01*
X146096999Y-77786000D01*
X146747001Y-77786000D01*
X146771505Y-77787204D01*
X146771505Y-77787204D01*
G37*
D13*
G04 #@! TD*
G04 #@! TO.P,R8,1*
G04 #@! TO.N,Earth*
X146422000Y-78486000D03*
D12*
G04 #@! TO.N,Net-(R8-Pad2)*
G04 #@! TO.C,R8*
G36*
X148821505Y-77787204D02*
X148845773Y-77790804D01*
X148869572Y-77796765D01*
X148892671Y-77805030D01*
X148914850Y-77815520D01*
X148935893Y-77828132D01*
X148955599Y-77842747D01*
X148973777Y-77859223D01*
X148990253Y-77877401D01*
X149004868Y-77897107D01*
X149017480Y-77918150D01*
X149027970Y-77940329D01*
X149036235Y-77963428D01*
X149042196Y-77987227D01*
X149045796Y-78011495D01*
X149047000Y-78035999D01*
X149047000Y-78936001D01*
X149045796Y-78960505D01*
X149042196Y-78984773D01*
X149036235Y-79008572D01*
X149027970Y-79031671D01*
X149017480Y-79053850D01*
X149004868Y-79074893D01*
X148990253Y-79094599D01*
X148973777Y-79112777D01*
X148955599Y-79129253D01*
X148935893Y-79143868D01*
X148914850Y-79156480D01*
X148892671Y-79166970D01*
X148869572Y-79175235D01*
X148845773Y-79181196D01*
X148821505Y-79184796D01*
X148797001Y-79186000D01*
X148146999Y-79186000D01*
X148122495Y-79184796D01*
X148098227Y-79181196D01*
X148074428Y-79175235D01*
X148051329Y-79166970D01*
X148029150Y-79156480D01*
X148008107Y-79143868D01*
X147988401Y-79129253D01*
X147970223Y-79112777D01*
X147953747Y-79094599D01*
X147939132Y-79074893D01*
X147926520Y-79053850D01*
X147916030Y-79031671D01*
X147907765Y-79008572D01*
X147901804Y-78984773D01*
X147898204Y-78960505D01*
X147897000Y-78936001D01*
X147897000Y-78035999D01*
X147898204Y-78011495D01*
X147901804Y-77987227D01*
X147907765Y-77963428D01*
X147916030Y-77940329D01*
X147926520Y-77918150D01*
X147939132Y-77897107D01*
X147953747Y-77877401D01*
X147970223Y-77859223D01*
X147988401Y-77842747D01*
X148008107Y-77828132D01*
X148029150Y-77815520D01*
X148051329Y-77805030D01*
X148074428Y-77796765D01*
X148098227Y-77790804D01*
X148122495Y-77787204D01*
X148146999Y-77786000D01*
X148797001Y-77786000D01*
X148821505Y-77787204D01*
X148821505Y-77787204D01*
G37*
D13*
G04 #@! TD*
G04 #@! TO.P,R8,2*
G04 #@! TO.N,Net-(R8-Pad2)*
X148472000Y-78486000D03*
D12*
G04 #@! TO.N,Net-(R9-Pad2)*
G04 #@! TO.C,R9*
G36*
X148821505Y-79946204D02*
X148845773Y-79949804D01*
X148869572Y-79955765D01*
X148892671Y-79964030D01*
X148914850Y-79974520D01*
X148935893Y-79987132D01*
X148955599Y-80001747D01*
X148973777Y-80018223D01*
X148990253Y-80036401D01*
X149004868Y-80056107D01*
X149017480Y-80077150D01*
X149027970Y-80099329D01*
X149036235Y-80122428D01*
X149042196Y-80146227D01*
X149045796Y-80170495D01*
X149047000Y-80194999D01*
X149047000Y-81095001D01*
X149045796Y-81119505D01*
X149042196Y-81143773D01*
X149036235Y-81167572D01*
X149027970Y-81190671D01*
X149017480Y-81212850D01*
X149004868Y-81233893D01*
X148990253Y-81253599D01*
X148973777Y-81271777D01*
X148955599Y-81288253D01*
X148935893Y-81302868D01*
X148914850Y-81315480D01*
X148892671Y-81325970D01*
X148869572Y-81334235D01*
X148845773Y-81340196D01*
X148821505Y-81343796D01*
X148797001Y-81345000D01*
X148146999Y-81345000D01*
X148122495Y-81343796D01*
X148098227Y-81340196D01*
X148074428Y-81334235D01*
X148051329Y-81325970D01*
X148029150Y-81315480D01*
X148008107Y-81302868D01*
X147988401Y-81288253D01*
X147970223Y-81271777D01*
X147953747Y-81253599D01*
X147939132Y-81233893D01*
X147926520Y-81212850D01*
X147916030Y-81190671D01*
X147907765Y-81167572D01*
X147901804Y-81143773D01*
X147898204Y-81119505D01*
X147897000Y-81095001D01*
X147897000Y-80194999D01*
X147898204Y-80170495D01*
X147901804Y-80146227D01*
X147907765Y-80122428D01*
X147916030Y-80099329D01*
X147926520Y-80077150D01*
X147939132Y-80056107D01*
X147953747Y-80036401D01*
X147970223Y-80018223D01*
X147988401Y-80001747D01*
X148008107Y-79987132D01*
X148029150Y-79974520D01*
X148051329Y-79964030D01*
X148074428Y-79955765D01*
X148098227Y-79949804D01*
X148122495Y-79946204D01*
X148146999Y-79945000D01*
X148797001Y-79945000D01*
X148821505Y-79946204D01*
X148821505Y-79946204D01*
G37*
D13*
G04 #@! TD*
G04 #@! TO.P,R9,2*
G04 #@! TO.N,Net-(R9-Pad2)*
X148472000Y-80645000D03*
D12*
G04 #@! TO.N,+3V3*
G04 #@! TO.C,R9*
G36*
X146771505Y-79946204D02*
X146795773Y-79949804D01*
X146819572Y-79955765D01*
X146842671Y-79964030D01*
X146864850Y-79974520D01*
X146885893Y-79987132D01*
X146905599Y-80001747D01*
X146923777Y-80018223D01*
X146940253Y-80036401D01*
X146954868Y-80056107D01*
X146967480Y-80077150D01*
X146977970Y-80099329D01*
X146986235Y-80122428D01*
X146992196Y-80146227D01*
X146995796Y-80170495D01*
X146997000Y-80194999D01*
X146997000Y-81095001D01*
X146995796Y-81119505D01*
X146992196Y-81143773D01*
X146986235Y-81167572D01*
X146977970Y-81190671D01*
X146967480Y-81212850D01*
X146954868Y-81233893D01*
X146940253Y-81253599D01*
X146923777Y-81271777D01*
X146905599Y-81288253D01*
X146885893Y-81302868D01*
X146864850Y-81315480D01*
X146842671Y-81325970D01*
X146819572Y-81334235D01*
X146795773Y-81340196D01*
X146771505Y-81343796D01*
X146747001Y-81345000D01*
X146096999Y-81345000D01*
X146072495Y-81343796D01*
X146048227Y-81340196D01*
X146024428Y-81334235D01*
X146001329Y-81325970D01*
X145979150Y-81315480D01*
X145958107Y-81302868D01*
X145938401Y-81288253D01*
X145920223Y-81271777D01*
X145903747Y-81253599D01*
X145889132Y-81233893D01*
X145876520Y-81212850D01*
X145866030Y-81190671D01*
X145857765Y-81167572D01*
X145851804Y-81143773D01*
X145848204Y-81119505D01*
X145847000Y-81095001D01*
X145847000Y-80194999D01*
X145848204Y-80170495D01*
X145851804Y-80146227D01*
X145857765Y-80122428D01*
X145866030Y-80099329D01*
X145876520Y-80077150D01*
X145889132Y-80056107D01*
X145903747Y-80036401D01*
X145920223Y-80018223D01*
X145938401Y-80001747D01*
X145958107Y-79987132D01*
X145979150Y-79974520D01*
X146001329Y-79964030D01*
X146024428Y-79955765D01*
X146048227Y-79949804D01*
X146072495Y-79946204D01*
X146096999Y-79945000D01*
X146747001Y-79945000D01*
X146771505Y-79946204D01*
X146771505Y-79946204D01*
G37*
D13*
G04 #@! TD*
G04 #@! TO.P,R9,1*
G04 #@! TO.N,+3V3*
X146422000Y-80645000D03*
D16*
G04 #@! TO.P,reset,1*
G04 #@! TO.N,Net-(R5-Pad2)*
X139755000Y-83099000D03*
X139755000Y-78699000D03*
G04 #@! TO.P,reset,2*
G04 #@! TO.N,Earth*
X143455000Y-78699000D03*
X143455000Y-83099000D03*
D17*
G04 #@! TO.P,reset,0*
G04 #@! TO.N,N/C*
X139080000Y-80899000D03*
X144130000Y-80899000D03*
G04 #@! TD*
G04 #@! TO.P,flash,0*
G04 #@! TO.N,N/C*
X155814000Y-81153000D03*
X150764000Y-81153000D03*
D16*
G04 #@! TO.P,flash,2*
G04 #@! TO.N,Earth*
X155139000Y-83353000D03*
X155139000Y-78953000D03*
G04 #@! TO.P,flash,1*
G04 #@! TO.N,Net-(R9-Pad2)*
X151439000Y-78953000D03*
X151439000Y-83353000D03*
G04 #@! TD*
D18*
G04 #@! TO.P,U1,1*
G04 #@! TO.N,Net-(R5-Pad2)*
X139847000Y-51745000D03*
G04 #@! TO.P,U1,2*
G04 #@! TO.N,Net-(IO3-Pad1)*
X139847000Y-53745000D03*
G04 #@! TO.P,U1,3*
G04 #@! TO.N,Net-(R1-Pad1)*
X139847000Y-55745000D03*
G04 #@! TO.P,U1,4*
G04 #@! TO.N,Net-(R5-Pad2)*
X139847000Y-57745000D03*
G04 #@! TO.P,U1,5*
G04 #@! TO.N,Net-(IO1-Pad1)*
X139847000Y-59745000D03*
G04 #@! TO.P,U1,6*
G04 #@! TO.N,Net-(IO2-Pad1)*
X139847000Y-61745000D03*
G04 #@! TO.P,U1,7*
G04 #@! TO.N,Net-(U1-Pad7)*
X139847000Y-63745000D03*
G04 #@! TO.P,U1,8*
G04 #@! TO.N,+3V3*
X139847000Y-65745000D03*
D19*
G04 #@! TO.P,U1,9*
G04 #@! TO.N,N/C*
X142447000Y-67245000D03*
G04 #@! TO.P,U1,10*
X144447000Y-67245000D03*
G04 #@! TO.P,U1,11*
X146447000Y-67245000D03*
G04 #@! TO.P,U1,12*
X148447000Y-67245000D03*
G04 #@! TO.P,U1,13*
X150447000Y-67245000D03*
G04 #@! TO.P,U1,14*
X152447000Y-67245000D03*
D18*
G04 #@! TO.P,U1,15*
G04 #@! TO.N,Earth*
X155047000Y-65745000D03*
G04 #@! TO.P,U1,16*
G04 #@! TO.N,Net-(R8-Pad2)*
X155047000Y-63745000D03*
G04 #@! TO.P,U1,17*
G04 #@! TO.N,N/C*
X155047000Y-61745000D03*
G04 #@! TO.P,U1,18*
G04 #@! TO.N,Net-(R9-Pad2)*
X155047000Y-59745000D03*
G04 #@! TO.P,U1,19*
G04 #@! TO.N,Net-(J4-Pad1)*
X155047000Y-57745000D03*
G04 #@! TO.P,U1,20*
G04 #@! TO.N,Net-(J5-Pad1)*
X155047000Y-55745000D03*
G04 #@! TO.P,U1,21*
G04 #@! TO.N,Net-(J8-Pad1)*
X155047000Y-53745000D03*
G04 #@! TO.P,U1,22*
G04 #@! TO.N,Net-(J7-Pad1)*
X155047000Y-51745000D03*
G04 #@! TD*
D20*
G04 #@! TO.P,U2,1*
G04 #@! TO.N,+BATT*
X145356000Y-86680000D03*
G04 #@! TO.P,U2,2*
G04 #@! TO.N,Earth*
X145356000Y-87630000D03*
G04 #@! TO.P,U2,3*
G04 #@! TO.N,Net-(IC1-Pad1)*
X145356000Y-88580000D03*
G04 #@! TO.P,U2,4*
G04 #@! TO.N,+3V3*
X148776000Y-88580000D03*
G04 #@! TO.P,U2,5*
G04 #@! TO.N,Net-(L1-Pad1)*
X148776000Y-86680000D03*
G04 #@! TD*
D21*
G04 #@! TO.P,U4,1*
G04 #@! TO.N,Net-(J4-Pad1)*
X155690000Y-86176000D03*
G04 #@! TO.P,U4,2*
G04 #@! TO.N,Earth*
X155190000Y-86176000D03*
G04 #@! TO.P,U4,3*
G04 #@! TO.N,N/C*
X154690000Y-86176000D03*
G04 #@! TO.P,U4,4*
G04 #@! TO.N,Net-(J5-Pad1)*
X154190000Y-86176000D03*
G04 #@! TO.P,U4,5*
G04 #@! TO.N,Net-(U1-Pad7)*
X154190000Y-88576000D03*
G04 #@! TO.P,U4,6*
G04 #@! TO.N,N/C*
X154690000Y-88576000D03*
G04 #@! TO.P,U4,7*
G04 #@! TO.N,Earth*
X155190000Y-88576000D03*
G04 #@! TO.P,U4,8*
X155690000Y-88576000D03*
D22*
G04 #@! TO.P,U4,9*
X154940000Y-87376000D03*
G04 #@! TD*
D23*
G04 #@! TO.N,Earth*
X144526000Y-87630000D03*
X155194000Y-79248000D03*
X155067000Y-83312000D03*
X140716000Y-88265000D03*
X151892000Y-61595000D03*
X154940000Y-87376000D03*
X152654000Y-84582000D03*
X139446000Y-75565000D03*
X140970000Y-80010000D03*
X149987000Y-70739000D03*
X144018000Y-84328000D03*
X148082000Y-63373000D03*
X148463000Y-53721000D03*
X144018000Y-73533000D03*
X144780000Y-78486000D03*
G04 #@! TO.N,+3V3*
X144272000Y-63627000D03*
X153416000Y-73279000D03*
G04 #@! TO.N,+BATT*
X145034000Y-81788000D03*
X152146000Y-77597000D03*
G04 #@! TO.N,Net-(F1-Pad1)*
X139446000Y-84455000D03*
G04 #@! TO.N,Net-(IC1-Pad1)*
X143256000Y-88011000D03*
X143002000Y-85344000D03*
X149757500Y-85446500D03*
G04 #@! TO.N,Net-(IO1-Pad1)*
X144526000Y-58420000D03*
G04 #@! TO.N,Net-(IO2-Pad1)*
X144399000Y-61341000D03*
G04 #@! TO.N,Net-(IO3-Pad1)*
X142113000Y-53745000D03*
G04 #@! TO.N,Net-(J4-Pad1)*
X153162000Y-58547000D03*
X150238372Y-76705372D03*
X154940000Y-85006000D03*
G04 #@! TO.N,Net-(J5-Pad1)*
X153035000Y-55753000D03*
X150114000Y-69117000D03*
G04 #@! TO.N,Net-(J7-Pad1)*
X151003000Y-51054000D03*
G04 #@! TO.N,Net-(J8-Pad1)*
X152654000Y-52324000D03*
G04 #@! TO.N,Net-(R1-Pad1)*
X141974000Y-55118000D03*
X144638500Y-68975500D03*
G04 #@! TO.N,Net-(R5-Pad2)*
X143764000Y-76082000D03*
X141940500Y-58338500D03*
G04 #@! TO.N,Net-(R8-Pad2)*
X151892000Y-63745000D03*
X151892000Y-73914000D03*
G04 #@! TO.N,Net-(R9-Pad2)*
X153035000Y-62230000D03*
X152019000Y-75692000D03*
G04 #@! TO.N,Net-(U1-Pad7)*
X141732000Y-64770000D03*
X153289000Y-88576000D03*
G04 #@! TD*
D24*
G04 #@! TO.N,Earth*
X155190000Y-88261000D02*
X155194000Y-88257000D01*
X155190000Y-88576000D02*
X155190000Y-88261000D01*
X154940000Y-87726000D02*
X154940000Y-87376000D01*
X155194000Y-87980000D02*
X154940000Y-87726000D01*
X155194000Y-88257000D02*
X155194000Y-87980000D01*
X155190000Y-87126000D02*
X154940000Y-87376000D01*
X155190000Y-86176000D02*
X155190000Y-87126000D01*
X155690000Y-88576000D02*
X155190000Y-88576000D01*
X140716000Y-87580000D02*
X140859000Y-87437000D01*
X140716000Y-88265000D02*
X140716000Y-87580000D01*
X155047000Y-65745000D02*
X152818998Y-65745000D01*
X151111001Y-62248999D02*
X151511000Y-61849000D01*
X151111001Y-64037003D02*
X151111001Y-62248999D01*
X152818998Y-65745000D02*
X151111001Y-64037003D01*
X154940000Y-87376000D02*
X154940000Y-87376000D01*
X141559000Y-87437000D02*
X140859000Y-87437000D01*
X141710001Y-87285999D02*
X141559000Y-87437000D01*
X143761999Y-87285999D02*
X141710001Y-87285999D01*
X144106000Y-87630000D02*
X143761999Y-87285999D01*
X145356000Y-87630000D02*
X144106000Y-87630000D01*
G04 #@! TO.N,+3V3*
X140301000Y-71079000D02*
X141351000Y-71079000D01*
X139847000Y-70625000D02*
X140301000Y-71079000D01*
X139847000Y-65745000D02*
X139847000Y-70625000D01*
X142154000Y-65745000D02*
X144272000Y-63627000D01*
X139847000Y-65745000D02*
X142154000Y-65745000D01*
X147917000Y-71764000D02*
X146177000Y-71764000D01*
X148717000Y-71764000D02*
X147917000Y-71764000D01*
X142036000Y-71764000D02*
X141351000Y-71079000D01*
X146177000Y-71764000D02*
X142036000Y-71764000D01*
X146177000Y-74032000D02*
X146177000Y-71764000D01*
X147917000Y-74032000D02*
X146177000Y-74032000D01*
X148717000Y-74032000D02*
X147917000Y-74032000D01*
X148717000Y-74032000D02*
X148717000Y-71764000D01*
X146422000Y-82804000D02*
X146422000Y-80645000D01*
X147045372Y-80021628D02*
X146422000Y-80645000D01*
X147322010Y-79744990D02*
X147045372Y-80021628D01*
X147322010Y-75177010D02*
X147322010Y-79744990D01*
X146177000Y-74032000D02*
X147322010Y-75177010D01*
X151586000Y-88580000D02*
X151765000Y-88401000D01*
X148776000Y-88580000D02*
X151586000Y-88580000D01*
X147045372Y-83427372D02*
X146422000Y-82804000D01*
X147322010Y-83704010D02*
X147045372Y-83427372D01*
X147322010Y-88376010D02*
X147322010Y-83704010D01*
X147526000Y-88580000D02*
X147322010Y-88376010D01*
X148776000Y-88580000D02*
X147526000Y-88580000D01*
X152850315Y-73279000D02*
X152342315Y-72771000D01*
X153416000Y-73279000D02*
X152850315Y-73279000D01*
X149978000Y-72771000D02*
X148717000Y-74032000D01*
X152342315Y-72771000D02*
X149978000Y-72771000D01*
G04 #@! TO.N,+BATT*
X145356000Y-86680000D02*
X143052000Y-86680000D01*
X142859000Y-86487000D02*
X139940000Y-86487000D01*
X145356000Y-85902000D02*
X146422000Y-84836000D01*
X145356000Y-86680000D02*
X145356000Y-85902000D01*
X145200000Y-84289000D02*
X145200000Y-84289000D01*
X153543000Y-77229000D02*
X153175000Y-77597000D01*
X153543000Y-75479000D02*
X153543000Y-77229000D01*
X153175000Y-77597000D02*
X152146000Y-77597000D01*
X152146000Y-77597000D02*
X152146000Y-77597000D01*
X139940000Y-87062000D02*
X139940000Y-86487000D01*
X139640000Y-87362000D02*
X139940000Y-87062000D01*
X139065000Y-87362000D02*
X139640000Y-87362000D01*
X145034000Y-84123000D02*
X145034000Y-81788000D01*
X146422000Y-84836000D02*
X145747000Y-84836000D01*
X145747000Y-84836000D02*
X145034000Y-84123000D01*
G04 #@! TO.N,Net-(F1-Pad1)*
X139065000Y-84836000D02*
X139446000Y-84455000D01*
X139065000Y-85612000D02*
X139065000Y-84836000D01*
G04 #@! TO.N,Net-(IC1-Pad1)*
X145356000Y-88580000D02*
X143825000Y-88580000D01*
X143825000Y-88580000D02*
X143256000Y-88011000D01*
X143256000Y-88011000D02*
X143256000Y-88011000D01*
X140859000Y-85537000D02*
X141859000Y-85537000D01*
X141859000Y-85537000D02*
X141859000Y-85537000D01*
X148472000Y-84836000D02*
X149147000Y-84836000D01*
X149147000Y-84836000D02*
X149757500Y-85446500D01*
X149757500Y-85446500D02*
X149757500Y-85446500D01*
X142052000Y-85344000D02*
X143002000Y-85344000D01*
X141859000Y-85537000D02*
X142052000Y-85344000D01*
G04 #@! TO.N,Net-(IO1-Pad1)*
X141859000Y-59745000D02*
X141859000Y-59745000D01*
X143201000Y-59745000D02*
X144526000Y-58420000D01*
X139847000Y-59745000D02*
X143201000Y-59745000D01*
G04 #@! TO.N,Net-(IO2-Pad1)*
X141859000Y-61745000D02*
X141859000Y-61745000D01*
X143995000Y-61745000D02*
X144399000Y-61341000D01*
X139847000Y-61745000D02*
X143995000Y-61745000D01*
G04 #@! TO.N,Net-(IO3-Pad1)*
X139847000Y-53745000D02*
X142113000Y-53745000D01*
X142113000Y-53745000D02*
X142113000Y-53745000D01*
G04 #@! TO.N,Net-(J4-Pad1)*
X153964000Y-57745000D02*
X153162000Y-58547000D01*
X155047000Y-57745000D02*
X153964000Y-57745000D01*
X149340372Y-76705372D02*
X150238372Y-76705372D01*
X148717000Y-76082000D02*
X149340372Y-76705372D01*
X149857372Y-76705372D02*
X150238372Y-76705372D01*
X150238372Y-76705372D02*
X149857372Y-76705372D01*
X155690000Y-85526000D02*
X155690000Y-86176000D01*
X155690000Y-85190315D02*
X155690000Y-85526000D01*
X155505685Y-85006000D02*
X155690000Y-85190315D01*
X154940000Y-85006000D02*
X155505685Y-85006000D01*
G04 #@! TO.N,Net-(J5-Pad1)*
X153547000Y-55745000D02*
X153035000Y-55753000D01*
X155047000Y-55745000D02*
X153547000Y-55745000D01*
X153539000Y-55753000D02*
X153035000Y-55753000D01*
X153035000Y-55753000D02*
X153539000Y-55753000D01*
X149517000Y-69714000D02*
X150114000Y-69117000D01*
X148717000Y-69714000D02*
X149517000Y-69714000D01*
X150114000Y-69117000D02*
X150114000Y-69117000D01*
X150679685Y-69117000D02*
X150114000Y-69117000D01*
X154466002Y-69117000D02*
X150679685Y-69117000D01*
X154668001Y-69318999D02*
X154466002Y-69117000D01*
X154668001Y-77239001D02*
X154668001Y-69318999D01*
X154190000Y-77717002D02*
X154668001Y-77239001D01*
X154190000Y-86176000D02*
X154190000Y-77717002D01*
G04 #@! TO.N,Net-(J7-Pad1)*
X155047000Y-51745000D02*
X153547000Y-51745000D01*
X153547000Y-51745000D02*
X153472000Y-51745000D01*
X153472000Y-51745000D02*
X152781000Y-51054000D01*
X152781000Y-51054000D02*
X152781000Y-51054000D01*
X152781000Y-51054000D02*
X151003000Y-51054000D01*
X151003000Y-51054000D02*
X151003000Y-51054000D01*
G04 #@! TO.N,Net-(J8-Pad1)*
X155047000Y-53745000D02*
X153547000Y-53745000D01*
X153547000Y-53745000D02*
X153547000Y-53217000D01*
X153547000Y-53217000D02*
X152654000Y-52324000D01*
X152654000Y-52324000D02*
X152654000Y-52324000D01*
G04 #@! TO.N,Net-(L1-Pad1)*
X151436000Y-86680000D02*
X151765000Y-86351000D01*
X148776000Y-86680000D02*
X151436000Y-86680000D01*
G04 #@! TO.N,Net-(R1-Pad1)*
X141347000Y-55745000D02*
X141974000Y-55118000D01*
X139847000Y-55745000D02*
X141347000Y-55745000D01*
X141974000Y-55118000D02*
X141974000Y-55118000D01*
X146177000Y-69714000D02*
X145377000Y-69714000D01*
X145377000Y-69714000D02*
X144638500Y-68975500D01*
X144638500Y-68975500D02*
X144638500Y-68975500D01*
G04 #@! TO.N,Net-(R5-Pad2)*
X140597000Y-57745000D02*
X139847000Y-57745000D01*
X142838001Y-55503999D02*
X140597000Y-57745000D01*
X142838001Y-53236001D02*
X142838001Y-55503999D01*
X141347000Y-51745000D02*
X142838001Y-53236001D01*
X139847000Y-51745000D02*
X141347000Y-51745000D01*
X145377000Y-76082000D02*
X146177000Y-76082000D01*
X143610001Y-76082000D02*
X143764000Y-76082000D01*
X140993001Y-78699000D02*
X143610001Y-76082000D01*
X139755000Y-78699000D02*
X140993001Y-78699000D01*
X139755000Y-83099000D02*
X139755000Y-78699000D01*
X143764000Y-76082000D02*
X145377000Y-76082000D01*
X139847000Y-57745000D02*
X141347000Y-57745000D01*
X141347000Y-57745000D02*
X141940500Y-58338500D01*
X141940500Y-58338500D02*
X141940500Y-58338500D01*
G04 #@! TO.N,Net-(R8-Pad2)*
X155047000Y-63745000D02*
X151892000Y-63745000D01*
X151892000Y-63745000D02*
X151892000Y-63745000D01*
X149147000Y-78486000D02*
X148472000Y-78486000D01*
X149530746Y-78486000D02*
X149147000Y-78486000D01*
X150963373Y-77053373D02*
X149530746Y-78486000D01*
X150963373Y-75408312D02*
X150963373Y-77053373D01*
X151892000Y-74479685D02*
X150963373Y-75408312D01*
X151892000Y-73914000D02*
X151892000Y-74479685D01*
G04 #@! TO.N,Net-(R9-Pad2)*
X148931000Y-80645000D02*
X148472000Y-80645000D01*
X151439000Y-83153000D02*
X148931000Y-80645000D01*
X151439000Y-83353000D02*
X151439000Y-83153000D01*
X150164000Y-78953000D02*
X148472000Y-80645000D01*
X151439000Y-78953000D02*
X150164000Y-78953000D01*
X155047000Y-59745000D02*
X154297000Y-59745000D01*
X151439000Y-78953000D02*
X151439000Y-78753000D01*
X151439000Y-78753000D02*
X151420999Y-78734999D01*
X151619001Y-76091999D02*
X152019000Y-75692000D01*
X151420999Y-76290001D02*
X151619001Y-76091999D01*
X151420999Y-78184999D02*
X151420999Y-76290001D01*
X151439000Y-78203000D02*
X151420999Y-78184999D01*
X151439000Y-78953000D02*
X151439000Y-78203000D01*
X153035000Y-61664315D02*
X153035000Y-62230000D01*
X153035000Y-60257000D02*
X153035000Y-61664315D01*
X153547000Y-59745000D02*
X153035000Y-60257000D01*
X155047000Y-59745000D02*
X153547000Y-59745000D01*
G04 #@! TO.N,Net-(U1-Pad7)*
X139847000Y-64495000D02*
X140122000Y-64770000D01*
X139847000Y-63745000D02*
X139847000Y-64495000D01*
X140122000Y-64770000D02*
X141732000Y-64770000D01*
X141732000Y-64770000D02*
X141732000Y-64770000D01*
X154190000Y-88576000D02*
X153289000Y-88576000D01*
X153289000Y-88576000D02*
X153289000Y-88576000D01*
G04 #@! TD*
D25*
G04 #@! TO.N,Earth*
G36*
X141951191Y-87344809D02*
X142161235Y-87485157D01*
X142338897Y-87520496D01*
X142221000Y-87805126D01*
X142221000Y-88216874D01*
X142378569Y-88597280D01*
X142504289Y-88723000D01*
X138988000Y-88723000D01*
X138988000Y-88534440D01*
X139302500Y-88534440D01*
X139641152Y-88467078D01*
X139928247Y-88275247D01*
X139936648Y-88262674D01*
X140049302Y-88375327D01*
X140282691Y-88472000D01*
X140573250Y-88472000D01*
X140732000Y-88313250D01*
X140732000Y-87564000D01*
X140986000Y-87564000D01*
X140986000Y-88313250D01*
X141144750Y-88472000D01*
X141435309Y-88472000D01*
X141668698Y-88375327D01*
X141847327Y-88196699D01*
X141944000Y-87963310D01*
X141944000Y-87722750D01*
X141785250Y-87564000D01*
X140986000Y-87564000D01*
X140732000Y-87564000D01*
X140712000Y-87564000D01*
X140712000Y-87310000D01*
X140732000Y-87310000D01*
X140732000Y-87290000D01*
X140986000Y-87290000D01*
X140986000Y-87310000D01*
X141785250Y-87310000D01*
X141848250Y-87247000D01*
X141885837Y-87247000D01*
X141951191Y-87344809D01*
X141951191Y-87344809D01*
G37*
X141951191Y-87344809D02*
X142161235Y-87485157D01*
X142338897Y-87520496D01*
X142221000Y-87805126D01*
X142221000Y-88216874D01*
X142378569Y-88597280D01*
X142504289Y-88723000D01*
X138988000Y-88723000D01*
X138988000Y-88534440D01*
X139302500Y-88534440D01*
X139641152Y-88467078D01*
X139928247Y-88275247D01*
X139936648Y-88262674D01*
X140049302Y-88375327D01*
X140282691Y-88472000D01*
X140573250Y-88472000D01*
X140732000Y-88313250D01*
X140732000Y-87564000D01*
X140986000Y-87564000D01*
X140986000Y-88313250D01*
X141144750Y-88472000D01*
X141435309Y-88472000D01*
X141668698Y-88375327D01*
X141847327Y-88196699D01*
X141944000Y-87963310D01*
X141944000Y-87722750D01*
X141785250Y-87564000D01*
X140986000Y-87564000D01*
X140732000Y-87564000D01*
X140712000Y-87564000D01*
X140712000Y-87310000D01*
X140732000Y-87310000D01*
X140732000Y-87290000D01*
X140986000Y-87290000D01*
X140986000Y-87310000D01*
X141785250Y-87310000D01*
X141848250Y-87247000D01*
X141885837Y-87247000D01*
X141951191Y-87344809D01*
G36*
X153430000Y-85587774D02*
X153392560Y-85776000D01*
X153392560Y-86576000D01*
X153393421Y-86580331D01*
X153354500Y-86776000D01*
X153354500Y-87541000D01*
X153083126Y-87541000D01*
X152952328Y-87595178D01*
X152849586Y-87441414D01*
X152751687Y-87376000D01*
X152849586Y-87310586D01*
X153044127Y-87019436D01*
X153112440Y-86676001D01*
X153112440Y-86025999D01*
X153044127Y-85682564D01*
X152849586Y-85391414D01*
X152558436Y-85196873D01*
X152215001Y-85128560D01*
X151314999Y-85128560D01*
X150971564Y-85196873D01*
X150792500Y-85316520D01*
X150792500Y-85240626D01*
X150634931Y-84860220D01*
X150343780Y-84569069D01*
X149963374Y-84411500D01*
X149797301Y-84411500D01*
X149737330Y-84351529D01*
X149694929Y-84288071D01*
X149671900Y-84272684D01*
X149626127Y-84042564D01*
X149538141Y-83910885D01*
X149585327Y-83863699D01*
X149682000Y-83630310D01*
X149682000Y-83089750D01*
X149523250Y-82931000D01*
X148599000Y-82931000D01*
X148599000Y-82951000D01*
X148345000Y-82951000D01*
X148345000Y-82931000D01*
X148325000Y-82931000D01*
X148325000Y-82677000D01*
X148345000Y-82677000D01*
X148345000Y-82657000D01*
X148599000Y-82657000D01*
X148599000Y-82677000D01*
X149523250Y-82677000D01*
X149682000Y-82518250D01*
X149682000Y-82470802D01*
X150491560Y-83280362D01*
X150491560Y-83853000D01*
X150540843Y-84100765D01*
X150681191Y-84310809D01*
X150891235Y-84451157D01*
X151139000Y-84500440D01*
X151739000Y-84500440D01*
X151986765Y-84451157D01*
X152196809Y-84310809D01*
X152337157Y-84100765D01*
X152386440Y-83853000D01*
X152386440Y-82853000D01*
X152337157Y-82605235D01*
X152196809Y-82395191D01*
X151986765Y-82254843D01*
X151739000Y-82205560D01*
X151566362Y-82205560D01*
X151456743Y-82095941D01*
X151587157Y-81900765D01*
X151636440Y-81653000D01*
X151636440Y-80653000D01*
X151587157Y-80405235D01*
X151446809Y-80195191D01*
X151305005Y-80100440D01*
X151739000Y-80100440D01*
X151986765Y-80051157D01*
X152196809Y-79910809D01*
X152337157Y-79700765D01*
X152386440Y-79453000D01*
X152386440Y-78617682D01*
X152732280Y-78474431D01*
X152849711Y-78357000D01*
X153100153Y-78357000D01*
X153175000Y-78371888D01*
X153249847Y-78357000D01*
X153249852Y-78357000D01*
X153430001Y-78321166D01*
X153430000Y-85587774D01*
X153430000Y-85587774D01*
G37*
X153430000Y-85587774D02*
X153392560Y-85776000D01*
X153392560Y-86576000D01*
X153393421Y-86580331D01*
X153354500Y-86776000D01*
X153354500Y-87541000D01*
X153083126Y-87541000D01*
X152952328Y-87595178D01*
X152849586Y-87441414D01*
X152751687Y-87376000D01*
X152849586Y-87310586D01*
X153044127Y-87019436D01*
X153112440Y-86676001D01*
X153112440Y-86025999D01*
X153044127Y-85682564D01*
X152849586Y-85391414D01*
X152558436Y-85196873D01*
X152215001Y-85128560D01*
X151314999Y-85128560D01*
X150971564Y-85196873D01*
X150792500Y-85316520D01*
X150792500Y-85240626D01*
X150634931Y-84860220D01*
X150343780Y-84569069D01*
X149963374Y-84411500D01*
X149797301Y-84411500D01*
X149737330Y-84351529D01*
X149694929Y-84288071D01*
X149671900Y-84272684D01*
X149626127Y-84042564D01*
X149538141Y-83910885D01*
X149585327Y-83863699D01*
X149682000Y-83630310D01*
X149682000Y-83089750D01*
X149523250Y-82931000D01*
X148599000Y-82931000D01*
X148599000Y-82951000D01*
X148345000Y-82951000D01*
X148345000Y-82931000D01*
X148325000Y-82931000D01*
X148325000Y-82677000D01*
X148345000Y-82677000D01*
X148345000Y-82657000D01*
X148599000Y-82657000D01*
X148599000Y-82677000D01*
X149523250Y-82677000D01*
X149682000Y-82518250D01*
X149682000Y-82470802D01*
X150491560Y-83280362D01*
X150491560Y-83853000D01*
X150540843Y-84100765D01*
X150681191Y-84310809D01*
X150891235Y-84451157D01*
X151139000Y-84500440D01*
X151739000Y-84500440D01*
X151986765Y-84451157D01*
X152196809Y-84310809D01*
X152337157Y-84100765D01*
X152386440Y-83853000D01*
X152386440Y-82853000D01*
X152337157Y-82605235D01*
X152196809Y-82395191D01*
X151986765Y-82254843D01*
X151739000Y-82205560D01*
X151566362Y-82205560D01*
X151456743Y-82095941D01*
X151587157Y-81900765D01*
X151636440Y-81653000D01*
X151636440Y-80653000D01*
X151587157Y-80405235D01*
X151446809Y-80195191D01*
X151305005Y-80100440D01*
X151739000Y-80100440D01*
X151986765Y-80051157D01*
X152196809Y-79910809D01*
X152337157Y-79700765D01*
X152386440Y-79453000D01*
X152386440Y-78617682D01*
X152732280Y-78474431D01*
X152849711Y-78357000D01*
X153100153Y-78357000D01*
X153175000Y-78371888D01*
X153249847Y-78357000D01*
X153249852Y-78357000D01*
X153430001Y-78321166D01*
X153430000Y-85587774D01*
G36*
X145092414Y-77041586D02*
X145383564Y-77236127D01*
X145479721Y-77255254D01*
X145308673Y-77426301D01*
X145212000Y-77659690D01*
X145212000Y-78200250D01*
X145370750Y-78359000D01*
X146295000Y-78359000D01*
X146295000Y-78339000D01*
X146549000Y-78339000D01*
X146549000Y-78359000D01*
X146562011Y-78359000D01*
X146562011Y-78613000D01*
X146549000Y-78613000D01*
X146549000Y-78633000D01*
X146295000Y-78633000D01*
X146295000Y-78613000D01*
X145370750Y-78613000D01*
X145212000Y-78771750D01*
X145212000Y-79312310D01*
X145308673Y-79545699D01*
X145406728Y-79643754D01*
X145267873Y-79851564D01*
X145199560Y-80194999D01*
X145199560Y-80753000D01*
X145002440Y-80753000D01*
X145002440Y-80399000D01*
X144953157Y-80151235D01*
X144812809Y-79941191D01*
X144602765Y-79800843D01*
X144355000Y-79751560D01*
X144080337Y-79751560D01*
X144114698Y-79737327D01*
X144293327Y-79558699D01*
X144390000Y-79325310D01*
X144390000Y-78984750D01*
X144231250Y-78826000D01*
X143582000Y-78826000D01*
X143582000Y-79675250D01*
X143699238Y-79792488D01*
X143657235Y-79800843D01*
X143447191Y-79941191D01*
X143306843Y-80151235D01*
X143257560Y-80399000D01*
X143257560Y-81399000D01*
X143306843Y-81646765D01*
X143447191Y-81856809D01*
X143657235Y-81997157D01*
X143699238Y-82005512D01*
X143582000Y-82122750D01*
X143582000Y-82972000D01*
X143602000Y-82972000D01*
X143602000Y-83226000D01*
X143582000Y-83226000D01*
X143582000Y-84075250D01*
X143740750Y-84234000D01*
X143881309Y-84234000D01*
X144114698Y-84137327D01*
X144274000Y-83978026D01*
X144274000Y-84048153D01*
X144259112Y-84123000D01*
X144274000Y-84197847D01*
X144274000Y-84197851D01*
X144318096Y-84419536D01*
X144486071Y-84670929D01*
X144549530Y-84713331D01*
X144609669Y-84773471D01*
X144652071Y-84836929D01*
X144715529Y-84879330D01*
X145009699Y-85173500D01*
X144871528Y-85311671D01*
X144808072Y-85354071D01*
X144765672Y-85417527D01*
X144765671Y-85417528D01*
X144677240Y-85549874D01*
X144640097Y-85605463D01*
X144619788Y-85707560D01*
X144356000Y-85707560D01*
X144108235Y-85756843D01*
X143916281Y-85885104D01*
X143910397Y-85855522D01*
X144037000Y-85549874D01*
X144037000Y-85138126D01*
X143879431Y-84757720D01*
X143588280Y-84466569D01*
X143207874Y-84309000D01*
X142796126Y-84309000D01*
X142415720Y-84466569D01*
X142298289Y-84584000D01*
X142126846Y-84584000D01*
X142051999Y-84569112D01*
X141977152Y-84584000D01*
X141977148Y-84584000D01*
X141755463Y-84628096D01*
X141722902Y-84649853D01*
X141556765Y-84538843D01*
X141309000Y-84489560D01*
X140481000Y-84489560D01*
X140481000Y-84249126D01*
X140425503Y-84115145D01*
X140512809Y-84056809D01*
X140653157Y-83846765D01*
X140702440Y-83599000D01*
X140702440Y-83384750D01*
X142520000Y-83384750D01*
X142520000Y-83725310D01*
X142616673Y-83958699D01*
X142795302Y-84137327D01*
X143028691Y-84234000D01*
X143169250Y-84234000D01*
X143328000Y-84075250D01*
X143328000Y-83226000D01*
X142678750Y-83226000D01*
X142520000Y-83384750D01*
X140702440Y-83384750D01*
X140702440Y-82599000D01*
X140677316Y-82472690D01*
X142520000Y-82472690D01*
X142520000Y-82813250D01*
X142678750Y-82972000D01*
X143328000Y-82972000D01*
X143328000Y-82122750D01*
X143169250Y-81964000D01*
X143028691Y-81964000D01*
X142795302Y-82060673D01*
X142616673Y-82239301D01*
X142520000Y-82472690D01*
X140677316Y-82472690D01*
X140653157Y-82351235D01*
X140515000Y-82144470D01*
X140515000Y-79653530D01*
X140644982Y-79459000D01*
X140918154Y-79459000D01*
X140993001Y-79473888D01*
X141067848Y-79459000D01*
X141067853Y-79459000D01*
X141289538Y-79414904D01*
X141540930Y-79246929D01*
X141583332Y-79183470D01*
X141782052Y-78984750D01*
X142520000Y-78984750D01*
X142520000Y-79325310D01*
X142616673Y-79558699D01*
X142795302Y-79737327D01*
X143028691Y-79834000D01*
X143169250Y-79834000D01*
X143328000Y-79675250D01*
X143328000Y-78826000D01*
X142678750Y-78826000D01*
X142520000Y-78984750D01*
X141782052Y-78984750D01*
X142520000Y-78246802D01*
X142520000Y-78413250D01*
X142678750Y-78572000D01*
X143328000Y-78572000D01*
X143328000Y-77722750D01*
X143582000Y-77722750D01*
X143582000Y-78572000D01*
X144231250Y-78572000D01*
X144390000Y-78413250D01*
X144390000Y-78072690D01*
X144293327Y-77839301D01*
X144114698Y-77660673D01*
X143881309Y-77564000D01*
X143740750Y-77564000D01*
X143582000Y-77722750D01*
X143328000Y-77722750D01*
X143186026Y-77580776D01*
X143649803Y-77117000D01*
X143969874Y-77117000D01*
X144350280Y-76959431D01*
X144467711Y-76842000D01*
X144959054Y-76842000D01*
X145092414Y-77041586D01*
X145092414Y-77041586D01*
G37*
X145092414Y-77041586D02*
X145383564Y-77236127D01*
X145479721Y-77255254D01*
X145308673Y-77426301D01*
X145212000Y-77659690D01*
X145212000Y-78200250D01*
X145370750Y-78359000D01*
X146295000Y-78359000D01*
X146295000Y-78339000D01*
X146549000Y-78339000D01*
X146549000Y-78359000D01*
X146562011Y-78359000D01*
X146562011Y-78613000D01*
X146549000Y-78613000D01*
X146549000Y-78633000D01*
X146295000Y-78633000D01*
X146295000Y-78613000D01*
X145370750Y-78613000D01*
X145212000Y-78771750D01*
X145212000Y-79312310D01*
X145308673Y-79545699D01*
X145406728Y-79643754D01*
X145267873Y-79851564D01*
X145199560Y-80194999D01*
X145199560Y-80753000D01*
X145002440Y-80753000D01*
X145002440Y-80399000D01*
X144953157Y-80151235D01*
X144812809Y-79941191D01*
X144602765Y-79800843D01*
X144355000Y-79751560D01*
X144080337Y-79751560D01*
X144114698Y-79737327D01*
X144293327Y-79558699D01*
X144390000Y-79325310D01*
X144390000Y-78984750D01*
X144231250Y-78826000D01*
X143582000Y-78826000D01*
X143582000Y-79675250D01*
X143699238Y-79792488D01*
X143657235Y-79800843D01*
X143447191Y-79941191D01*
X143306843Y-80151235D01*
X143257560Y-80399000D01*
X143257560Y-81399000D01*
X143306843Y-81646765D01*
X143447191Y-81856809D01*
X143657235Y-81997157D01*
X143699238Y-82005512D01*
X143582000Y-82122750D01*
X143582000Y-82972000D01*
X143602000Y-82972000D01*
X143602000Y-83226000D01*
X143582000Y-83226000D01*
X143582000Y-84075250D01*
X143740750Y-84234000D01*
X143881309Y-84234000D01*
X144114698Y-84137327D01*
X144274000Y-83978026D01*
X144274000Y-84048153D01*
X144259112Y-84123000D01*
X144274000Y-84197847D01*
X144274000Y-84197851D01*
X144318096Y-84419536D01*
X144486071Y-84670929D01*
X144549530Y-84713331D01*
X144609669Y-84773471D01*
X144652071Y-84836929D01*
X144715529Y-84879330D01*
X145009699Y-85173500D01*
X144871528Y-85311671D01*
X144808072Y-85354071D01*
X144765672Y-85417527D01*
X144765671Y-85417528D01*
X144677240Y-85549874D01*
X144640097Y-85605463D01*
X144619788Y-85707560D01*
X144356000Y-85707560D01*
X144108235Y-85756843D01*
X143916281Y-85885104D01*
X143910397Y-85855522D01*
X144037000Y-85549874D01*
X144037000Y-85138126D01*
X143879431Y-84757720D01*
X143588280Y-84466569D01*
X143207874Y-84309000D01*
X142796126Y-84309000D01*
X142415720Y-84466569D01*
X142298289Y-84584000D01*
X142126846Y-84584000D01*
X142051999Y-84569112D01*
X141977152Y-84584000D01*
X141977148Y-84584000D01*
X141755463Y-84628096D01*
X141722902Y-84649853D01*
X141556765Y-84538843D01*
X141309000Y-84489560D01*
X140481000Y-84489560D01*
X140481000Y-84249126D01*
X140425503Y-84115145D01*
X140512809Y-84056809D01*
X140653157Y-83846765D01*
X140702440Y-83599000D01*
X140702440Y-83384750D01*
X142520000Y-83384750D01*
X142520000Y-83725310D01*
X142616673Y-83958699D01*
X142795302Y-84137327D01*
X143028691Y-84234000D01*
X143169250Y-84234000D01*
X143328000Y-84075250D01*
X143328000Y-83226000D01*
X142678750Y-83226000D01*
X142520000Y-83384750D01*
X140702440Y-83384750D01*
X140702440Y-82599000D01*
X140677316Y-82472690D01*
X142520000Y-82472690D01*
X142520000Y-82813250D01*
X142678750Y-82972000D01*
X143328000Y-82972000D01*
X143328000Y-82122750D01*
X143169250Y-81964000D01*
X143028691Y-81964000D01*
X142795302Y-82060673D01*
X142616673Y-82239301D01*
X142520000Y-82472690D01*
X140677316Y-82472690D01*
X140653157Y-82351235D01*
X140515000Y-82144470D01*
X140515000Y-79653530D01*
X140644982Y-79459000D01*
X140918154Y-79459000D01*
X140993001Y-79473888D01*
X141067848Y-79459000D01*
X141067853Y-79459000D01*
X141289538Y-79414904D01*
X141540930Y-79246929D01*
X141583332Y-79183470D01*
X141782052Y-78984750D01*
X142520000Y-78984750D01*
X142520000Y-79325310D01*
X142616673Y-79558699D01*
X142795302Y-79737327D01*
X143028691Y-79834000D01*
X143169250Y-79834000D01*
X143328000Y-79675250D01*
X143328000Y-78826000D01*
X142678750Y-78826000D01*
X142520000Y-78984750D01*
X141782052Y-78984750D01*
X142520000Y-78246802D01*
X142520000Y-78413250D01*
X142678750Y-78572000D01*
X143328000Y-78572000D01*
X143328000Y-77722750D01*
X143582000Y-77722750D01*
X143582000Y-78572000D01*
X144231250Y-78572000D01*
X144390000Y-78413250D01*
X144390000Y-78072690D01*
X144293327Y-77839301D01*
X144114698Y-77660673D01*
X143881309Y-77564000D01*
X143740750Y-77564000D01*
X143582000Y-77722750D01*
X143328000Y-77722750D01*
X143186026Y-77580776D01*
X143649803Y-77117000D01*
X143969874Y-77117000D01*
X144350280Y-76959431D01*
X144467711Y-76842000D01*
X144959054Y-76842000D01*
X145092414Y-77041586D01*
G36*
X154990843Y-81900765D02*
X155131191Y-82110809D01*
X155341235Y-82251157D01*
X155383238Y-82259512D01*
X155266000Y-82376750D01*
X155266000Y-83226000D01*
X155286000Y-83226000D01*
X155286000Y-83480000D01*
X155266000Y-83480000D01*
X155266000Y-83500000D01*
X155012000Y-83500000D01*
X155012000Y-83480000D01*
X154992000Y-83480000D01*
X154992000Y-83226000D01*
X155012000Y-83226000D01*
X155012000Y-82376750D01*
X154950000Y-82314750D01*
X154950000Y-81695431D01*
X154990843Y-81900765D01*
X154990843Y-81900765D01*
G37*
X154990843Y-81900765D02*
X155131191Y-82110809D01*
X155341235Y-82251157D01*
X155383238Y-82259512D01*
X155266000Y-82376750D01*
X155266000Y-83226000D01*
X155286000Y-83226000D01*
X155286000Y-83480000D01*
X155266000Y-83480000D01*
X155266000Y-83500000D01*
X155012000Y-83500000D01*
X155012000Y-83480000D01*
X154992000Y-83480000D01*
X154992000Y-83226000D01*
X155012000Y-83226000D01*
X155012000Y-82376750D01*
X154950000Y-82314750D01*
X154950000Y-81695431D01*
X154990843Y-81900765D01*
G36*
X155266000Y-78826000D02*
X155286000Y-78826000D01*
X155286000Y-79080000D01*
X155266000Y-79080000D01*
X155266000Y-79929250D01*
X155383238Y-80046488D01*
X155341235Y-80054843D01*
X155131191Y-80195191D01*
X154990843Y-80405235D01*
X154950000Y-80610569D01*
X154950000Y-79991250D01*
X155012000Y-79929250D01*
X155012000Y-79080000D01*
X154992000Y-79080000D01*
X154992000Y-78826000D01*
X155012000Y-78826000D01*
X155012000Y-78806000D01*
X155266000Y-78806000D01*
X155266000Y-78826000D01*
X155266000Y-78826000D01*
G37*
X155266000Y-78826000D02*
X155286000Y-78826000D01*
X155286000Y-79080000D01*
X155266000Y-79080000D01*
X155266000Y-79929250D01*
X155383238Y-80046488D01*
X155341235Y-80054843D01*
X155131191Y-80195191D01*
X154990843Y-80405235D01*
X154950000Y-80610569D01*
X154950000Y-79991250D01*
X155012000Y-79929250D01*
X155012000Y-79080000D01*
X154992000Y-79080000D01*
X154992000Y-78826000D01*
X155012000Y-78826000D01*
X155012000Y-78806000D01*
X155266000Y-78806000D01*
X155266000Y-78826000D01*
G36*
X155174000Y-65618000D02*
X155194000Y-65618000D01*
X155194000Y-65872000D01*
X155174000Y-65872000D01*
X155174000Y-66721250D01*
X155332750Y-66880000D01*
X156033000Y-66880000D01*
X156033001Y-78227709D01*
X155977327Y-78093301D01*
X155798698Y-77914673D01*
X155565309Y-77818000D01*
X155424750Y-77818000D01*
X155266002Y-77976748D01*
X155266002Y-77818000D01*
X155169431Y-77818000D01*
X155215930Y-77786930D01*
X155383905Y-77535538D01*
X155428001Y-77313853D01*
X155428001Y-77313849D01*
X155442889Y-77239002D01*
X155428001Y-77164155D01*
X155428001Y-69393847D01*
X155442889Y-69318999D01*
X155428001Y-69244151D01*
X155428001Y-69244147D01*
X155383905Y-69022462D01*
X155215930Y-68771070D01*
X155152471Y-68728668D01*
X155056333Y-68632530D01*
X155013931Y-68569071D01*
X154762539Y-68401096D01*
X154540854Y-68357000D01*
X154540849Y-68357000D01*
X154466002Y-68342112D01*
X154391155Y-68357000D01*
X153552271Y-68357000D01*
X153594440Y-68145000D01*
X153594440Y-66848416D01*
X153670691Y-66880000D01*
X154761250Y-66880000D01*
X154920000Y-66721250D01*
X154920000Y-65872000D01*
X154900000Y-65872000D01*
X154900000Y-65618000D01*
X154920000Y-65618000D01*
X154920000Y-65598000D01*
X155174000Y-65598000D01*
X155174000Y-65618000D01*
X155174000Y-65618000D01*
G37*
X155174000Y-65618000D02*
X155194000Y-65618000D01*
X155194000Y-65872000D01*
X155174000Y-65872000D01*
X155174000Y-66721250D01*
X155332750Y-66880000D01*
X156033000Y-66880000D01*
X156033001Y-78227709D01*
X155977327Y-78093301D01*
X155798698Y-77914673D01*
X155565309Y-77818000D01*
X155424750Y-77818000D01*
X155266002Y-77976748D01*
X155266002Y-77818000D01*
X155169431Y-77818000D01*
X155215930Y-77786930D01*
X155383905Y-77535538D01*
X155428001Y-77313853D01*
X155428001Y-77313849D01*
X155442889Y-77239002D01*
X155428001Y-77164155D01*
X155428001Y-69393847D01*
X155442889Y-69318999D01*
X155428001Y-69244151D01*
X155428001Y-69244147D01*
X155383905Y-69022462D01*
X155215930Y-68771070D01*
X155152471Y-68728668D01*
X155056333Y-68632530D01*
X155013931Y-68569071D01*
X154762539Y-68401096D01*
X154540854Y-68357000D01*
X154540849Y-68357000D01*
X154466002Y-68342112D01*
X154391155Y-68357000D01*
X153552271Y-68357000D01*
X153594440Y-68145000D01*
X153594440Y-66848416D01*
X153670691Y-66880000D01*
X154761250Y-66880000D01*
X154920000Y-66721250D01*
X154920000Y-65872000D01*
X154900000Y-65872000D01*
X154900000Y-65618000D01*
X154920000Y-65618000D01*
X154920000Y-65598000D01*
X155174000Y-65598000D01*
X155174000Y-65618000D01*
G36*
X139087001Y-70550148D02*
X139072112Y-70625000D01*
X139131097Y-70921537D01*
X139236311Y-71079000D01*
X139299072Y-71172929D01*
X139362528Y-71215329D01*
X139710669Y-71563470D01*
X139753071Y-71626929D01*
X139903560Y-71727483D01*
X139903560Y-72579000D01*
X139952843Y-72826765D01*
X140093191Y-73036809D01*
X140303235Y-73177157D01*
X140551000Y-73226440D01*
X142151000Y-73226440D01*
X142398765Y-73177157D01*
X142608809Y-73036809D01*
X142749157Y-72826765D01*
X142798440Y-72579000D01*
X142798440Y-72524000D01*
X144959054Y-72524000D01*
X145092414Y-72723586D01*
X145353442Y-72898000D01*
X145092414Y-73072414D01*
X144897873Y-73363564D01*
X144829560Y-73706999D01*
X144829560Y-74357001D01*
X144897873Y-74700436D01*
X145092414Y-74991586D01*
X145190313Y-75057000D01*
X145092414Y-75122414D01*
X144959054Y-75322000D01*
X144467711Y-75322000D01*
X144350280Y-75204569D01*
X143969874Y-75047000D01*
X143558126Y-75047000D01*
X143177720Y-75204569D01*
X142886569Y-75495720D01*
X142778316Y-75757066D01*
X142627250Y-75606000D01*
X141478000Y-75606000D01*
X141478000Y-75626000D01*
X141224000Y-75626000D01*
X141224000Y-75606000D01*
X140074750Y-75606000D01*
X139916000Y-75764750D01*
X139916000Y-77105309D01*
X140012673Y-77338698D01*
X140191301Y-77517327D01*
X140424690Y-77614000D01*
X141003200Y-77614000D01*
X140678200Y-77939000D01*
X140644982Y-77939000D01*
X140512809Y-77741191D01*
X140302765Y-77600843D01*
X140055000Y-77551560D01*
X139455000Y-77551560D01*
X139207235Y-77600843D01*
X138997191Y-77741191D01*
X138988000Y-77754946D01*
X138988000Y-73852691D01*
X139916000Y-73852691D01*
X139916000Y-75193250D01*
X140074750Y-75352000D01*
X141224000Y-75352000D01*
X141224000Y-73502750D01*
X141478000Y-73502750D01*
X141478000Y-75352000D01*
X142627250Y-75352000D01*
X142786000Y-75193250D01*
X142786000Y-73852691D01*
X142689327Y-73619302D01*
X142510699Y-73440673D01*
X142277310Y-73344000D01*
X141636750Y-73344000D01*
X141478000Y-73502750D01*
X141224000Y-73502750D01*
X141065250Y-73344000D01*
X140424690Y-73344000D01*
X140191301Y-73440673D01*
X140012673Y-73619302D01*
X139916000Y-73852691D01*
X138988000Y-73852691D01*
X138988000Y-66892440D01*
X139087000Y-66892440D01*
X139087001Y-70550148D01*
X139087001Y-70550148D01*
G37*
X139087001Y-70550148D02*
X139072112Y-70625000D01*
X139131097Y-70921537D01*
X139236311Y-71079000D01*
X139299072Y-71172929D01*
X139362528Y-71215329D01*
X139710669Y-71563470D01*
X139753071Y-71626929D01*
X139903560Y-71727483D01*
X139903560Y-72579000D01*
X139952843Y-72826765D01*
X140093191Y-73036809D01*
X140303235Y-73177157D01*
X140551000Y-73226440D01*
X142151000Y-73226440D01*
X142398765Y-73177157D01*
X142608809Y-73036809D01*
X142749157Y-72826765D01*
X142798440Y-72579000D01*
X142798440Y-72524000D01*
X144959054Y-72524000D01*
X145092414Y-72723586D01*
X145353442Y-72898000D01*
X145092414Y-73072414D01*
X144897873Y-73363564D01*
X144829560Y-73706999D01*
X144829560Y-74357001D01*
X144897873Y-74700436D01*
X145092414Y-74991586D01*
X145190313Y-75057000D01*
X145092414Y-75122414D01*
X144959054Y-75322000D01*
X144467711Y-75322000D01*
X144350280Y-75204569D01*
X143969874Y-75047000D01*
X143558126Y-75047000D01*
X143177720Y-75204569D01*
X142886569Y-75495720D01*
X142778316Y-75757066D01*
X142627250Y-75606000D01*
X141478000Y-75606000D01*
X141478000Y-75626000D01*
X141224000Y-75626000D01*
X141224000Y-75606000D01*
X140074750Y-75606000D01*
X139916000Y-75764750D01*
X139916000Y-77105309D01*
X140012673Y-77338698D01*
X140191301Y-77517327D01*
X140424690Y-77614000D01*
X141003200Y-77614000D01*
X140678200Y-77939000D01*
X140644982Y-77939000D01*
X140512809Y-77741191D01*
X140302765Y-77600843D01*
X140055000Y-77551560D01*
X139455000Y-77551560D01*
X139207235Y-77600843D01*
X138997191Y-77741191D01*
X138988000Y-77754946D01*
X138988000Y-73852691D01*
X139916000Y-73852691D01*
X139916000Y-75193250D01*
X140074750Y-75352000D01*
X141224000Y-75352000D01*
X141224000Y-73502750D01*
X141478000Y-73502750D01*
X141478000Y-75352000D01*
X142627250Y-75352000D01*
X142786000Y-75193250D01*
X142786000Y-73852691D01*
X142689327Y-73619302D01*
X142510699Y-73440673D01*
X142277310Y-73344000D01*
X141636750Y-73344000D01*
X141478000Y-73502750D01*
X141224000Y-73502750D01*
X141065250Y-73344000D01*
X140424690Y-73344000D01*
X140191301Y-73440673D01*
X140012673Y-73619302D01*
X139916000Y-73852691D01*
X138988000Y-73852691D01*
X138988000Y-66892440D01*
X139087000Y-66892440D01*
X139087001Y-70550148D01*
G36*
X152108000Y-70793250D02*
X152266750Y-70952000D01*
X153416000Y-70952000D01*
X153416000Y-70932000D01*
X153670000Y-70932000D01*
X153670000Y-70952000D01*
X153690000Y-70952000D01*
X153690000Y-71206000D01*
X153670000Y-71206000D01*
X153670000Y-71226000D01*
X153416000Y-71226000D01*
X153416000Y-71206000D01*
X152266750Y-71206000D01*
X152108000Y-71364750D01*
X152108000Y-72011000D01*
X150064440Y-72011000D01*
X150064440Y-71438999D01*
X149996127Y-71095564D01*
X149801586Y-70804414D01*
X149703687Y-70739000D01*
X149801586Y-70673586D01*
X149996127Y-70382436D01*
X150013225Y-70296476D01*
X150064929Y-70261929D01*
X150107330Y-70198471D01*
X150153801Y-70152000D01*
X150319874Y-70152000D01*
X150700280Y-69994431D01*
X150817711Y-69877000D01*
X152108000Y-69877000D01*
X152108000Y-70793250D01*
X152108000Y-70793250D01*
G37*
X152108000Y-70793250D02*
X152266750Y-70952000D01*
X153416000Y-70952000D01*
X153416000Y-70932000D01*
X153670000Y-70932000D01*
X153670000Y-70952000D01*
X153690000Y-70952000D01*
X153690000Y-71206000D01*
X153670000Y-71206000D01*
X153670000Y-71226000D01*
X153416000Y-71226000D01*
X153416000Y-71206000D01*
X152266750Y-71206000D01*
X152108000Y-71364750D01*
X152108000Y-72011000D01*
X150064440Y-72011000D01*
X150064440Y-71438999D01*
X149996127Y-71095564D01*
X149801586Y-70804414D01*
X149703687Y-70739000D01*
X149801586Y-70673586D01*
X149996127Y-70382436D01*
X150013225Y-70296476D01*
X150064929Y-70261929D01*
X150107330Y-70198471D01*
X150153801Y-70152000D01*
X150319874Y-70152000D01*
X150700280Y-69994431D01*
X150817711Y-69877000D01*
X152108000Y-69877000D01*
X152108000Y-70793250D01*
G36*
X149968000Y-51259874D02*
X150125569Y-51640280D01*
X150416720Y-51931431D01*
X150797126Y-52089000D01*
X151208874Y-52089000D01*
X151589280Y-51931431D01*
X151706711Y-51814000D01*
X151744973Y-51814000D01*
X151619000Y-52118126D01*
X151619000Y-52529874D01*
X151776569Y-52910280D01*
X152067720Y-53201431D01*
X152448126Y-53359000D01*
X152614198Y-53359000D01*
X152787000Y-53531802D01*
X152787000Y-53670148D01*
X152772111Y-53745000D01*
X152831096Y-54041537D01*
X152858801Y-54083000D01*
X152999071Y-54292929D01*
X153183622Y-54416242D01*
X153198843Y-54492765D01*
X153339191Y-54702809D01*
X153402334Y-54745000D01*
X153365491Y-54769618D01*
X153240874Y-54718000D01*
X152829126Y-54718000D01*
X152448720Y-54875569D01*
X152157569Y-55166720D01*
X152000000Y-55547126D01*
X152000000Y-55958874D01*
X152157569Y-56339280D01*
X152448720Y-56630431D01*
X152829126Y-56788000D01*
X153240874Y-56788000D01*
X153380273Y-56730259D01*
X153402334Y-56745000D01*
X153339191Y-56787191D01*
X153198843Y-56997235D01*
X153149560Y-57245000D01*
X153149560Y-57484638D01*
X153122198Y-57512000D01*
X152956126Y-57512000D01*
X152575720Y-57669569D01*
X152284569Y-57960720D01*
X152127000Y-58341126D01*
X152127000Y-58752874D01*
X152284569Y-59133280D01*
X152575720Y-59424431D01*
X152729196Y-59488003D01*
X152550529Y-59666670D01*
X152487071Y-59709071D01*
X152319096Y-59960464D01*
X152275000Y-60182149D01*
X152275000Y-60182153D01*
X152260112Y-60257000D01*
X152275000Y-60331847D01*
X152275001Y-61526288D01*
X152157569Y-61643720D01*
X152000000Y-62024126D01*
X152000000Y-62435874D01*
X152116792Y-62717836D01*
X152097874Y-62710000D01*
X151686126Y-62710000D01*
X151305720Y-62867569D01*
X151014569Y-63158720D01*
X150857000Y-63539126D01*
X150857000Y-63950874D01*
X151014569Y-64331280D01*
X151305720Y-64622431D01*
X151686126Y-64780000D01*
X152097874Y-64780000D01*
X152478280Y-64622431D01*
X152595711Y-64505000D01*
X153207018Y-64505000D01*
X153339191Y-64702809D01*
X153400320Y-64743655D01*
X153258673Y-64885301D01*
X153162000Y-65118690D01*
X153162000Y-65459250D01*
X153320748Y-65617998D01*
X153162000Y-65617998D01*
X153162000Y-65740326D01*
X152947000Y-65697560D01*
X151947000Y-65697560D01*
X151699235Y-65746843D01*
X151489191Y-65887191D01*
X151447000Y-65950334D01*
X151404809Y-65887191D01*
X151194765Y-65746843D01*
X150947000Y-65697560D01*
X149947000Y-65697560D01*
X149699235Y-65746843D01*
X149489191Y-65887191D01*
X149447000Y-65950334D01*
X149404809Y-65887191D01*
X149194765Y-65746843D01*
X148947000Y-65697560D01*
X147947000Y-65697560D01*
X147699235Y-65746843D01*
X147489191Y-65887191D01*
X147447000Y-65950334D01*
X147404809Y-65887191D01*
X147194765Y-65746843D01*
X146947000Y-65697560D01*
X145947000Y-65697560D01*
X145699235Y-65746843D01*
X145489191Y-65887191D01*
X145447000Y-65950334D01*
X145404809Y-65887191D01*
X145194765Y-65746843D01*
X144947000Y-65697560D01*
X143947000Y-65697560D01*
X143699235Y-65746843D01*
X143489191Y-65887191D01*
X143447000Y-65950334D01*
X143404809Y-65887191D01*
X143214064Y-65759738D01*
X144311803Y-64662000D01*
X144477874Y-64662000D01*
X144858280Y-64504431D01*
X145149431Y-64213280D01*
X145307000Y-63832874D01*
X145307000Y-63421126D01*
X145149431Y-63040720D01*
X144858280Y-62749569D01*
X144477874Y-62592000D01*
X144066126Y-62592000D01*
X143685720Y-62749569D01*
X143394569Y-63040720D01*
X143237000Y-63421126D01*
X143237000Y-63587197D01*
X142618524Y-64205674D01*
X142609431Y-64183720D01*
X142318280Y-63892569D01*
X141937874Y-63735000D01*
X141744440Y-63735000D01*
X141744440Y-63245000D01*
X141695157Y-62997235D01*
X141554809Y-62787191D01*
X141491666Y-62745000D01*
X141554809Y-62702809D01*
X141686982Y-62505000D01*
X143920153Y-62505000D01*
X143995000Y-62519888D01*
X144069847Y-62505000D01*
X144069852Y-62505000D01*
X144291537Y-62460904D01*
X144418605Y-62376000D01*
X144604874Y-62376000D01*
X144985280Y-62218431D01*
X145276431Y-61927280D01*
X145434000Y-61546874D01*
X145434000Y-61135126D01*
X145276431Y-60754720D01*
X144985280Y-60463569D01*
X144604874Y-60306000D01*
X144193126Y-60306000D01*
X143812720Y-60463569D01*
X143521569Y-60754720D01*
X143426184Y-60985000D01*
X141686982Y-60985000D01*
X141554809Y-60787191D01*
X141491666Y-60745000D01*
X141554809Y-60702809D01*
X141686982Y-60505000D01*
X143126153Y-60505000D01*
X143201000Y-60519888D01*
X143275847Y-60505000D01*
X143275852Y-60505000D01*
X143497537Y-60460904D01*
X143748929Y-60292929D01*
X143791331Y-60229470D01*
X144565802Y-59455000D01*
X144731874Y-59455000D01*
X145112280Y-59297431D01*
X145403431Y-59006280D01*
X145561000Y-58625874D01*
X145561000Y-58214126D01*
X145403431Y-57833720D01*
X145112280Y-57542569D01*
X144731874Y-57385000D01*
X144320126Y-57385000D01*
X143939720Y-57542569D01*
X143648569Y-57833720D01*
X143491000Y-58214126D01*
X143491000Y-58380198D01*
X142886199Y-58985000D01*
X142757711Y-58985000D01*
X142817931Y-58924780D01*
X142975500Y-58544374D01*
X142975500Y-58132626D01*
X142817931Y-57752220D01*
X142526780Y-57461069D01*
X142146374Y-57303500D01*
X142113301Y-57303500D01*
X143322474Y-56094328D01*
X143385930Y-56051928D01*
X143553905Y-55800536D01*
X143598001Y-55578851D01*
X143598001Y-55578847D01*
X143612889Y-55504000D01*
X143598001Y-55429153D01*
X143598001Y-53310849D01*
X143612889Y-53236001D01*
X143598001Y-53161153D01*
X143598001Y-53161149D01*
X143553905Y-52939464D01*
X143553905Y-52939463D01*
X143428330Y-52751528D01*
X143385930Y-52688072D01*
X143322474Y-52645672D01*
X141937331Y-51260530D01*
X141894929Y-51197071D01*
X141755639Y-51104000D01*
X149968000Y-51104000D01*
X149968000Y-51259874D01*
X149968000Y-51259874D01*
G37*
X149968000Y-51259874D02*
X150125569Y-51640280D01*
X150416720Y-51931431D01*
X150797126Y-52089000D01*
X151208874Y-52089000D01*
X151589280Y-51931431D01*
X151706711Y-51814000D01*
X151744973Y-51814000D01*
X151619000Y-52118126D01*
X151619000Y-52529874D01*
X151776569Y-52910280D01*
X152067720Y-53201431D01*
X152448126Y-53359000D01*
X152614198Y-53359000D01*
X152787000Y-53531802D01*
X152787000Y-53670148D01*
X152772111Y-53745000D01*
X152831096Y-54041537D01*
X152858801Y-54083000D01*
X152999071Y-54292929D01*
X153183622Y-54416242D01*
X153198843Y-54492765D01*
X153339191Y-54702809D01*
X153402334Y-54745000D01*
X153365491Y-54769618D01*
X153240874Y-54718000D01*
X152829126Y-54718000D01*
X152448720Y-54875569D01*
X152157569Y-55166720D01*
X152000000Y-55547126D01*
X152000000Y-55958874D01*
X152157569Y-56339280D01*
X152448720Y-56630431D01*
X152829126Y-56788000D01*
X153240874Y-56788000D01*
X153380273Y-56730259D01*
X153402334Y-56745000D01*
X153339191Y-56787191D01*
X153198843Y-56997235D01*
X153149560Y-57245000D01*
X153149560Y-57484638D01*
X153122198Y-57512000D01*
X152956126Y-57512000D01*
X152575720Y-57669569D01*
X152284569Y-57960720D01*
X152127000Y-58341126D01*
X152127000Y-58752874D01*
X152284569Y-59133280D01*
X152575720Y-59424431D01*
X152729196Y-59488003D01*
X152550529Y-59666670D01*
X152487071Y-59709071D01*
X152319096Y-59960464D01*
X152275000Y-60182149D01*
X152275000Y-60182153D01*
X152260112Y-60257000D01*
X152275000Y-60331847D01*
X152275001Y-61526288D01*
X152157569Y-61643720D01*
X152000000Y-62024126D01*
X152000000Y-62435874D01*
X152116792Y-62717836D01*
X152097874Y-62710000D01*
X151686126Y-62710000D01*
X151305720Y-62867569D01*
X151014569Y-63158720D01*
X150857000Y-63539126D01*
X150857000Y-63950874D01*
X151014569Y-64331280D01*
X151305720Y-64622431D01*
X151686126Y-64780000D01*
X152097874Y-64780000D01*
X152478280Y-64622431D01*
X152595711Y-64505000D01*
X153207018Y-64505000D01*
X153339191Y-64702809D01*
X153400320Y-64743655D01*
X153258673Y-64885301D01*
X153162000Y-65118690D01*
X153162000Y-65459250D01*
X153320748Y-65617998D01*
X153162000Y-65617998D01*
X153162000Y-65740326D01*
X152947000Y-65697560D01*
X151947000Y-65697560D01*
X151699235Y-65746843D01*
X151489191Y-65887191D01*
X151447000Y-65950334D01*
X151404809Y-65887191D01*
X151194765Y-65746843D01*
X150947000Y-65697560D01*
X149947000Y-65697560D01*
X149699235Y-65746843D01*
X149489191Y-65887191D01*
X149447000Y-65950334D01*
X149404809Y-65887191D01*
X149194765Y-65746843D01*
X148947000Y-65697560D01*
X147947000Y-65697560D01*
X147699235Y-65746843D01*
X147489191Y-65887191D01*
X147447000Y-65950334D01*
X147404809Y-65887191D01*
X147194765Y-65746843D01*
X146947000Y-65697560D01*
X145947000Y-65697560D01*
X145699235Y-65746843D01*
X145489191Y-65887191D01*
X145447000Y-65950334D01*
X145404809Y-65887191D01*
X145194765Y-65746843D01*
X144947000Y-65697560D01*
X143947000Y-65697560D01*
X143699235Y-65746843D01*
X143489191Y-65887191D01*
X143447000Y-65950334D01*
X143404809Y-65887191D01*
X143214064Y-65759738D01*
X144311803Y-64662000D01*
X144477874Y-64662000D01*
X144858280Y-64504431D01*
X145149431Y-64213280D01*
X145307000Y-63832874D01*
X145307000Y-63421126D01*
X145149431Y-63040720D01*
X144858280Y-62749569D01*
X144477874Y-62592000D01*
X144066126Y-62592000D01*
X143685720Y-62749569D01*
X143394569Y-63040720D01*
X143237000Y-63421126D01*
X143237000Y-63587197D01*
X142618524Y-64205674D01*
X142609431Y-64183720D01*
X142318280Y-63892569D01*
X141937874Y-63735000D01*
X141744440Y-63735000D01*
X141744440Y-63245000D01*
X141695157Y-62997235D01*
X141554809Y-62787191D01*
X141491666Y-62745000D01*
X141554809Y-62702809D01*
X141686982Y-62505000D01*
X143920153Y-62505000D01*
X143995000Y-62519888D01*
X144069847Y-62505000D01*
X144069852Y-62505000D01*
X144291537Y-62460904D01*
X144418605Y-62376000D01*
X144604874Y-62376000D01*
X144985280Y-62218431D01*
X145276431Y-61927280D01*
X145434000Y-61546874D01*
X145434000Y-61135126D01*
X145276431Y-60754720D01*
X144985280Y-60463569D01*
X144604874Y-60306000D01*
X144193126Y-60306000D01*
X143812720Y-60463569D01*
X143521569Y-60754720D01*
X143426184Y-60985000D01*
X141686982Y-60985000D01*
X141554809Y-60787191D01*
X141491666Y-60745000D01*
X141554809Y-60702809D01*
X141686982Y-60505000D01*
X143126153Y-60505000D01*
X143201000Y-60519888D01*
X143275847Y-60505000D01*
X143275852Y-60505000D01*
X143497537Y-60460904D01*
X143748929Y-60292929D01*
X143791331Y-60229470D01*
X144565802Y-59455000D01*
X144731874Y-59455000D01*
X145112280Y-59297431D01*
X145403431Y-59006280D01*
X145561000Y-58625874D01*
X145561000Y-58214126D01*
X145403431Y-57833720D01*
X145112280Y-57542569D01*
X144731874Y-57385000D01*
X144320126Y-57385000D01*
X143939720Y-57542569D01*
X143648569Y-57833720D01*
X143491000Y-58214126D01*
X143491000Y-58380198D01*
X142886199Y-58985000D01*
X142757711Y-58985000D01*
X142817931Y-58924780D01*
X142975500Y-58544374D01*
X142975500Y-58132626D01*
X142817931Y-57752220D01*
X142526780Y-57461069D01*
X142146374Y-57303500D01*
X142113301Y-57303500D01*
X143322474Y-56094328D01*
X143385930Y-56051928D01*
X143553905Y-55800536D01*
X143598001Y-55578851D01*
X143598001Y-55578847D01*
X143612889Y-55504000D01*
X143598001Y-55429153D01*
X143598001Y-53310849D01*
X143612889Y-53236001D01*
X143598001Y-53161153D01*
X143598001Y-53161149D01*
X143553905Y-52939464D01*
X143553905Y-52939463D01*
X143428330Y-52751528D01*
X143385930Y-52688072D01*
X143322474Y-52645672D01*
X141937331Y-51260530D01*
X141894929Y-51197071D01*
X141755639Y-51104000D01*
X149968000Y-51104000D01*
X149968000Y-51259874D01*
G04 #@! TD*
M02*
