M48
;DRILL file {KiCad (5.0.0)} date 07/27/19 01:42:25
;FORMAT={-:-/ absolute / metric / decimal}
FMAT,2
METRIC,TZ
T1C0.400
%
G90
G05
M71
T1
X139.446Y-75.565
X139.446Y-84.455
X140.716Y-88.265
X140.97Y-80.01
X141.732Y-64.77
X141.94Y-58.338
X141.974Y-55.118
X142.113Y-53.745
X143.002Y-85.344
X143.256Y-88.011
X143.764Y-76.082
X144.018Y-73.533
X144.018Y-84.328
X144.272Y-63.627
X144.399Y-61.341
X144.526Y-58.42
X144.526Y-87.63
X144.638Y-68.975
X144.78Y-78.486
X145.034Y-81.788
X148.082Y-63.373
X148.463Y-53.721
X149.757Y-85.447
X149.987Y-70.739
X150.114Y-69.117
X150.238Y-76.705
X151.003Y-51.054
X151.892Y-61.595
X151.892Y-63.745
X151.892Y-73.914
X152.019Y-75.692
X152.146Y-77.597
X152.654Y-52.324
X152.654Y-84.582
X153.035Y-55.753
X153.035Y-62.23
X153.162Y-58.547
X153.289Y-88.576
X153.416Y-73.279
X154.94Y-85.006
X154.94Y-87.376
X155.067Y-83.312
X155.194Y-79.248
T0
M30
